<svg id="Layer_1" data-name="Layer 1" xmlns="http://www.w3.org/2000/svg" viewBox="0 0 375.99 232.89"><defs><style>.cls-1{fill:#fff;}</style></defs><title>banner-top</title><path class="cls-1" d="M12.88,6.79c-.14-.07-.32,0-.46-.14a2.31,2.31,0,0,1-1.37-.18l-.17,0c-.28-.28-.64-.14-1-.19h0l-1-.39-.78-.24L6.93,5.28a.57.57,0,0,0-.6-.2l-.58-.24a.36.36,0,0,1,.61-.3c.52.59.54-.16.8-.25-.19-.26-.42-.52,0-.82s.61.39,1,.39h0L8.5,4l.6,0a2.4,2.4,0,0,0,1.38,0c0-.47-.45-.34-.62-.57h0l0-.21a.41.41,0,0,0,.41-.42l-.21-.18c.62-.55,1.38-.35,2.1-.42a.13.13,0,0,0,.07-.17h0a.15.15,0,0,0,.25,0,.39.39,0,0,0,0-.41c-.5-.34-1.08,0-1.59-.18l-.58-.24C10.15.73,10,.45,9.53.34a2,2,0,0,0,.24,0c.22.21.65.18.7.58.35-.29.49.42.83.17-.37-1-.37-1-1.21-1.14S8.58-.82,7.69-.63C7.4-1,6.92-.95,6.54-1.11a2.11,2.11,0,0,0-.19-.23.67.67,0,0,0,.07-.24l.07.08c.33.22.75.06,1.09.22.35-.43.52,0,.73.17.38.1.75.33,1.17.15.6.63,1.43.55,2.18.69.4.35.89.23,1.35.25.06,0,.17-.15.07-.23a3.44,3.44,0,0,0-1.44-.39c-.72-.13-1.39-.57-2.17-.34h0l-.18-.29-.74-.21c-.69-.13-1.26-1-2.09-.34,0-.08,0-.16.08-.23h0l.21-.54h0c.49-.17.9.31,1.38.18s.07-.29,0-.43A4.31,4.31,0,0,0,6.73-3l-.38-.2h0a.75.75,0,0,0-.67-.15.34.34,0,0,0-.06-.06.21.21,0,0,0-.24,0c-.4-.7-.89-.5-1.39-.1l-.06.06A1,1,0,0,0,3-4a.26.26,0,0,0,.22-.22.35.35,0,0,0-.09-.33l.28.1c1.36.38,2.64,1,4,1.35a.82.82,0,0,0,.67,0l.57,0c.07.17.22.2.37.24a.7.7,0,0,0,.64.12h.58a.58.58,0,0,0,.18,0l.21.21c.26-.07.57,0,.78-.21A.51.51,0,0,0,11.3-3c-.53-.47-1.27,0-1.8-.42l-.22,0a26.69,26.69,0,0,1-3.14-1l.13-.14s.05.06.09.08a3.35,3.35,0,0,0,1.28.39A2.06,2.06,0,0,0,8-4.25c.55.09,1,.62,1.63.42-.37-.43-.68-1-1.38-.88h0L6.94-5.06a1.36,1.36,0,0,0-.42-.79.61.61,0,0,1,.13,0,2.69,2.69,0,0,0,.57.17h.17l.13.07h.59a5.28,5.28,0,0,0,1.57.36c.29.14.54-.09.81-.09s.26-.1.21-.28l-.08,0A8.19,8.19,0,0,0,8.31-6,11.84,11.84,0,0,0,5.55-7a3.68,3.68,0,0,0-.44-.34c.16-.22-.06-.35-.3-.43a.84.84,0,0,1-.66-1l0-.12h.14s0,.08,0,.12a.35.35,0,0,0,.16.2,1.36,1.36,0,0,0,.72.08c.65-.52.61-.66-.36-1.21-.25-.19-.59,0-.83-.19s-.39-.18-.61-.2c-.7.05-1.28-.46-2-.37a2.38,2.38,0,0,0-1.18-.55,8.86,8.86,0,0,0-3.6-1A.9.9,0,0,1-4-12.28a3.21,3.21,0,0,0-2.67-.63c-.69-.37-1.46-.17-2.18-.31l-2.1-.25c-.32,0-.6.29-.95.21L-13-13l-.41-.07a3.08,3.08,0,0,0-2.16-.41l-.59,0c-.21-.33-.52-.16-.8-.16l-1.7.39c-.43.29-.84-.08-1.26,0l-.39.09c-.19-.12-.32,0-.45.11s-.52.09-.75.23c-.81.21-1.72,0-2.38.74-.3.41-1,0-1.21.51a.37.37,0,0,0,.05.11l-.34.28-.05,0a.75.75,0,0,0-.26.05l-.12.06h0a.42.42,0,0,0,0-.49c-.19-.08-.35-.41-.57-.17-.5.53-1.23.67-1.78,1.09a1.68,1.68,0,0,0-1,.59c-.38,0-.53.31-.77.5-.64.51-1.26.66-1.82-.1l-.58-.62h0l-.19-.19-2.58-2.57a2.36,2.36,0,0,0-.79-.78,13.9,13.9,0,0,0-2-1.78l-.18-.2a.63.63,0,0,0-.61-.4l-.58-.59c-.07-.2-.28-.15-.42-.22s-.56,0-.79-.15l-.2-.18c-.08-.19-.16-.36-.4-.37-.84.35-1.11-.42-1.58-.81a1,1,0,0,0-.41-.58l-.11-.1c0-.17,0-.33.08-.5a.12.12,0,0,1-.1,0l-.2.3,0,0a1,1,0,0,0-.55-.21c0-.67-.48-.32-.8-.29a.42.42,0,0,0,0-.39h0a.92.92,0,0,0-1.11-.66.74.74,0,0,1-.63-.13c-.23-.24-.47-.45-.83-.34-.39.26-.76,0-1.14,0-.25.13-.47-.14-.71-.09l-.13-.12-.58.19h0c-.27-.33-.67-.1-1-.23a2.21,2.21,0,0,0-1.17,0,1.15,1.15,0,0,1-1.17.42c-.31.21-.73.11-1,.34,0,0,0,0,0,0a1,1,0,0,0-.21-.21l-.07-.06a2.68,2.68,0,0,0,.07-.27l-.35-.19-.38-.18h0l-1.17,0-.24.35-.13.07s0-.06,0-.1c-.34-.44-.81-.13-1.22-.22l-.21.1c-.06,0-.08.06-.07.1-.42,0-.7.55-1.18.3l-2.12.58a1.68,1.68,0,0,0-.44.61l-.54.21-1.16-.22c-.23.33.4.84-.14,1.11.09-.31.21-.64-.28-.75l-.57.23c-.18.18-.44.19-.62.35l-1.38.67a4.86,4.86,0,0,0-1.57.95,2.52,2.52,0,0,0-1.21.78c-.15,0-.34,0-.39.19l-.76.42a12.52,12.52,0,0,0-2.2,1.56,7,7,0,0,0-2.31,1.4,2.46,2.46,0,0,0-1.45,1l-.37.05c-.28.17-.65.2-.79.56a5.25,5.25,0,0,0-.82.27c-1.21.62-1.32.58-1.92-.68h0a11.77,11.77,0,0,1-1.5-2c.06-.28-.21-.28-.33-.4a.5.5,0,0,0-.37-.59.6.6,0,0,0-.38-.61l-.4-.39c.11-.55-.39-.78-.61-1.15l-.57-.63a.64.64,0,0,0-.41-.57l-.08-.2c-.07-.53-.71-.42-.9-.8-.39-.56-1.11-.59-1.59-1a.42.42,0,0,0-.36,0s0,0,0,.07a.29.29,0,0,0-.16,0c0-.15,0-.24-.23-.21l-.39,0A4.74,4.74,0,0,0-90-22c-.16-.09-.05-.41-.33-.39l-.69,0h0c-.34-.14-.51-.76-1-.53.07-.71-.6-1-1-1.44s-1,.14-1.37-.4c-.44-.34-.91-.17-1.37-.06s-.71-.23-1,.13a2.63,2.63,0,0,0-1.77-.09c-.21-.27-.54-.07-.79-.2l-.55.22a2.11,2.11,0,0,1-.23.19,3,3,0,0,0-1.21.24c-.06-.32-.29-.42-.57-.47-.12-.24-.26-.47-.59-.4l-.55.05a2.83,2.83,0,0,0-.36.16c-.35-.18-.77,0-1.12-.16a.92.92,0,0,0-.73.29.21.21,0,0,0,0,.21,1.35,1.35,0,0,1-1,0,2.58,2.58,0,0,0-1.94.48.38.38,0,0,1-.53.2.51.51,0,0,0-.72.37.14.14,0,0,1,0,.06l-.55.31h0c-.58.1-1.14.59-1.74.07-.16.4-.53.53-.86.7a.86.86,0,0,0-.35-.12A5,5,0,0,0-115.22-21c-.58.4-1.32.57-1.74,1.21l-.62.42-1.19.94a7.28,7.28,0,0,0-2,1.78.18.18,0,0,0-.17.21c-.46.53-1.24.7-1.57,1.38l-.26.16-.2.4h0l-.35.24h0l-.24,0c-.24-.06-.29.12-.34.29.12.61-.73.39-.76.88h0l-.57-.47c0,.64-.07,1.28-.88,1.49a.42.42,0,0,0-.08.39.11.11,0,0,0-.1,0c-.21-.14-.16-.39-.23-.58-.61.29-.48-.45-.79-.58h0v0a.45.45,0,0,0-.55,0,1,1,0,0,0-.27.33.77.77,0,0,0-.07.16l-.17.06a.33.33,0,0,0-.13-.33l-1.35-.42h-.33a.53.53,0,0,0,0-.12.71.71,0,0,1,.14-.56.16.16,0,0,0,0-.07l.19.17a.62.62,0,0,0,0-.71c0-.07.05-.15.07-.23a1.59,1.59,0,0,0-.27-1.2,4.11,4.11,0,0,1,0-1.71,1.33,1.33,0,0,0-.27-.88c-.06-.26-.07-.55-.43-.6a.74.74,0,0,0-.25.28A.55.55,0,0,0-131-19a4.4,4.4,0,0,1-.26-2.3c0-1-.86-.14-1.16-.56,0-.05,0,.29,0,.45.38.44,0,.75-.2,1.09V-20h0c0,.76,0,1.53.12,2.29a.86.86,0,0,1-.15.63c-.22.44.11.88,0,1.32a1.37,1.37,0,0,0,.08.53,1.79,1.79,0,0,0-.25-.31c-.6.3-.65.82-.59,1.4l.07,0c-.37.28-.95,0-1.27.41,0,.21,0,.43.2.57a.74.74,0,0,1,.05.81c0,.06-.05.12-.08.17s.13.4.2.6a.59.59,0,0,0,.1.6l-.06,0a.75.75,0,0,1,0,.16h0l-.13,0-.08-.09c-.4-.19-.76.27-1.16.09a.84.84,0,0,1,.19-.8c.28-.48-.39-.65-.4-1,.22,0,.48.21.63-.15a5.56,5.56,0,0,1-.22-1.57l-.06-.07h0c0-.31.07-.63-.09-.92l0-.09v-.09c-1,0-.68.63-.6,1.17h0c-.3.48-.08,1-.22,1.56l.06.08c-.07.3.17.55.19.83s.29.7-.22.89h0c-.38-.52,0-1.21-.38-1.73h0a.64.64,0,0,0,0-.64l-.2-.18a.32.32,0,0,0,.12-.11,4.41,4.41,0,0,0,.09-2.28l-.22-.24c-.32-.6.23-1.38-.38-1.93-.08-.12-.16-.24-.23-.36-.94-.43-.57.36-.67.71a.52.52,0,0,1,.21.17.11.11,0,0,1-.12.07l-.17.22,0,.36c.1.37-.13.8.15,1.14a1.09,1.09,0,0,0-.08.15.5.5,0,0,0,.12.47c-.43-.09-.68-.3-.57-.82a.64.64,0,0,0-.22-.7c0-.28.07-.6-.18-.83s0-.67-.18-1c-.48-.34-.36.11-.37.31,0,1.26,0,2.52,0,3.78a4,4,0,0,1,0,1.76,2.1,2.1,0,0,0-.38-.52,3.87,3.87,0,0,0-.24-1.78,1.08,1.08,0,0,0,0-1h0a.21.21,0,0,0-.15-.07h0a2.17,2.17,0,0,0,0-1.31.3.3,0,0,1-.08-.17c-.27-.57.08-1.25-.3-1.81-.49,0-.49,0-.5.94,0,.28-.06.56.09.82,0,0,0,.07-.08.13a2.13,2.13,0,0,0,.07.87,1.67,1.67,0,0,1,0,.94c0,.1.05.21.17.26h0l-.08.09c0,.22-.06.46.2.58l0,0v0c-.13,0-.25-.05-.34.09v.54c.06.39-.07.83.34,1.13s-.23.35-.13.58c-.06.37.19.67.25,1-.07,0-.2,0-.46.15a.72.72,0,0,0,0,.71.89.89,0,0,1,.08.17l0,.06h0a.46.46,0,0,0-.24-.12c.11-.42-.15-.8-.14-1.21a1.7,1.7,0,0,0-.09-.24.8.8,0,0,0,.2.15c.5-.15.18-.52.21-.8l-.11-.51c-.38,0-.29.32-.34.54a.5.5,0,0,0-.08.39,2.41,2.41,0,0,0-.21-.24l-.05,0a.1.1,0,0,0,0-.12c-.11-.22.06-.64-.28-.65s-.19.42-.33.62l.34,1.21h0c0,.12,0,.25,0,.37h-.35a1.16,1.16,0,0,1-.25-.74l-.56.14h0c-.21-.19-.1-.63-.45-.69s-.31.21-.34.4c-.09.5,0,.92.57,1.08.19.07.56.23.15.35s-.54.45-.53.84c0,0,0,.09,0,.13a4.44,4.44,0,0,0,0,1,1.64,1.64,0,0,0,.26.53.56.56,0,0,1-.39-.62s-.07-.05-.1-.08h0c.15-.93-.59-.34-.89-.51l0-.06a.47.47,0,0,0-.06-.35.38.38,0,0,0,.15,0,.38.38,0,0,0,.25-.41,2,2,0,0,0,.07-.85c-.17-.76-.49-.92-1.08-.37l0,.34a1.89,1.89,0,0,0,.21,1l.07.06c-.28.08-.36.36-.52.55-.47-.23-.64,0-.64.44a1.52,1.52,0,0,1,.06,1.35c.27.33.06,1,.74,1,0,0,0,0,0,0a.09.09,0,0,0,0,0l-.11.06c-.18.13-.41.22-.26.48,0,.06-.05.12-.07.19a.55.55,0,0,0,.1.77c.36.17.82.16,1.08.49a.36.36,0,0,0-.17.07s0,0,0,0l-.54-.15c.06.18.12.35.17.53l0,.39c.19.42.47.36.78.15,0,0,0,0,.08,0,.33.34.85.6.51,1.24-.26-.12-.41-.81-.83-.17l.06.37c0,.2,0,.4,0,.6.22.18.13.62.55.63h0a.69.69,0,0,0,.62.13l.17.21a1.38,1.38,0,0,0-.31.33c-.24-.2-.44-.53-.85-.3-.07.14.09.52-.13.42s-.81-.54-.57-.87c.4-.59.11-.93-.17-1.31a.85.85,0,0,0,0-.23c-.46-1.13-.61-2.35-1-3.5-.25-.18-.39-.05-.5.17.06.24.11.48.17.72l0-.07a1.72,1.72,0,0,0-.32-.23c-.84-.42-1.14-.23-1.11.68a.85.85,0,0,0,.09.47c.06.45-.11.94.22,1.36a.38.38,0,0,1,0,.15c.25.37.54.26.83.08l.13-.15c.4.16.18.47,0,.77l-.52-.06a.44.44,0,0,1,0-.1c-.13-.15-.26-.27-.42,0a10.73,10.73,0,0,0,.57,2.91c.29.23.55-.07.83,0h.1a2,2,0,0,0,0,.78,2.17,2.17,0,0,0,1.06.3h0A2.74,2.74,0,0,0-143.85,4V4.1l.21.39h0c-.3.39-.77.26-1.16.37-.06.52.54,0,.6.39l.57.21c0,.1.09.21.14.31s0,0,0,.07a.65.65,0,0,0,.47.6l.23,0,.38.2c.31,0,.45.16.57.4a.46.46,0,0,1,.07-.07h0l-.08.07c-.1.61.26,1.26,0,1.86-.14-.29-.3-.55-.71-.52l0,.08V8.43a1,1,0,0,0-.17-1.2c-.17.07-.55-.11-.43.29s-.1.69-.1,1a.25.25,0,0,0,.14.06h0c0,.06,0,.13,0,.19s0,0,.05.06a1,1,0,0,1-.17,0,1,1,0,0,0,0,.81,12.85,12.85,0,0,0,.43,1.81,6.73,6.73,0,0,0-2.34-2.16c-.15,0-.26.13-.19.31a7.33,7.33,0,0,0,2.77,2.56.74.74,0,0,0,.6.38l.43.39c.26.27.29.74.74.82a.35.35,0,0,0,.08.16c.2.5,1,.24,1.12.81a.51.51,0,0,0,0,.17c.34,0,.48.31.74.43l0,.33c.09.26.2.52.54.53h0a.5.5,0,0,0,.37.31.29.29,0,0,0,0,.09c.11.31.39.36.65.44a.58.58,0,0,0,.39-.06s0-.05,0-.07l.33.21a.36.36,0,0,0,0,.27.66.66,0,0,0-.36.06s0,0,0,.06a.42.42,0,0,0-.57,0l-.06.2a.78.78,0,0,0,.66.16,11.12,11.12,0,0,0,2.77.74c.17.37.63-.11.79.27l1.95-.17.8.36c1.1.32,2.18.81,3.34.21.18,0,.25-.49.39-.27.53.85,1,.37,1.54,0-.3-.38-.83.07-1.14-.31a.5.5,0,0,0-.76-.07l0,0c-.19-.31,0-.63,0-.94l.45,0a2.18,2.18,0,0,0,.72,0,1.18,1.18,0,0,0,.27-.06,1.25,1.25,0,0,1,.47-.07c.27.18.47.51.8.57h.16l-.07.06-.06.12c.14,1.1.66,0,1,.17l.42-.38.7-.23a2.29,2.29,0,0,0,.75-.25.3.3,0,0,0,.32.14l.79,0a.34.34,0,0,0,.09-.15c.3.12.51,0,.68-.28l.2-.19h0c.2,0,.39.31.61,0,.68-.09,1.46,0,1.58-1l.38-.24a1.46,1.46,0,0,0,2.12-.77c.16,0,.36,0,.46-.17a.49.49,0,0,0,.16,0,.55.55,0,0,0,.22-.47c.19,0,.3-.13.42-.26.66.09,1-.45,1.36-.81l.59-.41c.23-.56,1.09-.47,1.2-1.15.45-.07.58-.46.79-.77.62,0,.83-.49,1.17-.84a5.33,5.33,0,0,0,1.59-1.36h0l.2-.18a1.27,1.27,0,0,0,.79-.61l.19-.2a19.68,19.68,0,0,1,2.38-2,11,11,0,0,0,2,2c.36.37.58.9,1.18,1,.25.24.67.25.82.62.08.93,1,1.32,1.4,2a1.94,1.94,0,0,0,1.34,1.14c.21-.26.1-.51,0-.76a4.77,4.77,0,0,1,.82.74.67.67,0,0,0,.35.48l.6.31c.14.37.66.21.8.58.31.16.61.39.94.05h0l.23-.28v.05c.54-.13.91.29,1.37.41h0l0,0c.09.33.34.35.61.34a1.94,1.94,0,0,0-.13.54l-.05,0c-.22-.33-.63-.32-.92-.54,0,0,0-.06,0-.09-.12-.25-.34-.27-.58-.26a.72.72,0,0,0-.48.26.56.56,0,0,0-.07.18.17.17,0,0,0-.23-.06.82.82,0,0,0-.42-.31c-.21-.08-.45.08-.66-.06s-.35-.08-.42.17c.59.05.79.82,1.44.75l.16.06a4.17,4.17,0,0,0,1.44.9,1.43,1.43,0,0,0,1.15.24,1,1,0,0,0,1,.59c.5-.23.85.36,1.33.23a2,2,0,0,0,1.42.37c0,.16.12.16.21,0l.81-.06c.41.36,1-.18,1.37.21a.35.35,0,0,0,.51.05,6.53,6.53,0,0,1,.7.35l.73,0c.14.25.37.19.59.17a.38.38,0,0,0,.1-.44l.09,0a.7.7,0,0,0,.42.47v0c.2.13.4.17.56-.06a.78.78,0,0,0,0-.14h.57c.56.59,1-.39,1.6-.07a2.34,2.34,0,0,0,2.15-.51c.27.2.5-.13.76,0a1.78,1.78,0,0,0,1-.34l.44-.41a.62.62,0,0,0,.57-.4,2.91,2.91,0,0,0,1.37-.22v.06a.42.42,0,0,0,.27,0h0a1.3,1.3,0,0,0,.87,0l.18-.23.53,0c.15-.08.35,0,.48-.16.11.1.17.36.38.11l.21-.51.2,0a3.12,3.12,0,0,0,2.32-.77c.09-.19.26-.18.43-.18.5-.45,1.41-.29,1.64-1.12a.86.86,0,0,0-.07-.1h0a.27.27,0,0,0,.1.16.71.71,0,0,0,.7-.11l.38-.22a1.19,1.19,0,0,0,1-.57A.89.89,0,0,0-62,12.1a2,2,0,0,0,1.19-.93c.49-.4,1.2-.44,1.59-1,.64-.85,1.69-1,2.52-1.59a.2.2,0,0,0,.12-.22c.23-.12.46-.25.7-.36s.63-.43,1-.2c.65.32,1,1,1.57,1.38,0,.6.66.65,1,1a11.65,11.65,0,0,0,2.57,2.58c0,.27.17.37.41.39v-.33s.07,0,.11,0,.09-.09.12-.14a1.77,1.77,0,0,1,.83.59l.53.42.21.2c.26,0,.3.47.71.22s.23.21.29.38l.43.45c-.64-.1-.63,0-.41.7A7,7,0,0,0-45,16.93c.53-.07.3-.36.18-.61l0,0,.28,0a1.84,1.84,0,0,1,.91.26l.1.32h0c-.22.44-.76,0-1,.41a1,1,0,0,0,.76.23c0,.61.67.64,1,1,.2.1.37.09.48-.13a.84.84,0,0,0-.31-.63,3.11,3.11,0,0,1-.28-.23.75.75,0,0,0,.32.09h0a.29.29,0,0,0,0,.09l.4,0c.24.07.25.43.55.43a.49.49,0,0,1,.06.17l.32,0a.73.73,0,0,0-.22.21.71.71,0,0,0-.36-.15c-.19,0-.4,0-.34.31.73.44,1.38,1.07,2.33,1h0a.56.56,0,0,0,.36.4,10.74,10.74,0,0,0,3.77.55h1l.56,0a3.28,3.28,0,0,0,2.19.58,1.07,1.07,0,0,0,1,.2c.41-.3.95.14,1.36-.21l.41-.37h.39a.64.64,0,0,0,.61-.36l0-.05,1-.56a.29.29,0,0,1,.16,0,.76.76,0,0,0,0-.16h0a.38.38,0,0,0,.2.07,5.37,5.37,0,0,0,1.55,0,.89.89,0,0,1,.79-.25c.3-.24.7,0,1-.2a1.06,1.06,0,0,1,.77-.41c.29,0,.59.12.81-.17.21,0,.45.05.59-.19l1.77-1c.59-.32,1.29-.44,1.74-1a.23.23,0,0,1,.14,0A.74.74,0,0,0-17,16a.2.2,0,0,0,.28-.13,2,2,0,0,1,1.59-.75c0,.07.09.09.14.06s.11-.18,0-.23a1.07,1.07,0,0,1-.35-.44c.2-.3.37,0,.56.06l0,0c.07.45.47.22.7.34l.9,0a.6.6,0,0,0,.62.32.36.36,0,0,0,.18.07c.28.26.67.24,1,.34l1,.24,2.17.59a.76.76,0,0,1,0,.15c.36.33.85,0,1.22.23a.11.11,0,0,1,.15,0c.39,0,.79.24,1.18,0h0c.41-.23.73.08,1.09.2l.31,0,.59.05.39.2a5.45,5.45,0,0,0,1.78.38c.37-.21.81,0,1.18-.21.3-.48-.22-.41-.39-.57L-1,16.84c-.31-.19-.7.2-1-.13h-.21c-.3-.34-.71-.09-1-.17h0a1.89,1.89,0,0,0-1.11-.43c.08-.31.34-.2.55-.23a.32.32,0,0,0-.12-.39.4.4,0,0,0-.67-.09h0a.82.82,0,0,0-.32-.23A4.72,4.72,0,0,0-5.55,15h-.31a.43.43,0,0,0-.27-.08l-.54-.1a.51.51,0,0,0-.21,0c0-.36.23-.34.51-.27s.55.11.83.16h0a.47.47,0,0,1,0,.17l1,0h0l.2.07c.39-.16.65.18,1,.23l.15,0c.07.25.2.38.45.17h0c.21,0,.45-.07.61.16l.34,0a14.83,14.83,0,0,0,3,0l.56-.41h0c.11-.18,0-.3-.14-.39-.07-.51.33-.34.57-.4l.59,0C3.23,15,4,14.6,4.6,15a.15.15,0,0,0,0-.23c-.15-.11-.3-.22-.44-.34l-1.35-.25h0C2,14,1.46,13.24.61,13.36c0-.18-.2-.22-.35-.25a.87.87,0,0,0-.64-.35.28.28,0,0,0-.25-.06l-.08,0-1.21-.39c.19-.31.51-.13.76-.2h.07v.06c.27.57.8.12,1.16.31,1.12.28,2.12,1,3.31,1A2.78,2.78,0,0,0,4.74,14a.24.24,0,0,0,0,.14.54.54,0,0,1,.18,0c.73.38,1.52.07,2.27.18.1-.83-.65-.54-1-.76a.94.94,0,0,0-.59.09.27.27,0,0,1-.07.18.09.09,0,0,0,0-.05c-.2-.29-.45-.45-.79-.22,0,0,0-.08,0-.12a.57.57,0,0,0-.18-.2c-.25-.1-.5-.23-.77-.07h0a1,1,0,0,0,0-.11,14.29,14.29,0,0,0-2.64-.94l-.18-.06h0l0,0c.31-.32.39.23.64.15.33-.27.45-.58,0-.83-.16-.1-.09-.17,0-.23h0a.25.25,0,0,0,.23.08h0a1.46,1.46,0,0,0,.56.39c-.26,0-.48,0-.49.45.15.33.48.32.75.43l.31.1a.53.53,0,0,0,.34.15l.24.12a1.23,1.23,0,0,0,.38.08c.46,0,.78.31,1.18.44a.16.16,0,0,0,.18-.07c.35.23.77,0,1.12.2a.7.7,0,0,0,.69-.19h0c.43-.32.57-.64,0-.95a.25.25,0,0,1-.17,0c-.48,0-.88.3-1.35.3,0,0,0-.06,0-.09s-.22-.08-.33-.12a.88.88,0,0,0,.32,0c.22,0,.49.27.66,0S6,12.14,5.9,12c-.65-.08-.78-.82-1.32-1-.06-.45-.41-.37-.71-.39l-.07,0c0-.26.29-.32.51-.41a.41.41,0,0,0,0,.11.65.65,0,0,0,1,.34c.31-.08.75.08.8-.46l.39,0,.22.2.41,0h0l.53.24A4,4,0,0,0,9.07,11c.59.36,1.19.12,1.84.16-.18-.46-.46-.29-.66-.36.11-1.15-.79-.64-1.29-.78-.23.16-.19.3-.09.44a1.11,1.11,0,0,0-.5-.14c.06-.11.11-.22.17-.32L8.1,9.8h0l-.39-.2,0,.08h0l.07-.08c-.27-.29-.65-.15-1-.23A.64.64,0,0,0,6,9.13c-.08-.1-.15-.21-.23-.32s0-.27,0-.41,0-.3-.23-.33a1,1,0,0,1-.75-.45c.16-.25,0-.5,0-.75h0l0,0,.07.09c.29.28.51.84,1,.26.52-.41,1,.45,1.68,0a9.55,9.55,0,0,0-2.84-.74l-.35-.07L4,6.43c-.19-.37-.47-.38-.79-.19H3c0-.42-.41-.43-.65-.63S2,5.46,2.21,5.28s.2,0,.32,0v0a2.44,2.44,0,0,0,1.83.57l1.18.2c.81.47,1.84.17,2.62.75.36.34.89.21,1.28.47h0c-.2.29-.54.07-.84.22.21.26.58,0,.73.31.38-.12.82.22,1.16-.17h0a.17.17,0,0,1,.14,0c.54-.13,1.08.28,1.62,0,.21-.29.3,0,.4.1.43.37.51.07.57-.28A.92.92,0,0,0,12.88,6.79Zm180,199c-.26-.24.19-.26.34-.37s0,0,.09,0a.38.38,0,0,0,.26-.06l.1.06a4.71,4.71,0,0,1-.65.28Zm-52.71-2.37,0,0h0Zm-5.32,1.55h0Zm-40.68,0,0,0h0l0,0Zm-14.38-1.63a.23.23,0,0,0-.15-.14c0-.07,0-.19.06-.14A.24.24,0,0,1,79.75,203.29Zm-1.92-5.23c-.66-.07-.37.42-.4.72h0a.45.45,0,0,1-.31.2l-.15-.34a2.25,2.25,0,0,1-.08-.24c-.1-.32,0-.67-.22-1h.11a1,1,0,0,0,.93.13c.23-.1.45-.17.47.2S78.1,198.09,77.83,198.06ZM74.72,193c.09,0,.18.06.27.12s0,.07,0,.1A1.79,1.79,0,0,0,74.72,193Zm-1-10.8s0,.06,0,.09,0,0,0,0a.5.5,0,0,0,0,.13A.69.69,0,0,1,73.73,182.17ZM88,176l.15.12a.33.33,0,0,0,.06.28l0,0a.76.76,0,0,1,0,.11h0a.47.47,0,0,1-.58,0h0c0-.05,0-.1,0-.16A.69.69,0,0,0,88,176Zm44.42-4.29a.43.43,0,0,0,.25,0,1.13,1.13,0,0,0,.1.13.77.77,0,0,0-.34.3l-.18-.16-.13-.36a1.21,1.21,0,0,0-.09-.2A1.58,1.58,0,0,0,132.44,171.67Zm87,6.5s0,0,.08,0a.64.64,0,0,0,0,.47.11.11,0,0,0,.09.1.48.48,0,0,0-.39.29l-.2-.11,0,0a1.13,1.13,0,0,1,.29-.68S219.4,178.17,219.43,178.17Zm4.41,7.29.08-.05-.07.07Zm-80,14.93h0l0,0h0Zm-10.62,3.11a.21.21,0,0,0-.15-.23,0,0,0,0,1,0,0,1.22,1.22,0,0,0,.34.1.25.25,0,0,0,0,.09s-.06,0-.08,0A.58.58,0,0,0,133.24,203.5Zm-29-4.66.14,0c-.08.17-.16.35-.23.53h0l-.3.23-.07,0a.62.62,0,0,0-.66.31c0-.15.19-.3.12-.45l.29-.17.09,0C104,199.26,104.21,199.18,104.28,198.84Zm-4.59,3.91Zm-16.29-25s.07-.06.11-.09v0a1.2,1.2,0,0,1-.18.94l0-.09.14-.15a.67.67,0,0,0-.09-.64Zm14.67-5.63c.16-.15.33-.3.27-.56.12,0,.18,0,.18-.16.21,0,.32-.13.44-.26l.22.07-1,1-.06.14,0,0-.3.08Zm20.79-9h0c0,.31-.19.32-.37.34A.43.43,0,0,0,118.86,163.12Zm1.59,1.77v0l.33,0h0c0,.11,0,.21,0,.31l-.05,0a.42.42,0,0,0-.5.09s0,0,0,0a.26.26,0,0,0-.11-.07C120.25,165.1,120.39,165.06,120.45,164.89Zm98.38,13.8h0Zm.42.93a.24.24,0,0,0,.16.17.42.42,0,0,0,.38-.08,1.5,1.5,0,0,0,.56.56c.55.2,1.11.39,1.66.57l0,0h-.15a5.49,5.49,0,0,1-1.63-.59c-.36.1-.63-.18-1-.21l-.18-.22v-.17Zm4,9.71ZM187.3,205.52h0a0,0,0,0,1,0,0h0v0h0ZM91.72,177.61h0ZM214.6,178a.17.17,0,0,1,0,.07h-.09Zm7.84,3.62v0h0Zm-1.8,9a.44.44,0,0,0,0-.2l.13.09Zm-70.48,8.71v0h0Zm-2.32,1.6a.34.34,0,0,1,.07-.22A.24.24,0,0,1,147.84,201Zm-41-6.59a.49.49,0,0,0-.37.12l-.13.1-.16-.05,0-.08,0,0h0a.49.49,0,0,1,0,.12c.33-.22.5-.66,1-.69h0A1.4,1.4,0,0,0,106.86,194.36Zm-22.7,7.18a.18.18,0,0,0,0-.16s0,0,0-.06,0,.05.07.07h0s0,.1,0,.14ZM104,167.63a4.14,4.14,0,0,0,.35.38c.39.27.66,0,.94-.22.12-.12.28-.22.33-.39.18,0,.33,0,.37.23-.17,0-.25.05-.28.2h0l-.09,0-.48.31-.07,0a.88.88,0,0,0-.22.1.18.18,0,0,1-.07,0l-.24.05a.27.27,0,0,1-.12-.12.75.75,0,0,0-.24-.29.53.53,0,0,0-.51.09A4,4,0,0,1,104,167.63Zm13.08-1.48a.06.06,0,0,0,0,0S117.07,166.16,117.08,166.15Zm26,9.2s0,0,.07.05a.93.93,0,0,0,.49-.14.27.27,0,0,0,0,.27c-.36-.13-.49.08-.58.36a.54.54,0,0,0-.22-.23C143,175.64,143.11,175.57,143.09,175.35Zm22.56-8.46a.51.51,0,0,0,.31.15.21.21,0,0,0,0,.11C165.83,167.08,165.64,167.07,165.65,166.89Zm3.12,1.3c0,.24.19.32.4.34a.41.41,0,0,0,.15-.07l.08.13c.27,0,.31.33.52.44a.71.71,0,0,1,0,.14l-.8,0-.08-.11a1.44,1.44,0,0,0-.32-.23l-.07,0c.12-.28,0-.44-.23-.59A.44.44,0,0,0,168.77,168.19Zm54.6,19.52,0,.07h0ZM85.86,201.57h0l0-.05v0Zm-4.1-1.84a.35.35,0,0,0-.15-.26.29.29,0,0,0,0-.16C81.78,199.43,81.89,199.56,81.76,199.73Zm-1-19.7,0,0a.37.37,0,0,1,0,.34.33.33,0,0,1-.49.14.55.55,0,0,0-.14-.12l-.12-.1a.35.35,0,0,0,.15-.26l.08,0A.85.85,0,0,1,80.79,180Zm73-9.24h0l0,0v0ZM207,197.66h0Zm-49.27-7.92h0Zm-27.84,8.86a.15.15,0,0,1,0-.13.58.58,0,0,1,.26,0Zm23.72-27Zm51.87,6.49a0,0,0,0,0,0,0h0Zm14.16,8.68h0l-.39-.17,0-.13A.88.88,0,0,0,219.6,186.75Zm.67.39h0Zm-35.14,15.42h0Zm35.2-14.08h0ZM161,187.65v0S161,187.64,161,187.65Zm-76.8,11.53-.15-.07.16-.11,0,0,0,.21Zm-1.88-16.75,0,0h0Zm37.11-12.83Zm43.93,13.65,0,0h0Zm-33.28,13.38h0Zm-18.81-5.79-.11-.11C111.22,190.76,111.28,190.78,111.26,190.84Zm35.58,2.84ZM87.21,181h0l0,0h0Zm-5.29,5.94a0,0,0,0,1,0,0h0Zm130.87-3.52,0,0v0S212.77,183.41,212.79,183.42ZM198,190.92H198l0,0Zm-112.15-.63Zm-1.56-1.36h0Zm15.75-6.31h0Zm5-3.55Zm0,0h0l0,0Zm-1.8,2.57h0ZM95,187.54h0Zm.56,2.34a.27.27,0,0,0-.12-.09.12.12,0,0,1,.13,0S95.54,189.86,95.51,189.88Zm-1-1.15h0Zm7.66-10.29-.1.05a.56.56,0,0,0,0-.08S102.21,178.43,102.22,178.44Zm-.36,2.38h0Zm-7.3,4.58h0Zm12.22-1.21s0,0,0,0v0Zm-.37-.76h0ZM102,177.68v.11a.14.14,0,0,1-.09,0A.53.53,0,0,0,102,177.68Zm5.68-4.3c0-.1.07-.16.16-.21A1.06,1.06,0,0,1,107.72,173.38ZM92.37,185.8l-.06,0h.08Zm0,9h0Zm16-10Zm-2-12.25Zm-.78,1.78h0ZM92.37,196.45h0s0,0,0,0Zm17.37-19.14h0Zm103.42,6.89s0,0,0,0h0ZM196,188Zm.59.86a.14.14,0,0,0,0-.07h0S196.56,188.79,196.56,188.81Zm14.62-4.41h0Zm-12.24,4.34Zm-15.79,8.88s0,0,0,0h0l0,0h0Zm-15-10.65h0Zm16.39,6.71h0l0,0s0,0,.06,0Zm-10.67-4.54h0Zm1.21-5.33h0l0,0Zm-.83-.84s0,0,0,.05h0S174.25,183,174.25,183Zm-1.77-3.11h0Zm12.41,11.2,0,0,0,0Zm-5.88-2.3h0Zm0,0Zm-51.68-.28s0,0,0,0h0Zm0-2.26h0l0,0Zm-4.55-2.58,0,0,.06,0h0Zm-1,4.33,0,0s0,0,0,0Zm8.73-.41h0v0Zm-5-4.72h0v0Zm27-3.78Zm-9.64,10.3h0Zm17.35-11.65h0Zm-2.95,2h0Zm3.57-2.76h0Zm-17,13.79Zm9.58-3.61h0Zm7.58-8.61a0,0,0,0,1,0,0s0,0,0,0,0,0,0,0h0s0,0,0,0ZM153,182.4v0h0Zm-7.09,2.79Zm-18,7.1h0Zm50.32,5.93a.71.71,0,0,0,.15-.15c0,.05-.05.1-.15.15Zm25.65-16.39h0l0,0ZM136.78,188Zm-52.69,8.94s0,0,0,0Zm4.55-1.15a.85.85,0,0,0-.24-.09h0c0-.1.17-.15.25-.22l.24-.1A1.66,1.66,0,0,0,88.64,195.74ZM92,194.26h0v.08s0-.05,0-.08Zm16.59-4.49,0,0h0Zm9.32-7.32a2.25,2.25,0,0,0-.05-.22A.44.44,0,0,1,117.9,182.45Zm3.29,8.66,0,0a.15.15,0,0,1,0,.06.44.44,0,0,1,0-.1Zm33-4h0l0,0Zm39.45,10.46h0l0,0v0Zm21.54-10.69Zm-.4-2.14ZM195.56,187h0l-.18.18h0A.24.24,0,0,0,195.56,187Zm-16-4.72,0,0h0S179.59,182.24,179.58,182.26Zm-92.71,4.11h0Zm-7.08-2a.46.46,0,0,0,.13-.22l.09.22a.47.47,0,0,0-.17,0S79.81,184.35,79.79,184.36Zm52,13.43s0,.06,0,.09,0-.06,0-.09Zm3.21.42,0,0H135Zm62.36-3.55Zm5.73-1.84a.28.28,0,0,1,0-.12.78.78,0,0,0,.14.05A.52.52,0,0,0,203.09,192.82Zm2.55-.13s0,0,0,0a.06.06,0,0,0,0,0Zm10.66-8.12h0v0l0,0Zm-31.84,2.68a1.53,1.53,0,0,0,.31,0C184.69,187.34,184.59,187.36,184.46,187.25Zm-12.35-11.92v0h0Zm-14.61-2.17Zm-27.43,2.75Zm-5.33-4.53,0,0a.08.08,0,0,1,0,0Zm-11,.59Zm-4.53-1h0Zm-22.3,15.41h0Zm-.19-2.77s0,0,0,0h0Zm.16-1.27v0h.1Zm-5.3,10.34h0Zm2.8,6.1s0-.06,0-.09h0a.26.26,0,0,0,0,.08Zm4.74-1.16a0,0,0,0,1,0,0S89.07,197.63,89.07,197.62Zm6.47,1h0Zm0,0h0Zm2-1.18h0s0,0,0,0,.07-.05.06-.1,0,0,0,0h0Zm13.8-9.08Zm7.76,1.06,0,0Zm-.18-.09h0Zm1.1.69a.69.69,0,0,0,.11.13.48.48,0,0,0-.18.07,4.26,4.26,0,0,1-.43-.42A.66.66,0,0,0,120,190Zm.29,3.9h0a.35.35,0,0,0,.1.11h0Zm19.82.35s0,0,0,0a0,0,0,0,1,0,0Zm21.14-10.65Zm29,17.72s0,0,0,0h0Zm8.23-7.42.06,0Zm4.35-1.1-.05.08,0,0Zm11,.86h0Zm-.74-3.67a.44.44,0,0,1,.2,0Zm.69-3.23s0,0,0,.06h-.07l.09-.07Zm.92-6.42a.28.28,0,0,1-.15-.06.8.8,0,0,0,.15,0Zm-3.73.9,0,0h0Zm-11.19-1.57Zm-4.13,5.26v0h0S195.6,185,195.61,184.94Zm-18.2-9.06,0,0h0Zm-28.59,1.83ZM113.11,168ZM79.75,183.41Zm2.39,13.43h0Zm20.9-2.77Zm.19-1.17h0l0,0h0Zm12.45-7.09v0h0Zm28.8,7.63-.2-.11C144.41,193.31,144.47,193.35,144.48,193.44Zm4.14,2.18v0h0Zm34.92-14Zm-24-11.44h0v0Zm-26.93,7.89h0s0,0,0,0,0,0,0,0ZM113.11,168h0Zm-3.74-.2a0,0,0,0,0,0,0h0Zm-8.3,5.32Zm-15,25.62h0a2.61,2.61,0,0,0-.17-.28l.06-.08a.39.39,0,0,1,.48-.56l.06.44A.7.7,0,0,0,86.09,198.77Zm27.81-15.54h0s0,0,0,0a0,0,0,0,0,0,0Zm13.59,13.41ZM169,192.88h0l0,0h0v0Zm46.36,3.72s0,0,0,0l0,.05Zm-9.86-18.52Zm-9.9,6.9h0a0,0,0,0,1,0,0Zm-5.1-4.11,0,0,.14.11a.28.28,0,0,1-.17-.09Zm-9.35-2.55Zm-70-9.31h0Zm-3-.5h0a1.12,1.12,0,0,0,0-.27S108.19,168.36,108.17,168.51Zm-22.1,11.16h0v0h0Zm-7.46,5.47a1.54,1.54,0,0,0,.3.22h0v.27l0,0a.83.83,0,0,0-.32,0h0a1.43,1.43,0,0,0-.34-.31l.35-.2ZM78.18,187a.67.67,0,0,0,.1.44,2,2,0,0,0-.48.06h0c0-.06,0-.11,0-.17A.71.71,0,0,0,78.18,187ZM81,200a.71.71,0,0,0,.1.14.47.47,0,0,1-.51-.19A.53.53,0,0,0,81,200Zm13.52.56h0Zm14.59-7.7h0Zm10.46,2.36h0Zm40.83-5.59a.42.42,0,0,1,.16,0,1.5,1.5,0,0,0-.07.2A1.13,1.13,0,0,0,160.44,189.65Zm36.48,10.28h0a.7.7,0,0,1-.08-.2,1.93,1.93,0,0,0,.71-.16C197.35,199.71,197.07,199.71,196.92,199.93Zm12.13-2.3h0Zm2.32.17h0Zm2.38-19.35c-.09-.39-.55-.26-.73-.49.06,0,.08,0,.12,0a3.21,3.21,0,0,0,.93.32.58.58,0,0,0-.28.12h0ZM210,179.68a.49.49,0,0,1,.25.08Zm-13.49,1.56-.07,0s0,0,0,0Zm-15.13-4h0v0l0,0ZM171,168.94s0,.05,0,.07h0a.23.23,0,0,1-.06-.16.15.15,0,0,1-.11,0c.08-.09.16-.17.23-.26h0a2.48,2.48,0,0,0,.26.4A.5.5,0,0,0,171,168.94Zm-57.46-2.69h0Zm-9.88,3.55h0ZM81.53,199.2h-.07s0,0,.06-.06A.17.17,0,0,0,81.53,199.2Zm21.56-3.29a.32.32,0,0,0,0-.09h.06Zm14-4.57.09.09a.48.48,0,0,0,.13.35,1.56,1.56,0,0,1-.16-.2.82.82,0,0,1-.11-.17A.18.18,0,0,1,117.12,191.34Zm4,4.87Zm10.09,4h0s0,0,0,0l0,0h0Zm2.56.63s0,0,0,0h0Zm4.78,1s0,0,0,0l-.12.07Zm9.68-2.3h0Zm65.13-.38h0l-.05,0h0l.06,0h0Zm4.63-5.43h0ZM188.3,180.26h0Zm-6.73-3h0l.15-.06s-.05.06-.12.09S181.58,177.31,181.57,177.3Zm-8.49-7.89Zm-1.42.15c-.06-.1-.11-.22-.17-.33a.54.54,0,0,0,.32.11Zm-18.82,1.33a.28.28,0,0,0,.12-.2.28.28,0,0,1,.35.08C153.13,170.69,153,170.85,152.84,170.89Zm-.12-1.09h0l-.16.15h0A.26.26,0,0,0,152.72,169.8Zm-6.15,5.44,0,0,0,0Zm-6.23,2.43.07-.09a.87.87,0,0,1,0,.1ZM98.7,173.34h0a.34.34,0,0,0,0-.18A1.11,1.11,0,0,0,98.7,173.34Zm-19.88,7.8a2.38,2.38,0,0,1-.46,0C78.49,181,78.66,181.09,78.82,181.14ZM78,184.63a.92.92,0,0,1-.21.73h0a.31.31,0,0,0-.16.16c-.39-.3-.3-.83-.51-1.22h0l0,0C77.25,184.72,77.53,184.83,78,184.63Zm-1.18-3.94Zm0,9.43Zm2.79,8.67Zm24-2.95h0Zm36.13,5.54Zm8.64-1.77h0v0Zm1.35.28,0,.07a.69.69,0,0,0-.24-.18l.16-.08h0l.15,0A.43.43,0,0,0,149.74,199.89ZM172.5,198h0l0,0h0Zm3.89,4a.28.28,0,0,1,.07.09h-.1Zm3.81,4.25h0Zm1.76-2.58s0,0,0,.05l0,0Zm0,0Zm3.34.39h0Zm11.09-.78s-.1,0,0-.05l.1,0A.25.25,0,0,0,196.39,203.34Zm14.16-4.55,0-.08.07.08Zm7.71-2.34Zm2.38-7.14h0v0Zm-.31.84,0-.09a.12.12,0,0,0,.09,0,.38.38,0,0,0,0,.13l-.09-.05Zm-.28-8.93h0Zm-10.32-3.88h0a3,3,0,0,0-.49-.2.28.28,0,0,0,.1-.09h0l.41.17Zm-21.26,2.55h0Zm-15.38-10.48h0Zm-20.33,1.51a.58.58,0,0,0-.39.46h0C152.2,171,152.44,171,152.76,170.92Zm-52.63-.49a.85.85,0,0,0-.28.16c.05-.15.12-.29,0-.45h0l0,0a.76.76,0,0,0,.73-.15l-.13.25Zm-1.41,2.74ZM79,178.77a.63.63,0,0,0,.36.39l0,.3H79v0C79.09,179.22,79,179,79,178.77ZM77.2,184.2h0v0h0Zm5.52,16.42a2.26,2.26,0,0,0-.16.26,2.14,2.14,0,0,0-.13-.19A.34.34,0,0,0,82.72,200.62Zm11,1.52,0,0h0Zm17.78-9.27h0Zm19.93,8.5h0Zm9.13.52h-.05l-.23,0C140.32,201.81,140.47,201.86,140.59,201.89Zm6.52-.55,0,0H147Zm10.39-6.88v0ZM175.83,203a0,0,0,0,0,0,0s0,0,0,0h0Zm2.84,3.34.09.06a.5.5,0,0,1,.36.05,2.1,2.1,0,0,1-.61,0h0A.3.3,0,0,1,178.67,206.29Zm4.58-.15,0,0h.43a.6.6,0,0,0,0,.23.78.78,0,0,0-.4,0A.41.41,0,0,0,183.25,206.14Zm2-2,0,0h0Zm12.48-3.39h0Zm20.52-4.34s0,0,0,0,0,0,0,0h0Zm6.68-7.27v0h0Zm-10.36-12-.09,0,.1,0A.11.11,0,0,0,214.59,177.18Zm-29.21,1.54-.06-.05a.15.15,0,0,1,.1,0Zm-39.74-4.45v.21h0l-.36.21a.44.44,0,0,0-.17-.16A2.69,2.69,0,0,0,145.64,174.27Zm-9.88,1.27,0,0h0v.05Zm-13.45-11.17,0-.1v0c-.05.14,0,.21.15.2a.57.57,0,0,0,0,.13.49.49,0,0,0-.44-.07.37.37,0,0,1-.08.2h0l-.15,0,0,0a.31.31,0,0,0,0-.28A.55.55,0,0,0,122.31,164.37Zm-15,1.82,0,0h0v-.05Zm-6.66,2.65s0,0,0,0h0Zm-3.35,3.94a.2.2,0,0,0-.09-.14s0,0,0,0h.09a.78.78,0,0,0,.21-.09A.51.51,0,0,0,97.35,172.78Zm-.68.47a.69.69,0,0,0-.28.55s0,0,0,.06l0,0c-.08-.22-.05-.47-.18-.67A.88.88,0,0,0,96.67,173.25Zm-6.3,3.31-.08,0s0,0,.08-.05Zm-4.32-3.84-.15-.48a.62.62,0,0,0,.25-.34A1.09,1.09,0,0,1,86.05,172.72Zm14.62,26.87,0,0v0h0a.13.13,0,0,0,0-.06h.06Zm43.22.59h0Zm17.36-8.68Zm12.81,10.87Zm33-1v0h0Zm1.77.55h0l0,0h0v0Zm7.35.16Zm-1-3.1h0v0A0,0,0,0,1,215.11,199Zm4.67-1.91a2,2,0,0,0,.26.24C219.9,197.31,219.79,197.26,219.78,197.09Zm.12-.65a1.05,1.05,0,0,0-.2-.27.5.5,0,0,0,.51-.11h0a.82.82,0,0,0,.15.31A.73.73,0,0,0,219.9,196.44Zm6.85-6.58v0h0Zm-6.89-6.55-.21-.13a2.7,2.7,0,0,0,.41.08h0Zm-8.5-7.36Zm-22.29,2.53h0v0l0,0Zm-10.23-5.75h0Zm-.63-.75h0l-.19-.21a1.33,1.33,0,0,1-.2-.48,1.18,1.18,0,0,0,1,.55.14.14,0,0,0,0,.11C178.59,172,178.37,171.82,178.21,172Zm-3.38-.78v0h0Zm-25-1.39Zm-.14,1.42s0,0,0,0c.18.1.36,0,.53-.07l.15-.07c.23.11.42.24,0,.55-.78.06-1.2.82-1.91,1l-1.63,1.14h-.2a.24.24,0,0,0-.06.15l-.39.17-.34,0a1.25,1.25,0,0,0,.46-.58.25.25,0,0,0-.06-.15h0a.2.2,0,0,0,.23-.05l0-.06,1.88-1.09c.25,0,.39,0,.4-.23A1.87,1.87,0,0,0,149.66,171.23Zm-28.51-7.33c-.09.08-.29,0-.37.12l-.07,0a.52.52,0,0,0,.07-.22l0,0a1.45,1.45,0,0,0,.35.12Zm-.83.35s.05,0,.07,0a.43.43,0,0,1-.2.22l-.07-.06a1.08,1.08,0,0,0-.24-.12l0,0A.72.72,0,0,0,120.32,164.25Zm-1.93-.75a.27.27,0,0,0-.13.07,3.25,3.25,0,0,1-.65.38.71.71,0,0,0-.42.44.43.43,0,0,1,0,.05.48.48,0,0,0-.37-.09l-.29.11a.5.5,0,0,1-.47-.38c.44,0,.76-.28,1.15-.38v0a.59.59,0,0,0,.39.13.9.9,0,0,0,.28-.08C118,163.58,118.19,163.54,118.39,163.5Zm-8.21,1.69a1.77,1.77,0,0,1-1.39.24v-.07h.07c.2-.09.37-.19.31-.44C109.51,165,109.89,164.93,110.18,165.19Zm-4,1,.16-.06A.44.44,0,0,1,106.19,166.23ZM102,168.79l-.1.21c-.39.21-.59.7-1.08.76.2-.27.36-.55,0-.83a.57.57,0,0,0,.29,0C101.42,169.35,101.67,168.86,102,168.79Zm-7.21,5.35h0Zm-5.36,1.42h0l0,0a1.58,1.58,0,0,0,.22,1.06c-.06-.06-.12-.11-.17-.17l-.15-.23h0c.12-.24,0-.45-.11-.67A.29.29,0,0,0,89.38,175.56Zm-3.92-.81c0,1-.5,0-.72.13a.69.69,0,0,0,0-.35,1,1,0,0,1,.5.17A.19.19,0,0,0,85.46,174.75Zm-1.54,1.74a1,1,0,0,0,.24-.42s0,0,0,.06a.77.77,0,0,1,0,.26c0,.09-.12.15-.33.13h0A.08.08,0,0,0,83.92,176.49Zm-3.93-2c-.08.2-.17.41-.25.62l0,1h0a3.56,3.56,0,0,1-.21-1c0-.32-.07-.63-.1-.95a1.3,1.3,0,0,0-.09-.4,1,1,0,0,0,.41.15.34.34,0,0,0,.17-.09l.07.53h0a1.48,1.48,0,0,1,0,.21Zm.35-.77v0l0,0ZM79,177.11h0v0h0Zm-2,2.38Zm-2.92,11.44h0l0,0Zm.58.67h0l0,0,0,0s0,0,0,0Zm1.24,1c.1-.17.24-.32.35-.48.22.13.11.39.21.58-.07.21-.24.24-.44.22h0l.06-.09A.27.27,0,0,0,75.87,192.59Zm.71,2.52s0,.07,0,.1l0,.07a2.34,2.34,0,0,1,.07.45c0,.3-.1.52-.45.27l0-.09A2.3,2.3,0,0,1,76.58,195.11Zm4,6.85h0Zm4.18,1v0c-.24-.06-.5-.05-.75-.11C84.22,202.89,84.48,203,84.73,203Zm13.61-.58.09,0c.28,0,.56,0,.84.07h.2a.16.16,0,0,0,0,.09.19.19,0,0,0,0,.18l0,0h-.1a2.18,2.18,0,0,0-1.07.23c-.54.39-.66,0-.81-.39C97.79,202.5,98.14,202.81,98.34,202.39Zm2.74-1h0a1.94,1.94,0,0,0-1.06.35.18.18,0,0,0-.14,0c-.15-.06-.44.11-.45-.2s.23-.37.46-.42l.57-.23,1-.35c.22-.22.52-.11.77-.2h0c.18.06.1.16,0,.26a1,1,0,0,0-.46.21C101.57,201,101.23,201.09,101.08,201.38Zm4.37-2.9-.06.06c-.28-.14-.11-.49-.18-.74l-.4.18-.58.25a.25.25,0,0,0-.21.26c-.13-.11-.57.14-.44-.29h0c.42.15.45-.19.56-.44l.09-.13.17,0a.51.51,0,0,0,.36-.39c.18.17.48.17.56.46.23.2.26.52.43.75C105.66,198.34,105.56,198.4,105.45,198.48Zm9.73-5.35,0,0h0l0-.06ZM122.4,199Zm1-.14v0h0Zm6.92,5.45s0,0,0,0h0Zm14.89-1.63a.74.74,0,0,0-.34-.1A.67.67,0,0,1,145.17,202.66Zm0,0h0Zm8.94-4.08,0,.06,0,0Zm4.13-3.24s0,0,0,.06a.5.5,0,0,0-.27-.2l.11-.13a.59.59,0,0,1,.11.08l.32-.11A.69.69,0,0,0,158.26,195.35Zm15.78,7s0,0,0,0H174Zm16.81,3.77a.2.2,0,0,0,0,.11h-.13A.3.3,0,0,1,190.85,206.12Zm14.4-5.15Zm6.92,1h0Zm4.62-.81a4.45,4.45,0,0,0-.66-.32l.78.27A.26.26,0,0,0,216.79,201.13Zm5.29-4H222a.06.06,0,0,0,0,0Zm1.15-6.4h0s0,0,0,0,0-.06,0-.1l.2.08A.66.66,0,0,0,223.23,190.7ZM227.5,189a.16.16,0,0,0,0,.09c-.37,0-.73-.08-1.1-.06a.29.29,0,0,0,0-.24.18.18,0,0,0,.14,0l.55.18a.29.29,0,0,0,.1.12A.33.33,0,0,0,227.5,189Zm-1.88-1.31a.38.38,0,0,0-.09.12.19.19,0,0,0-.12-.1A.37.37,0,0,1,225.62,187.65Zm-61.7-20.27a.51.51,0,0,1,.57.13.18.18,0,0,0-.06.09.8.8,0,0,0-.19-.13c-.22-.1-.52,0-.72-.14A.69.69,0,0,0,163.92,167.38Zm-2.61-1.11c-.26.38-.53.15-.8,0h0a.29.29,0,0,0,0-.16C160.81,166.12,161,166.3,161.31,166.27Zm-2.11,1.11a.79.79,0,0,1-.48,0A2.59,2.59,0,0,1,159.2,167.38Zm-9.59,3.4v0h0Zm-16.68-.34-.09.29a.77.77,0,0,0-.26-.28A.39.39,0,0,0,132.93,170.44Zm-2.79-2.31a1.6,1.6,0,0,0,.61.18l.1,0c0,.19.13.25.27.32s.54.23.83.29l.06,0a.19.19,0,0,0,0,.25.59.59,0,0,0-.13.18c0,.21,0,.44.23.48a.65.65,0,0,0,.08.35,1.76,1.76,0,0,0-.56-.33c0-.43-.43-.65-.65-1s-.4,0-.57.13v0a7,7,0,0,0-.41-.69,2.93,2.93,0,0,0-.57-.65l.05,0A3.31,3.31,0,0,0,130.14,168.13Zm-2.58-1.92a.1.1,0,0,0,0,0v-.06h0Zm-2.6-1.15a.69.69,0,0,0,.41-.15h0a.73.73,0,0,0,.24.34c.31.22.27.59.37.89a2,2,0,0,0,.4.64.21.21,0,0,0-.17,0,.48.48,0,0,0-.16-.08c-.16-.24-.35-.13-.54,0h-.18a.33.33,0,0,0-.17-.18.22.22,0,0,0,0-.14.52.52,0,0,0-.11-.1,1.51,1.51,0,0,0,.11-.22l-.6-.43h0l-.2-.2h0s0-.05,0-.08l.07-.08a.63.63,0,0,0,0-.27h0l.09,0A1.27,1.27,0,0,0,125,165.06ZM121,162.88h0v0Zm-2.59-.24v0h0Zm-4.73.45s0,0,0,0c-.1.18.62,0,.19.31C113.83,163.33,113.4,163.38,113.69,163.09Zm-1.75,1v0a.6.6,0,0,0,.08.08c.14,0,.27.11.4.16a.66.66,0,0,0-.55.15s0,0,0,0,0-.09-.09-.08-.09,0-.09.05l-.48,0,0-.05-.08,0A1.73,1.73,0,0,1,111.94,164.08Zm-2.46-.11a0,0,0,0,1,0,0l-.1,0a.24.24,0,0,0,0,.22h0a.17.17,0,0,0-.17,0,.23.23,0,0,0-.12-.1A4.17,4.17,0,0,1,109.48,164ZM95,172.73s0,0,0,0h0Zm-7,2.77a1.66,1.66,0,0,1-.26-.7.67.67,0,0,0,.17-.2A1.83,1.83,0,0,1,88,175.5Zm-2.86-3.34c.14.49.39,1,.11,1.45a.53.53,0,0,0-.09-.31s0,0,0,0a1.56,1.56,0,0,0-.06-1.15S85.07,172.15,85.09,172.16Zm-6.19,1.32.31-.35a.55.55,0,0,0,0,.46.46.46,0,0,0-.34,0c0,.07-.08.08-.13,0A.27.27,0,0,0,78.9,173.48Zm-1.55,3.1s0,0,0,.08c.07.21,0,.42.05.63a.16.16,0,0,0-.15,0v0l-.09-.5A.32.32,0,0,0,77.35,176.58Zm-3.74,4.75s0-.08,0-.12h0a.81.81,0,0,0,.34.45l-.16.17c-.29,0-.4-.27-.62-.37A1,1,0,0,0,73.61,181.33Zm-3.93,2.5a.13.13,0,0,1,.11-.05Zm1.58,4-.23-.3a2,2,0,0,0-.62-1h0a1,1,0,0,0,.19-.75.23.23,0,0,0-.07-.1h.13s.07-.06.07-.1a1,1,0,0,0,.32.18.3.3,0,0,0-.05.28l.12.09c-.07,0-.1.06-.06.13l0,.22.42.36a.49.49,0,0,0,0,.54A.39.39,0,0,0,71.26,187.88Zm6.38,13a.67.67,0,0,0-.39-.06h0a.43.43,0,0,0-.06-.22c.22,0,.36-.12.4-.4,0,0,0-.07,0-.11a.82.82,0,0,0,.64-.7h0c.07-.07.13-.15.19-.22s.36.2.27.32c-.33.46,0,.54.32.66h0c.11.19.26.36.21.6a.75.75,0,0,1-.09-.15c-.42-.33-.84-.7-1.37-.19-.13.37.17.56.35.82C77.9,201.15,77.8,201,77.64,200.9Zm5,3.95h-.22c-.17-.2-.43-.32-.53-.58a.39.39,0,0,0-.32-.19l0,0-.56-.4c0-.31.33-.24.52-.32.08.45.42.57.79.66l0,0,.19.33a.1.1,0,0,0,.11.06s.06,0,.06,0l1.82-.07h0l.09.26a.34.34,0,0,0,0,.22.71.71,0,0,0-.14.1.15.15,0,0,0,0,.09l-.06,0A7.79,7.79,0,0,0,82.64,204.85Zm7.57,1.06V206h-.06S90.2,205.93,90.21,205.91Zm3.57-1a.69.69,0,0,1,.25,0Zm.79-.54v-.14A.12.12,0,0,1,94.57,204.37Zm1-.84a1.26,1.26,0,0,0,.61,0s0,0,0,0h0l-.19.28C95.88,203.68,95.44,204,95.56,203.53Zm1.59.65,0-.05,0,0S97.15,204.17,97.15,204.18Zm1.24-.35a1.24,1.24,0,0,0-.85-.12c-.2,0-.39.11-.45.33h0a3.5,3.5,0,0,0-.54-.29h0v0a1.23,1.23,0,0,1,.77-.17l1.16,0a.18.18,0,0,0,.07.05A.64.64,0,0,0,98.39,203.83Zm29.79-.24h0l-.05,0a1.44,1.44,0,0,0,0-.46l.54,0,.24,0c.44.2.9,0,1.34.07v-.1h.08l-.07.09-.25.52-.19.05a.56.56,0,0,1-.15-.1A4.39,4.39,0,0,0,128.18,203.59Zm12,1.13a1,1,0,0,0-.73-.31c-.2,0-.39.05-.59.08a.62.62,0,0,0-.36,0,1.87,1.87,0,0,1-.41,0,1.32,1.32,0,0,0-.81.07c-.06,0-.07.07-.1.11a.1.1,0,0,0-.11,0,.56.56,0,0,0-.1-.45,1.11,1.11,0,0,0,.91,0c.71-.26,1.48-.28,2.2-.52.05,0,.06-.09.09-.14a.69.69,0,0,0,.32.31l-.1.09a.32.32,0,0,0,.18.2l.15,0h0a.33.33,0,0,0,0,.17A.52.52,0,0,0,140.14,204.72Zm4.12-2a.52.52,0,0,0-.55,0l0,0a.33.33,0,0,0-.45.18.52.52,0,0,0,.19.41,1,1,0,0,0-.24,0,.58.58,0,0,0,0-.23c-.05-.15-.09-.3-.15-.44a5.77,5.77,0,0,1,.72,0,1.33,1.33,0,0,0,.4,0,2.44,2.44,0,0,0,.26-.06h0a.65.65,0,0,0,.31.08,1,1,0,0,0-.37.07A.21.21,0,0,0,144.26,202.68Zm5.92-1.11a.06.06,0,0,1,0,0s0,0,0,0Zm6.06-5.11a.53.53,0,0,0-.19.32h0c-.19-.08-.36,0-.54.08h0l0-.11c.19-.32.53-.36.84-.44l.38-.31a.34.34,0,0,0,.06.12Zm17.23,5.91c.12,0,.25.11.4.09v.13A4,4,0,0,0,173.47,202.37Zm.79,2.19h0s0-.06,0-.09h0a.67.67,0,0,0,.19.24A1.82,1.82,0,0,0,174.26,204.56Zm1.31.17a.45.45,0,0,0,.11-.17,1.09,1.09,0,0,0,.75.12l.1-.08.85.31v0l.11,0,.28.28c-.14.09-.27.21-.41.3l-.09.06a4.2,4.2,0,0,0-1.22-.55Zm9.81,2.85a.46.46,0,0,0-.07.1.34.34,0,0,0-.33-.25,1.75,1.75,0,0,0,.92-.48.48.48,0,0,0,.07-.2,6.41,6.41,0,0,1,2.31-.06,2.09,2.09,0,0,0-.62.43.31.31,0,0,0,0,.19.66.66,0,0,0-.45.21l-.19-.05A2.63,2.63,0,0,0,185.38,207.58Zm2.39.09s0-.06,0-.09a.81.81,0,0,0,.12.14Zm19.48-4.94h0l0,0Zm10.83-1.33h0l-.06,0h0Zm-.27-.09a4.69,4.69,0,0,0-.61-.18.73.73,0,0,0,.24-.07.67.67,0,0,0,.06-.12A.5.5,0,0,0,217.81,201.31ZM221,199l0,0a.3.3,0,0,0,.11.19,4.37,4.37,0,0,1-.49-.23Zm-1.2-5.21c0,.12.18.16.28.21s.15.13.12.22a.91.91,0,0,0-.8-.38C219.55,193.84,219.68,193.84,219.81,193.81Z" transform="translate(148.46 25.17)"/></svg>