<svg id="Mode_Isolation" data-name="Mode Isolation" xmlns="http://www.w3.org/2000/svg" xmlns:xlink="http://www.w3.org/1999/xlink" viewBox="0 0 132.94 34.99"><defs><style>.cls-1{fill:url(#linear-gradient);}.cls-2{fill:url(#linear-gradient-2);}.cls-3{fill:url(#linear-gradient-3);}.cls-4{fill:url(#linear-gradient-4);}.cls-5{fill:url(#linear-gradient-5);}.cls-6{fill:url(#linear-gradient-6);}.cls-7{fill:url(#linear-gradient-7);}.cls-8{fill:url(#linear-gradient-8);}.cls-9{fill:url(#linear-gradient-9);}.cls-10{fill:url(#linear-gradient-10);}.cls-11{fill:url(#linear-gradient-11);}.cls-12{fill:url(#linear-gradient-12);}.cls-13{fill:url(#linear-gradient-13);}.cls-14{fill:url(#linear-gradient-14);}.cls-15{fill:url(#linear-gradient-15);}.cls-16{fill:url(#linear-gradient-16);}.cls-17{fill:url(#linear-gradient-17);}.cls-18{fill:url(#linear-gradient-18);}.cls-19{fill:url(#linear-gradient-19);}.cls-20{fill:url(#linear-gradient-20);}.cls-21{fill:url(#linear-gradient-21);}.cls-22{fill:url(#linear-gradient-22);}.cls-23{fill:url(#linear-gradient-23);}.cls-24{fill:url(#linear-gradient-24);}.cls-25{fill:url(#linear-gradient-25);}.cls-26{fill:url(#linear-gradient-26);}.cls-27{fill:url(#linear-gradient-27);}.cls-28{fill:url(#linear-gradient-28);}.cls-29{fill:url(#linear-gradient-29);}.cls-30{fill:url(#linear-gradient-30);}</style><linearGradient id="linear-gradient" x1="2.95" y1="7.74" x2="4.66" y2="7.74" gradientUnits="userSpaceOnUse"><stop offset="0.33" stop-color="#8bc7ce"/><stop offset="0.54" stop-color="#e3a4c9"/></linearGradient><linearGradient id="linear-gradient-2" x1="1.34" y1="23.81" x2="2.65" y2="23.81" xlink:href="#linear-gradient"/><linearGradient id="linear-gradient-3" x1="0.45" y1="17.49" x2="132.94" y2="17.49" xlink:href="#linear-gradient"/><linearGradient id="linear-gradient-4" x1="11.41" y1="6.16" x2="12.37" y2="6.16" xlink:href="#linear-gradient"/><linearGradient id="linear-gradient-5" x1="115.27" y1="31.42" x2="115.28" y2="31.42" xlink:href="#linear-gradient"/><linearGradient id="linear-gradient-6" x1="1.61" y1="11.18" x2="2.13" y2="11.18" xlink:href="#linear-gradient"/><linearGradient id="linear-gradient-7" x1="17.97" y1="7.97" x2="18.53" y2="7.97" xlink:href="#linear-gradient"/><linearGradient id="linear-gradient-8" x1="7.54" y1="31.55" x2="7.55" y2="31.55" xlink:href="#linear-gradient"/><linearGradient id="linear-gradient-9" x1="10.55" y1="6.93" x2="11.16" y2="6.93" xlink:href="#linear-gradient"/><linearGradient id="linear-gradient-10" x1="4.45" y1="8.69" x2="5.7" y2="8.69" xlink:href="#linear-gradient"/><linearGradient id="linear-gradient-11" x1="0" y1="12.96" x2="0.74" y2="12.96" xlink:href="#linear-gradient"/><linearGradient id="linear-gradient-12" x1="4.91" y1="6.99" x2="5.54" y2="6.99" xlink:href="#linear-gradient"/><linearGradient id="linear-gradient-13" x1="9.56" y1="6.43" x2="10.17" y2="6.43" xlink:href="#linear-gradient"/><linearGradient id="linear-gradient-14" x1="0.14" y1="15.04" x2="1.84" y2="15.04" xlink:href="#linear-gradient"/><linearGradient id="linear-gradient-15" x1="17.3" y1="9.53" x2="17.79" y2="9.53" xlink:href="#linear-gradient"/><linearGradient id="linear-gradient-16" x1="121.53" y1="21.34" x2="122.48" y2="21.34" xlink:href="#linear-gradient"/><linearGradient id="linear-gradient-17" x1="78.47" y1="30.13" x2="79.23" y2="30.13" xlink:href="#linear-gradient"/><linearGradient id="linear-gradient-18" x1="2.25" y1="26.16" x2="3.05" y2="26.16" xlink:href="#linear-gradient"/><linearGradient id="linear-gradient-19" x1="104.27" y1="7.61" x2="105" y2="7.61" xlink:href="#linear-gradient"/><linearGradient id="linear-gradient-20" x1="121.62" y1="27.69" x2="122.38" y2="27.69" xlink:href="#linear-gradient"/><linearGradient id="linear-gradient-21" x1="1.07" y1="21.76" x2="1.41" y2="21.76" xlink:href="#linear-gradient"/><linearGradient id="linear-gradient-22" x1="11.06" y1="8.56" x2="11.35" y2="8.56" xlink:href="#linear-gradient"/><linearGradient id="linear-gradient-23" x1="41.03" y1="29.54" x2="41.57" y2="29.54" xlink:href="#linear-gradient"/><linearGradient id="linear-gradient-24" x1="14.99" y1="8.02" x2="16.7" y2="8.02" xlink:href="#linear-gradient"/><linearGradient id="linear-gradient-25" x1="118.71" y1="11.54" x2="119.18" y2="11.54" xlink:href="#linear-gradient"/><linearGradient id="linear-gradient-26" x1="1.96" y1="12.58" x2="2.28" y2="12.58" xlink:href="#linear-gradient"/><linearGradient id="linear-gradient-27" x1="4.01" y1="27.28" x2="4.4" y2="27.28" xlink:href="#linear-gradient"/><linearGradient id="linear-gradient-28" x1="2.34" y1="23.18" x2="3.05" y2="23.18" xlink:href="#linear-gradient"/><linearGradient id="linear-gradient-29" x1="47.87" y1="26.5" x2="47.87" y2="26.5" xlink:href="#linear-gradient"/><linearGradient id="linear-gradient-30" x1="22.71" y1="27.61" x2="22.72" y2="27.61" xlink:href="#linear-gradient"/></defs><title>logo-sign</title><g id="logo-sign"><path class="cls-1" d="M3.17,8.72a.7.7,0,0,0,.25.66s0,.09,0,.14a.69.69,0,0,0,.13.62l.2-.08a.57.57,0,0,0,.14,0,.32.32,0,0,0,.2-.14s0-.06,0-.09l.21-.18c.16-.44-.05-.6-.45-.64h0a2,2,0,0,1,0-.24l0,0c.28-.41,0-.78-.1-1.16l0,0a.42.42,0,0,1,.38,0c.1,0,.22.3.33,0a.91.91,0,0,0,0-.51c-.06-.19-.21-.12-.35,0S4,7.05,3.94,7v0c0-.32.26-.3.46-.36.07-.28.25-.56,0-.85s-.33,0-.37.22c-.19-.12,0-.76-.55-.54-.88.15-.25.85-.45,1.25s.05.64-.1.94A1.57,1.57,0,0,1,3.17,8.72Z"/><path class="cls-2" d="M2.59,25.24a3.58,3.58,0,0,0-.23-1.83,2.28,2.28,0,0,1-.08-.74.71.71,0,0,0-.16-.28c-.46-.45-.46.05-.59.28l-.17.18a2,2,0,0,0,0,.54c.41.19.37.49.22.83.22.37.09.84.36,1.19C2.05,25,2.42,25.48,2.59,25.24Z"/><path class="cls-3" d="M132.65,23c-.12-.05-.27,0-.38-.1a2,2,0,0,1-1.13-.12l-.14,0c-.23-.21-.53-.09-.79-.13l-.84-.29-.64-.16-1-.25a.49.49,0,0,0-.49-.14l-.48-.17a.3.3,0,0,1,.49-.25c.44.45.44-.13.65-.2-.15-.21-.35-.4,0-.63s.5.28.81.28l.33.13.49,0a2.07,2.07,0,0,0,1.13,0c0-.37-.38-.26-.52-.44a.78.78,0,0,0,0-.16.33.33,0,0,0,.33-.33l-.18-.14c.5-.43,1.13-.29,1.72-.35a.1.1,0,0,0,.05-.14h0a.12.12,0,0,0,.2,0,.24.24,0,0,0,0-.31c-.41-.26-.88,0-1.31-.12l-.47-.18c-.12-.41-.29-.63-.64-.71l.2,0c.18.16.53.13.58.44.28-.23.41.32.68.11-.32-.81-.32-.81-1-.86s-1.25-.55-2-.39c-.25-.28-.63-.23-1-.35l-.16-.18a.64.64,0,0,0,.06-.18l.06.06c.27.17.6,0,.89.15.28-.33.42,0,.6.12s.62.25,1,.1c.5.48,1.17.4,1.79.5a1.68,1.68,0,0,0,1.12.17s.13-.12,0-.17a2.66,2.66,0,0,0-1.18-.28c-.59-.09-1.15-.43-1.78-.23h0l-.15-.23-.61-.15c-.57-.09-1-.78-1.72-.23l.07-.18.16-.42c.4-.14.74.22,1.13.12s0-.22,0-.33a3.61,3.61,0,0,0-1.13-.14l-.32-.15a.64.64,0,0,0-.55-.1l0,0a.23.23,0,0,0-.2,0c-.34-.53-.73-.37-1.13-.05l0,.05a.84.84,0,0,0-.75-.37.21.21,0,0,0,.18-.17.25.25,0,0,0-.08-.25l.23.07c1.12.27,2.17.72,3.3,1,.18,0,.36.12.54,0h.47c.06.13.18.15.31.18a.57.57,0,0,0,.52.08l.48,0,.15,0,.17.15c.21,0,.47,0,.64-.17a.4.4,0,0,0-.13-.32c-.43-.35-1,0-1.48-.29l-.17,0A23.14,23.14,0,0,1,127,14.4a.57.57,0,0,1,.11-.11l.07.06a2.92,2.92,0,0,0,1.05.28,2.08,2.08,0,0,0,.3-.13c.46.06.84.47,1.34.3-.31-.33-.57-.74-1.14-.66l-1.08-.25a1.18,1.18,0,0,0-.36-.61l.1,0a2.75,2.75,0,0,0,.47.13H128l.11.05h.48a5.17,5.17,0,0,0,1.29.25c.24.1.44-.08.67-.09s.2-.07.16-.21l-.06,0a7.17,7.17,0,0,0-1.9-.29,10.55,10.55,0,0,0-2.27-.73c-.12-.09-.24-.18-.37-.26.13-.17,0-.26-.26-.33-.41-.12-.63-.36-.55-.79l0-.09.11,0s0,.07,0,.11a.27.27,0,0,0,.14.14,1,1,0,0,0,.59.05c.52-.41.49-.51-.32-.93-.2-.14-.47,0-.67-.13s-.33-.13-.51-.15c-.57.05-1.06-.33-1.63-.25a2,2,0,0,0-1-.41,7.55,7.55,0,0,0-3-.69.8.8,0,0,1-.51-.19,2.8,2.8,0,0,0-2.2-.45,6.28,6.28,0,0,0-1.78-.2l-1.73-.16c-.26,0-.48.23-.77.18l-.88.17-.34,0a2.7,2.7,0,0,0-1.77-.28l-.49,0c-.18-.25-.42-.11-.65-.11l-1.39.33c-.34.23-.68,0-1,0l-.32.08c-.16-.09-.26,0-.36.1s-.43.07-.61.18c-.66.18-1.41.07-1.94.61-.24.32-.78,0-1,.41l0,.09-.27.22h0a.54.54,0,0,0-.22,0l-.09,0h0a.32.32,0,0,0,0-.38c-.16-.06-.29-.32-.47-.12-.4.42-1,.53-1.44.87a1.29,1.29,0,0,0-.78.47c-.32,0-.44.24-.63.4-.51.4-1,.52-1.49-.05l-.48-.48-.16-.14L93.07,8.31a1.9,1.9,0,0,0-.66-.6,10.73,10.73,0,0,0-1.65-1.34l-.15-.16a.5.5,0,0,0-.5-.29l-.48-.45c-.06-.16-.23-.12-.35-.17s-.46,0-.65-.1l-.17-.14a.37.37,0,0,0-.33-.28c-.68.29-.92-.3-1.3-.6a.8.8,0,0,0-.35-.44l-.09-.08c0-.13,0-.26,0-.39a.08.08,0,0,1-.08,0l-.16.24,0,0a.84.84,0,0,0-.46-.15c0-.52-.39-.24-.65-.21a.32.32,0,0,0,0-.31h0a.78.78,0,0,0-.93-.49.61.61,0,0,1-.51-.09A.67.67,0,0,0,82.91,2c-.31.2-.62,0-.93,0s-.38-.09-.58-.05l-.11-.1L80.82,2c-.23-.25-.55-.07-.82-.16a1.74,1.74,0,0,0-1,0,1,1,0,0,1-1,.34c-.25.17-.59.09-.84.27v0a.69.69,0,0,0-.18-.16l-.06,0,.06-.22-.29-.13-.32-.14h-1l-.2.28-.1,0a.24.24,0,0,0,0-.08c-.29-.33-.67-.09-1-.15L74.05,2S74,2,74,2c-.34,0-.56.44-.95.25l-1.73.48a1.26,1.26,0,0,0-.36.47l-.43.17-1-.15c-.19.27.34.65-.1.87.06-.25.16-.51-.25-.58l-.45.19c-.15.13-.36.15-.51.27l-1.12.54a4.07,4.07,0,0,0-1.26.77,2,2,0,0,0-1,.61c-.13,0-.28,0-.31.16L64,6.42a10.55,10.55,0,0,0-1.78,1.25,5.62,5.62,0,0,0-1.87,1.11,2,2,0,0,0-1.17.77l-.3,0c-.22.13-.52.17-.64.44a4.67,4.67,0,0,0-.66.23c-1,.49-1.07.47-1.59-.5h0a9.32,9.32,0,0,1-1.25-1.49c0-.21-.18-.21-.28-.3s-.1-.37-.31-.45a.45.45,0,0,0-.32-.46l-.33-.3c.08-.43-.34-.6-.52-.88l-.48-.48A.51.51,0,0,0,52.12,5a1,1,0,0,0-.07-.15c-.06-.41-.58-.31-.74-.6-.33-.43-.92-.44-1.32-.76a.37.37,0,0,0-.29,0s0,0,0,.05a.19.19,0,0,0-.13,0c0-.12,0-.19-.19-.16l-.32,0a3.92,3.92,0,0,0-1-1.08c-.14-.06-.06-.31-.29-.29l-.56,0c-.28-.11-.43-.58-.81-.4,0-.55-.51-.75-.81-1.09s-.85.12-1.13-.29a1.26,1.26,0,0,0-1.12,0c-.26.15-.59-.17-.82.12a2.32,2.32,0,0,0-1.45,0c-.18-.2-.44,0-.65-.14L40,.31l-.18.15a2.45,2.45,0,0,0-1,.21c-.05-.25-.24-.33-.47-.36C38.2.12,38.09,0,37.82,0l-.45,0a1.51,1.51,0,0,0-.29.13c-.29-.13-.63,0-.92-.11a.77.77,0,0,0-.59.24.13.13,0,0,0,0,.15,1.19,1.19,0,0,1-.81,0,2.2,2.2,0,0,0-1.58.4.31.31,0,0,1-.43.16.42.42,0,0,0-.58.3s0,0,0,0l-.44.25h0c-.47.09-.93.48-1.42.08-.13.31-.43.42-.7.56a.58.58,0,0,0-.28-.09,4.08,4.08,0,0,0-1.92,1.24c-.47.32-1.07.46-1.4,1l-.5.34-1,.75a5.7,5.7,0,0,0-1.57,1.4c-.1,0-.16.06-.14.16-.37.42-1,.56-1.26,1.1l-.21.13a3,3,0,0,0-.16.31h0l-.28.19-.2,0c-.2,0-.23.1-.28.23.11.47-.59.31-.61.69l-.47-.35c0,.49,0,1-.69,1.16a.3.3,0,0,0-.06.3h-.09c-.17-.1-.13-.29-.19-.44-.5.23-.4-.34-.65-.44h0a.39.39,0,0,0-.45,0,.88.88,0,0,0-.22.25s0,.09-.05.13l-.14.05a.23.23,0,0,0-.11-.25l-1.11-.31H15.3l0-.09a.48.48,0,0,1,.1-.43l0-.06.16.13a.45.45,0,0,0,0-.55l.06-.18a1.25,1.25,0,0,0-.25-.93,3,3,0,0,1-.06-1.31.93.93,0,0,0-.23-.68c-.05-.21-.07-.43-.37-.46a.56.56,0,0,0-.19.22.38.38,0,0,0-.07-.21,3.21,3.21,0,0,1-.24-1.78c0-.77-.71-.1-1-.42,0,0,0,.23,0,.35.32.34,0,.58-.15.85a2.71,2.71,0,0,1,0,.29c0,.59.06,1.18.13,1.77a.61.61,0,0,1-.11.49c-.17.34.1.68,0,1a1.14,1.14,0,0,0,.07.41,1.13,1.13,0,0,0-.21-.24A.9.9,0,0,0,12.67,9l.05,0c-.3.22-.77,0-1,.33,0,.17,0,.34.17.44a.56.56,0,0,1,.06.63.54.54,0,0,1-.07.13L12,11a.45.45,0,0,0,.09.47h0a.5.5,0,0,1,0,.13h-.1l-.07-.06c-.33-.15-.62.21-.95.08a.6.6,0,0,1,.15-.62c.21-.38-.33-.5-.35-.8.18,0,.4.15.51-.12A3.9,3.9,0,0,1,11,8.92L11,8.87h0c0-.24.05-.49-.08-.71l0-.07V8c-.84,0-.55.5-.47.91-.24.38-.06.82-.16,1.21l0,.06c0,.24.14.42.16.64s.25.54-.16.69h0c-.31-.39,0-.93-.34-1.33h0a.46.46,0,0,0,0-.49l-.17-.14a.21.21,0,0,0,.1-.09,3.1,3.1,0,0,0,0-1.76L9.7,7.55c-.27-.47.17-1.08-.34-1.5l-.2-.27c-.77-.32-.46.29-.53.56a.63.63,0,0,1,.18.12.11.11,0,0,1-.1.07c-.05,0-.09.11-.14.17l0,.28c.09.28-.09.61.14.87A.52.52,0,0,0,8.63,8a.36.36,0,0,0,.11.35c-.35-.06-.56-.22-.48-.62a.48.48,0,0,0-.19-.54c0-.22,0-.46-.16-.64s0-.52-.17-.74c-.4-.26-.29.08-.29.24,0,1,0,2,0,2.92a3,3,0,0,1,0,1.36,1.45,1.45,0,0,0-.32-.39A2.91,2.91,0,0,0,7,8.55a.84.84,0,0,0,0-.77H7a.14.14,0,0,0-.13,0h0a1.63,1.63,0,0,0-.06-1,.21.21,0,0,1-.07-.13c-.23-.44,0-1-.27-1.39-.41,0-.41,0-.39.74,0,.21,0,.43.08.63l-.06.09c0,.23,0,.47.07.68a1.3,1.3,0,0,1,0,.73c0,.07,0,.16.14.19h0l-.07.08c0,.16,0,.35.18.44l0,0h0a.22.22,0,0,0-.27.07c0,.14,0,.28,0,.42,0,.31,0,.64.29.87s-.18.27-.1.45.17.51.23.77c-.06,0-.17,0-.38.13s0,.37,0,.55a.75.75,0,0,0,.07.12l0,.06h0a.39.39,0,0,0-.21-.08c.09-.33-.13-.62-.13-.94A.58.58,0,0,0,5.9,11a.71.71,0,0,0,.17.11c.41-.13.14-.41.16-.62s-.07-.26-.1-.39c-.31,0-.23.25-.27.42a.41.41,0,0,0-.06.31,1.07,1.07,0,0,0-.18-.19l0,0a.09.09,0,0,0,0-.1c-.09-.16,0-.49-.24-.49s-.15.32-.26.48l.3.93h0c0,.1,0,.19,0,.29H5.14a1,1,0,0,1-.23-.58l-.45.12h0c-.18-.14-.09-.48-.38-.53s-.25.17-.27.32c-.06.39,0,.71.49.82.15.06.46.17.12.28s-.43.35-.41.65L4,13a3.46,3.46,0,0,0,0,.79,1.3,1.3,0,0,0,.22.42.45.45,0,0,1-.33-.48s-.06,0-.08-.06h0c.11-.72-.49-.25-.74-.38l0-.05a.32.32,0,0,0-.06-.27.3.3,0,0,0,.13,0,.33.33,0,0,0,.2-.33,1.56,1.56,0,0,0,0-.65c-.15-.59-.42-.71-.89-.27l0,.26a1.35,1.35,0,0,0,.19.76l.05,0c-.22.06-.28.28-.41.43-.39-.17-.53,0-.52.35a1.07,1.07,0,0,1,.07,1c.23.25.07.78.62.8a0,0,0,0,0,0,0s0,0,0,0l-.09,0c-.15.1-.34.18-.21.37a.88.88,0,0,0-.05.15c-.17.23-.08.42.09.6s.68.11.9.36A.3.3,0,0,0,3.1,17s0,0,0,0l-.45-.1.15.41c0,.1,0,.2,0,.3.17.32.4.27.65.1l.06,0c.27.26.71.45.43,1-.21-.1-.34-.62-.67-.12,0,.09,0,.19,0,.28v.46c.18.14.12.48.46.49h0a.63.63,0,0,0,.52.09l.14.16a1.07,1.07,0,0,0-.26.26c-.2-.16-.36-.41-.7-.23,0,.12.09.41-.09.33s-.67-.4-.49-.66c.32-.46.08-.73-.15-1a.55.55,0,0,0,0-.18c-.39-.87-.53-1.81-.89-2.69-.2-.13-.31,0-.4.14l.15.55a.13.13,0,0,0,0-.05,1,1,0,0,0-.27-.17c-.69-.32-.93-.17-.89.54,0,.13,0,.25.09.36,0,.35-.08.73.19,1.05a.5.5,0,0,1,0,.12c.2.28.44.18.68,0l.1-.11c.32.12.16.36,0,.59l-.43,0s0-.05,0-.07-.22-.21-.35,0A7.93,7.93,0,0,0,1.27,21c.23.18.45-.06.67,0H2a1.78,1.78,0,0,0,0,.61,1.86,1.86,0,0,0,.87.21h0a2.23,2.23,0,0,0,1.46,1.42v.05l.18.29h0c-.24.31-.63.22-1,.31,0,.4.45,0,.5.29l.47.15.12.25a.05.05,0,0,0,0,0c0,.25.17.38.39.46h.19l.32.15c.25,0,.37.12.47.3-.07.48.23,1,0,1.44a.56.56,0,0,0-.59-.39l0,.07a0,0,0,0,0,0,0v0a.73.73,0,0,0-.16-.93c-.13.06-.45-.08-.35.24s-.06.53-.06.79a.19.19,0,0,0,.12,0c0,.05,0,.1,0,.15s0,0,0,0a.35.35,0,0,1-.14,0,.77.77,0,0,0,0,.63,9.52,9.52,0,0,0,.38,1.39,5.35,5.35,0,0,0-1.95-1.63c-.12,0-.21.1-.15.24a6,6,0,0,0,2.31,1.94.62.62,0,0,0,.5.28l.35.3c.22.2.25.56.63.62a.23.23,0,0,0,.06.12c.18.39.79.18.93.61a.28.28,0,0,0,0,.13c.28,0,.4.23.61.33l0,.25c.08.2.17.39.45.4h0a.44.44,0,0,0,.32.24.14.14,0,0,0,0,.07c.09.23.32.27.54.33a.59.59,0,0,0,.32,0s0,0,0-.06l.27.15a.26.26,0,0,0,0,.21.58.58,0,0,0-.29.06s0,0,0,0a.36.36,0,0,0-.47,0s0,.1,0,.16a.68.68,0,0,0,.54.11,9.34,9.34,0,0,0,2.28.53c.14.29.51-.09.65.2l1.59-.17.66.27a3.57,3.57,0,0,0,2.74.11c.14,0,.19-.38.31-.21.45.65.84.27,1.26,0-.25-.29-.68.06-.93-.23a.44.44,0,0,0-.63,0l0,0c-.16-.23,0-.48,0-.72h.37a1.94,1.94,0,0,0,.59,0l.22,0a.85.85,0,0,1,.39-.07c.22.14.39.39.66.43h.13l-.06.05,0,.09c.13.85.54,0,.79.12l.33-.3.57-.18a2.59,2.59,0,0,0,.61-.21.26.26,0,0,0,.26.1l.65,0a.29.29,0,0,0,.07-.12.44.44,0,0,0,.55-.23l.16-.15c.17,0,.33.24.5,0,.56-.07,1.2,0,1.28-.79l.31-.19a1.22,1.22,0,0,0,1.72-.63c.13,0,.29,0,.37-.14a.37.37,0,0,0,.14,0,.43.43,0,0,0,.17-.36.49.49,0,0,0,.33-.21c.55.05.78-.37,1.11-.65l.47-.33c.18-.44.89-.37,1-.91.37-.05.47-.36.64-.6.5,0,.67-.39.94-.67a4.43,4.43,0,0,0,1.28-1.07l.16-.14a1.09,1.09,0,0,0,.64-.49l.15-.16A16.87,16.87,0,0,1,37.51,24a9.23,9.23,0,0,0,1.64,1.48c.3.28.49.69,1,.73.21.18.55.19.68.47.08.72.82,1,1.18,1.55a1.57,1.57,0,0,0,1.12.86c.16-.2.07-.4,0-.59a4.12,4.12,0,0,1,.69.56c0,.18.15.27.29.37l.49.22c.12.29.55.16.67.45.25.12.5.29.77,0h0a2,2,0,0,1,.19-.22v0c.44-.11.74.21,1.12.29h0s0,0,0,0c.08.25.28.27.5.25a1.57,1.57,0,0,0-.09.43s0,0,0,0c-.19-.25-.53-.24-.77-.4,0,0,0-.05,0-.07a.46.46,0,0,0-.48-.2.68.68,0,0,0-.39.21.94.94,0,0,0-.06.15.13.13,0,0,0-.18-.05.7.7,0,0,0-.35-.23c-.18-.06-.37.06-.54,0s-.3-.05-.34.14c.47,0,.66.62,1.18.56l.13,0a3.49,3.49,0,0,0,1.2.68,1.24,1.24,0,0,0,.94.16.83.83,0,0,0,.83.45c.4-.19.71.26,1.1.15a1.64,1.64,0,0,0,1.16.27c0,.12.1.12.17,0l.66-.06c.35.27.79-.15,1.13.14a.29.29,0,0,0,.41,0,3.11,3.11,0,0,1,.59.26l.59,0c.12.19.31.13.49.11a.26.26,0,0,0,.07-.33l.08,0a.54.54,0,0,0,.35.36v0c.17.1.33.12.46-.06,0,0,0-.07,0-.11h.46c.47.44.85-.32,1.31-.08a2,2,0,0,0,1.75-.43c.22.15.41-.1.62,0a1.53,1.53,0,0,0,.83-.28l.36-.33a.47.47,0,0,0,.45-.31,2.51,2.51,0,0,0,1.12-.2v.05a.36.36,0,0,0,.23,0h0a1.32,1.32,0,0,0,.71,0l.15-.19.43,0c.12-.06.28,0,.39-.13.09.08.14.28.31.08s.11-.27.17-.4l.16,0a2.7,2.7,0,0,0,1.88-.63c.07-.15.21-.15.35-.15.4-.35,1.15-.25,1.32-.9l0-.07h0c0,.05,0,.1.08.13a.61.61,0,0,0,.57-.1l.31-.18a1,1,0,0,0,.81-.45.8.8,0,0,0,.63-.21,1.61,1.61,0,0,0,1-.74c.4-.31,1-.36,1.29-.79.51-.67,1.36-.84,2-1.27a.15.15,0,0,0,.1-.17c.19-.1.37-.2.57-.29s.5-.34.83-.17c.54.23.83.75,1.31,1,0,.47.55.49.8.77a9.31,9.31,0,0,0,2.14,2c0,.21.14.28.34.29,0-.08,0-.17,0-.25a.27.27,0,0,0,.09,0,.19.19,0,0,0,.09-.11,1.57,1.57,0,0,1,.7.45l.44.31.16.15c.22,0,.26.36.59.16s.19.16.25.29l.36.35c-.53-.08-.52,0-.33.54a5.56,5.56,0,0,0,1.26.95c.43-.06.23-.28.13-.47l0,0,.23,0a1.49,1.49,0,0,1,.75.19l.09.25c-.17.34-.62,0-.82.32a.78.78,0,0,0,.63.17c0,.48.55.49.81.76.16.08.3.07.39-.1a.63.63,0,0,0-.27-.48l-.23-.18a.55.55,0,0,0,.26.06h0a.14.14,0,0,1,0,.07l.33,0c.2,0,.21.33.46.33a.5.5,0,0,1,0,.13h.26a.52.52,0,0,0-.17.16.82.82,0,0,0-.31-.11c-.15,0-.32,0-.27.25a3.36,3.36,0,0,0,1.93.74h0A.46.46,0,0,0,90,34a9.8,9.8,0,0,0,3.1.37h.31l.5,0,.47,0a2.79,2.79,0,0,0,1.79.41A.94.94,0,0,0,97,35c.34-.24.79.09,1.12-.18l.33-.3h.31a.54.54,0,0,0,.5-.29l0,0,.82-.44a.19.19,0,0,1,.13,0l0-.12h0a.37.37,0,0,0,.16.05,4.9,4.9,0,0,0,1.27-.06.74.74,0,0,1,.65-.2c.24-.19.57,0,.81-.17a.86.86,0,0,1,.63-.33c.23,0,.48.08.65-.14.17,0,.38,0,.49-.17l1.42-.8c.49-.25,1.06-.35,1.41-.8a.17.17,0,0,1,.12,0,.57.57,0,0,0,.47-.4.15.15,0,0,0,.23-.1,1.61,1.61,0,0,1,1.29-.6c0,.05.07.07.11,0s.09-.14,0-.18-.2-.21-.29-.33c.16-.23.31,0,.46,0v0c.06.35.38.16.57.25l.74,0a.51.51,0,0,0,.51.24.44.44,0,0,0,.15.05,1.87,1.87,0,0,0,.84.25l.8.17,1.79.42s0,.08,0,.12c.3.25.69,0,1,.16a.09.09,0,0,1,.12,0c.32,0,.65.18,1,0h0c.34-.19.6.05.89.14l.26,0,.48,0,.33.14a4.49,4.49,0,0,0,1.46.27c.3-.17.66,0,1-.18.24-.37-.19-.31-.33-.43l-.17,0c-.25-.15-.57.16-.81-.1h-.17c-.25-.26-.58-.06-.86-.12a1.66,1.66,0,0,0-.92-.31c.07-.24.28-.16.45-.19a.24.24,0,0,0-.1-.3.33.33,0,0,0-.55-.05h0a.61.61,0,0,0-.26-.18,4.51,4.51,0,0,0-.53-.1h-.26a.36.36,0,0,0-.22-.07l-.44-.07a.47.47,0,0,0-.17,0c0-.28.18-.27.41-.21s.45.07.68.1a.35.35,0,0,1,0,.14l.82,0h0l.16.05c.31-.14.54.12.81.16a.27.27,0,0,1,.12,0c.06.2.17.29.37.13.17,0,.37-.06.5.12l.28,0a12.43,12.43,0,0,0,2.44-.07l.45-.32h0c.09-.14,0-.24-.12-.31-.06-.38.27-.26.46-.31h.48c.38.51,1,.2,1.5.45a.11.11,0,0,0,0-.17l-.36-.25-1.11-.18h0c-.62-.11-1.09-.66-1.79-.56,0-.14-.17-.17-.29-.19a.72.72,0,0,0-.53-.26.21.21,0,0,0-.2,0l-.07,0-1-.28c.14-.25.41-.11.61-.17h.06a.11.11,0,0,0,0,.05c.22.43.65.08,1,.21a12.86,12.86,0,0,0,2.72.73,2.44,2.44,0,0,0,1.12.34.23.23,0,0,0,0,.11.38.38,0,0,1,.15,0c.6.28,1.24,0,1.85.11.07-.65-.54-.42-.84-.58a.79.79,0,0,0-.48.08.18.18,0,0,1-.06.13v0c-.18-.22-.38-.34-.66-.16v-.09a.54.54,0,0,0-.15-.15c-.21-.07-.41-.18-.64,0h0s0-.05,0-.09a12.81,12.81,0,0,0-2.18-.68l-.15-.05h0c.24-.25.32.18.52.12.27-.22.36-.46,0-.65-.14-.08-.08-.13,0-.17h0a.21.21,0,0,0,.19.06h0a1.12,1.12,0,0,0,.46.29c-.21,0-.39,0-.4.35s.4.24.63.32l.25.07a.41.41,0,0,0,.28.11l.2.09a.85.85,0,0,0,.31.06c.38,0,.65.23,1,.32a.12.12,0,0,0,.15-.06c.29.18.63,0,.92.14a.57.57,0,0,0,.56-.15h0c.34-.26.45-.51,0-.73h-.14c-.39,0-.71.24-1.1.25a.19.19,0,0,1,0-.07,1.38,1.38,0,0,0-.27-.08,1.17,1.17,0,0,0,.26,0c.18,0,.4.2.54-.05s-.17-.18-.24-.28c-.54-.05-.65-.62-1.1-.79-.06-.34-.34-.27-.59-.29l-.06,0c0-.2.24-.26.42-.33a.27.27,0,0,0,0,.09.54.54,0,0,0,.84.24c.25-.06.62.06.65-.36l.32,0,.18.14.33,0h0l.45.18a3.35,3.35,0,0,0,1.14.28c.49.26,1,.07,1.51.09-.16-.35-.39-.21-.55-.26.07-.9-.66-.49-1.07-.59-.19.13-.15.24-.07.34a1,1,0,0,0-.41-.1l.14-.25-.36-.14-.33-.15,0,.06h0l.06-.06c-.23-.22-.53-.1-.8-.16a.53.53,0,0,0-.63-.17l-.19-.25c0-.1,0-.21,0-.31s0-.24-.2-.26a.77.77,0,0,1-.61-.34c.12-.19,0-.38,0-.58h0a.18.18,0,0,0,0,.07c.24.21.43.64.83.18s.84.34,1.38,0a8.2,8.2,0,0,0-2.34-.53l-.29,0-.34,0c-.16-.29-.39-.29-.65-.13h-.17c0-.33-.35-.33-.54-.48s-.28-.11-.1-.25a.68.68,0,0,1,.26,0s0,0,0,0a2,2,0,0,0,1.5.41l1,.14c.67.35,1.51.11,2.15.54.31.26.74.15,1.06.34h0c-.16.23-.44.07-.68.19.17.19.47,0,.6.22.31-.09.67.16.94-.14h0a.17.17,0,0,1,.12,0c.44-.11.89.2,1.32,0,.17-.23.25,0,.33.07.36.28.42,0,.47-.22A.78.78,0,0,0,132.65,23Zm-3-3.19s0,0,0,0v0h0Zm-.2-.86.46.14a.2.2,0,0,0,.08.08.23.23,0,0,0,.23,0l0,.07c-.3,0-.59-.05-.89,0a.32.32,0,0,0,0-.19A.14.14,0,0,0,129.46,18.91Zm-.78-.81a.36.36,0,0,0-.07.1.24.24,0,0,0-.1-.08A.47.47,0,0,1,128.68,18.1Zm-.52,1.18h0v0Zm-.91-2.88a.13.13,0,0,0,0,.06v0ZM126,13.49h0v0ZM2.53,20.31c-.11.09-.19.19-.16.32l-.19-.23c-.15-.26-.23-.56-.52-.72h0a.7.7,0,0,0,.15-.58s0-.05-.06-.08h.1s.06-.05.06-.08a1.3,1.3,0,0,0,.26.14.22.22,0,0,0,0,.21l.09.07c-.05,0-.07,0,0,.1a1,1,0,0,1,0,.17l.36.27A.35.35,0,0,0,2.53,20.31ZM4.3,16.37a.41.41,0,0,1,0-.19.17.17,0,0,0,0,.07l0,0A.21.21,0,0,0,4.3,16.37Zm.09-.45c-.24,0-.33-.2-.52-.27a.88.88,0,0,0,.32-.12l0-.09h0a.63.63,0,0,0,.29.33Zm.3,7h0Zm.49.54s0,0,0,0h0s0,0,0,0Zm.32,1.2a1.16,1.16,0,0,0-.21-.16c.07,0,.15,0,.23.08A.31.31,0,0,0,5.5,24.68Zm.52.84.06-.05h0ZM9.6,9.57h0v0Zm-.72,4.2c0,.07,0,.15,0,.23H8.58v0c.07-.16,0-.35,0-.51A.5.5,0,0,0,8.88,13.77ZM8.39,9.38l.25-.27a.38.38,0,0,0,0,.35.37.37,0,0,0-.28,0c0,.06-.07.06-.11,0A.14.14,0,0,0,8.39,9.38Zm.14,2.81h0v0l0,0h0ZM8.45,15.3a1.64,1.64,0,0,1-.38,0C8.18,15.2,8.32,15.27,8.45,15.3Zm-.13,3.09h0a1.38,1.38,0,0,0,.25.17h0c0,.07,0,.14,0,.2l0,0a.57.57,0,0,0-.26,0h0A.77.77,0,0,0,8,18.56ZM8,19.87a.51.51,0,0,0,.08.34,1.74,1.74,0,0,0-.39.05h0a.22.22,0,0,0,0-.13A.56.56,0,0,0,8,19.87ZM7.8,18a.63.63,0,0,1-.15.56h0a.27.27,0,0,0-.13.13c-.32-.22-.26-.64-.44-.94h0v0C7.23,18.1,7.46,18.17,7.8,18Zm-.62-.33v0h0Zm0-5.89a.14.14,0,0,0,0,.07c0,.15,0,.32,0,.48a.17.17,0,0,0-.12,0h0c0-.14,0-.27-.08-.4A.24.24,0,0,0,7.18,11.8Zm-.27,2.26ZM6.78,15h0Zm-.45,9.47h0l0-.07a.2.2,0,0,0-.13-.16,3.58,3.58,0,0,1,.29-.39c.17.11.09.31.18.45A.3.3,0,0,1,6.33,24.45Zm.25,2.38s0,0,0-.06a1.6,1.6,0,0,1,.23-.63v.08l0,.05a1.43,1.43,0,0,1,.06.35C7,26.85,6.87,27,6.58,26.83Zm.36-4.55h0Zm.28,6.58-.07-.18c-.09-.24,0-.52-.2-.75h.1a.88.88,0,0,0,.76.08c.19-.08.36-.14.39.15s-.06.26-.28.24c-.54,0-.3.34-.32.57a.38.38,0,0,1-.25.16ZM9,30.37c-.35-.25-.7-.53-1.13-.12-.1.29.15.43.31.62-.15-.08-.23-.2-.36-.27a.75.75,0,0,0-.33,0s0,0,0,0a.34.34,0,0,0,0-.17c.18,0,.29-.1.32-.32,0,0,0,0,0-.08.26-.1.49-.23.51-.55l.15-.17c.16,0,.3.14.23.24-.26.36,0,.42.27.5.1.15.22.28.19.47A.83.83,0,0,1,9,30.37Zm.16-19h0c-.05-.27-.23-.52-.2-.8s-.06-.49-.09-.73a1,1,0,0,0-.08-.31.79.79,0,0,0,.33.11.3.3,0,0,0,.14-.07c0,.14,0,.27.07.41v.16c-.06.16-.12.32-.19.48S9.14,11.14,9.15,11.39Zm.1,5.66Zm.12,11.89Zm0-11.19s0,0,0,0a.32.32,0,0,0,.1-.18,1.42,1.42,0,0,1,.08.18A.32.32,0,0,0,9.34,17.75Zm.11,14.56c0-.05,0-.15,0-.11a.19.19,0,0,1,.08.22A.19.19,0,0,0,9.45,32.31Zm.62-17.6a.27.27,0,0,1-.4.1l-.11-.08-.11-.08a.3.3,0,0,0,.13-.2l.06,0a.72.72,0,0,1,.41,0l0,0A.29.29,0,0,1,10.07,14.71Zm.13,16.68h0ZM13.44,8.27c.12.38.34.76.11,1.12a.5.5,0,0,0-.07-.25h0a1.13,1.13,0,0,0-.07-.89S13.42,8.26,13.44,8.27Zm-.37,13h0ZM13.14,29l0,0s0,.11,0,.16h0L13,29.12Zm0,2h0c0-.05,0-.1,0-.13s0,0,0,0,0,0,.06.05h0Zm-.6-19.36a.83.83,0,0,0,.19-.34l0,0a.46.46,0,0,1,0,.2c0,.07-.1.12-.27.11h0Zm-.4,1s.06-.05.08-.07h0a.87.87,0,0,1,0,.53.52.52,0,0,0-.08-.48Zm0,.49a.42.42,0,0,1-.08.18.14.14,0,0,0,0-.06ZM12,30.31a1.37,1.37,0,0,0-.13.2.76.76,0,0,0-.11-.14A.29.29,0,0,0,12,30.31Zm-.54-2.92h0Zm-.09-11.14h0Zm-.25,3.49v0h0ZM11,29.31c.14.09.23.19.13.32a.3.3,0,0,0-.13-.2A.24.24,0,0,0,11,29.31ZM11,29.17a.13.13,0,0,0,0,.06H10.9Zm-.09-5Zm-.62,5.65a.49.49,0,0,0,.34,0,.2.2,0,0,0,.08.1A.38.38,0,0,1,10.24,29.84Zm3.32,3.65-.11.08a.1.1,0,0,0,0,.07l0,0a6.82,6.82,0,0,0-1.43,0h-.18c-.14-.16-.36-.24-.44-.45a.34.34,0,0,0-.26-.14s0,0,0,0l-.47-.31c0-.23.27-.18.42-.25.07.35.35.44.66.5l0,0,.17.25a.08.08,0,0,0,.08,0s.05,0,.05,0l1.49-.08.08.2A.33.33,0,0,0,13.56,33.49Zm.08-1.38c-.21,0-.42,0-.62-.07.21,0,.41,0,.62.05Zm-.41-3.32h0a.14.14,0,0,0,0,.06h0A.14.14,0,0,0,13.23,28.79Zm0-18.41a.62.62,0,0,0,0-.27.88.88,0,0,1,.41.12c.07,0,.12,0,.15,0C13.79,11,13.37,10.27,13.2,10.38Zm1-1.69c0-.13-.08-.25-.13-.38a.42.42,0,0,0,.2-.26A.77.77,0,0,1,14.23,8.69ZM14.35,14h0Zm0,8.23Zm.56-5.18h0A0,0,0,0,0,14.92,17.09ZM14.54,31h0a0,0,0,0,1,0,0,0,0,0,0,0,0,0Zm.15-2.17h0l-.14-.21,0-.06a.44.44,0,0,0,0-.3.53.53,0,0,0,.4-.14c0,.12,0,.23,0,.34A.53.53,0,0,0,14.69,28.83ZM15,16.09h.09l-.09,0Zm.09,3.14Zm0,0Zm.21-4.14,0,0h0Zm.41-5a1.26,1.26,0,0,1,.09.69,1.18,1.18,0,0,1-.22-.53A.48.48,0,0,0,15.74,10.11Zm.34,1.46a.38.38,0,0,1-.47,0h0a.5.5,0,0,1,0-.12.54.54,0,0,0,.31-.3l.13.09a.26.26,0,0,0,0,.22l0,0Zm.64,14.88-.19-.07h0c0-.08.14-.12.2-.18l.19-.08A1.32,1.32,0,0,0,16.72,26.45ZM17,11.56l-.12-.18h0a.51.51,0,0,0-.1-.51.28.28,0,0,0,.21,0h0l0,0a1.16,1.16,0,0,0,.19.81Zm.72,0,.07,0v0Zm.41,22.67v0h0Zm1.27-9h0v.06s0,0,0-.06Zm.18-6.55-.05,0h.05Zm.14,7h0Zm0,1.24s0,0,0,0v0ZM21,31.32h0v0Zm.36,2.14,0,0h0v0Zm0-23.8h0Zm0,8.7h0Zm.05,2.58Zm.07-12.36h0v0l0,0Zm.12,21.53h0ZM21.75,20Zm5.76-7.18,0,0-.08.05Zm-.11-.56v.08h-.08Zm-.11,2.42h0ZM26.24,5.53a.49.49,0,0,0,.24,0c.27.32.47-.06.7-.12a1.3,1.3,0,0,1-.08.17c-.32.16-.47.55-.87.6C26.39,6,26.51,5.74,26.24,5.53Zm.45,23.66-.06,0v0h0s0,0,0,0Zm-.16-20.4Zm-.36-3.31h0Zm-.67,1a.61.61,0,0,0,.59-.13l-.1.2-.27.19a.58.58,0,0,0-.23.13c0-.12.1-.23,0-.35h0Zm.36,9.69h0Zm-1.8-8.08c.13-.12.26-.24.21-.44.1,0,.15,0,.15-.12a.44.44,0,0,0,.35-.21l.18,0-.82.77s0,.07,0,.11l0,0a1.05,1.05,0,0,0-.24.06Zm.54.79h0Zm0,0a.33.33,0,0,0,0,.14h0A.18.18,0,0,0,24.61,8.84ZM24,27.61h0l0,0s.05,0,0-.08,0,0,0,0ZM23.47,8.42a.87.87,0,0,0,.17-.07.38.38,0,0,0-.16.21.19.19,0,0,0-.07-.11v0Zm-.54.51a.54.54,0,0,0-.22.43s0,0,0,.05l0,0c-.07-.17-.05-.36-.16-.51A.74.74,0,0,0,22.93,8.93Zm-.68,12.88a.23.23,0,0,0-.1-.07c.05,0,.08,0,.11,0S22.28,21.8,22.25,21.81Zm.16,6.75h0Zm0,0ZM23,32.36l-.15.21c-.1-.1-.46.15-.37-.21a1.06,1.06,0,0,0,.5,0l0,0Zm.79.48a.05.05,0,0,0,0,0l0,0S23.83,32.83,23.82,32.84Zm1-.28a1.09,1.09,0,0,0-.69-.09c-.17,0-.32.1-.37.27h0a3.68,3.68,0,0,0-.45-.21h0v0a1,1,0,0,1,.62-.15l.95,0,.06,0A.55.55,0,0,0,24.83,32.56Zm.86-.89h-.05a1.71,1.71,0,0,0-.87.19c-.43.31-.54,0-.67-.29.22,0,.51.18.67-.14l.07,0c.23,0,.46,0,.69.05h.16a.11.11,0,0,0,0,.07.14.14,0,0,0,0,.14h0ZM27.94,30a.84.84,0,0,0-.37.17c-.18.15-.45.2-.58.42h0a1.75,1.75,0,0,0-.86.28.15.15,0,0,0-.11,0c-.13-.05-.36.09-.37-.15s.18-.29.37-.34l.46-.18.8-.29c.17-.17.42-.09.62-.16h0C28.05,29.87,28,29.94,27.94,30Zm.63-23.87h0Zm-.13,9.17h0Zm0,9.62Zm.07,1.42a.64.64,0,0,0,0-.07h0A.19.19,0,0,1,28.55,26.36Zm0-21.58a2.43,2.43,0,0,1,.26-.3l.29.29c.33.2.54,0,.77-.19s.22-.18.26-.31.27,0,.3.17c-.14,0-.19,0-.22.16h0l-.07,0-.39.25s0,0-.06,0a.38.38,0,0,0-.17.08l-.06,0L29.3,5a.25.25,0,0,1-.11-.1A.69.69,0,0,0,29,4.7.44.44,0,0,0,28.58,4.78Zm1.68,4.86h0Zm-.38,3.66h0Zm0,0Zm-.86,13ZM28.63,24h0Zm.87,5h0l-.24.18-.05,0a.52.52,0,0,0-.54.25c0-.12.15-.23.09-.35l.23-.13.08,0c.25,0,.45-.08.5-.35l.11,0Zm1-.69-.05,0c-.24-.1-.11-.38-.16-.56l-.33.14-.47.2a.21.21,0,0,0-.17.21c-.11-.09-.46.12-.36-.22h0c.34.11.37-.16.45-.35l.07-.1.14,0c.15-.06.27-.14.29-.3.15.12.4.12.46.34s.23.4.37.58C30.69,28.19,30.61,28.25,30.53,28.31Zm1.07-25h0v0Zm-.22,13.9Zm-.32-.59h0Zm-.19-8.4Zm.74,16.85a.38.38,0,0,0-.3.1l-.1.08-.14,0,0-.06,0,0h0v.09c.27-.18.4-.51.78-.54h0A.94.94,0,0,0,31.61,25.1ZM32,8.86c0-.07.06-.12.14-.16A.7.7,0,0,1,32,8.86Zm.28-3.77a.76.76,0,0,0,0-.21s.06.1.05.21Zm.44,12.6h0Zm.57-16.13s0,0,0,0l-.07,0a.15.15,0,0,0-.05.17h0a.17.17,0,0,0-.14,0,.17.17,0,0,0-.1-.07A2.72,2.72,0,0,1,33.26,1.56Zm-.32,20a0,0,0,0,0,0,0h0A0,0,0,0,0,32.94,21.53ZM33.11,7h0Zm.13-2.44h0Zm.23,19.38h0Zm.23-12.06h0Zm-1-9.17V2.65h.05c.17-.07.3-.15.25-.35.28.06.6,0,.84.21A1.52,1.52,0,0,1,32.73,2.7Zm2,2.74h0Zm.35,16.79c.06,0,.11,0,.1.08Zm.1-1.85Zm.24,3.5h0Zm-.16-22v0c0-.05,0-.07-.07-.07s-.07,0-.07,0l-.39,0s0,0,0,0l-.07,0a1.48,1.48,0,0,1,.67-.28h0a.18.18,0,0,1,.07,0c.12,0,.22.08.34.12A.53.53,0,0,0,35.24,1.9ZM36.3,4.66h0Zm0,0h0Zm.29-1.39Zm.25,4.42Zm0-6.59c-.06-.09-.41,0-.17-.27v0C36.62,1,37.21.84,36.87,1.09Zm.31,15.32v0h0Zm1.23,7.64,0-.05,0,0s0,0,0,0Zm.28-5.7v0h0ZM40,22.79a.38.38,0,0,1-.09-.13.1.1,0,0,1,0-.05l.07.07a.43.43,0,0,0,.11.27Zm.43-21.67a2.7,2.7,0,0,1-.52.3c-.15.09-.3.17-.34.35a.08.08,0,0,0,0,0,.36.36,0,0,0-.3-.06l-.24.09a.42.42,0,0,1-.39-.29c.36,0,.62-.23.94-.31h0a.52.52,0,0,0,.32.09.86.86,0,0,0,.23-.06c.07-.15.23-.18.4-.21A.22.22,0,0,0,40.44,1.12Zm.1-.7h0l0,0v0Zm.11.62a.34.34,0,0,0,.27-.28h0C41,1,40.8,1,40.65,1Zm.84,4.72h0ZM42.67.53h0ZM41.8,1.59a.78.78,0,0,0,.34,0s0,0,.06,0a.41.41,0,0,1-.16.16l-.06,0a.88.88,0,0,0-.2-.09S41.8,1.6,41.8,1.59Zm.25,24h0Zm.19-3.9a3.47,3.47,0,0,1-.36-.31.57.57,0,0,0,.41.16l.09.1ZM42.5,2.31a.36.36,0,0,0-.41.08s0,0,0,0L42,2.3c.11,0,.23-.06.28-.19s0,0,0,0l.28,0c0,.08,0,.16,0,.24Zm.31-1c-.07.06-.23,0-.29.1l-.07,0a.35.35,0,0,0,.06-.17h0a1.2,1.2,0,0,0,.29.09Zm.46,21.12s0-.05,0-.08l0,0Zm.07,3.87h0Zm.38-6.4v0a0,0,0,0,1,0,0Zm.22-18a.39.39,0,0,0-.35-.05.34.34,0,0,1-.07.16h0l-.12,0s0,0,0,0a.24.24,0,0,0,0-.22.46.46,0,0,0,.38,0s0-.06,0-.08h0c0,.12,0,.16.13.16Zm.46,26.57Zm0-11.89h0l0,0,.05,0Zm.74,11.76h0Zm.67-21.24,0,0h0Zm.87,8.82h0ZM47,3.49l-.13-.06c-.14-.18-.29-.09-.45,0h-.14a.32.32,0,0,0-.14-.14.34.34,0,0,0,0-.1L46,3.11l.09-.17-.5-.32h0l-.17-.15s0,0,0-.06l.06-.07a.38.38,0,0,0,0-.21h0l.08,0a1,1,0,0,0,.35,0,.63.63,0,0,0,.33-.12h0a.66.66,0,0,0,.2.27c.26.16.23.45.32.68a1.54,1.54,0,0,0,.34.49A.17.17,0,0,0,47,3.49Zm1-.44V3h0l0,0Zm.15,15.43h0Zm0,1.77,0,0s0,0,0,0Zm.28,6.3Zm.27-3.36h0Zm2.14,9.26s0,0,0,0l0,0Zm0-.89c-.07.13-.13.27-.2.4l-.15,0-.13-.08a3.78,3.78,0,0,0-1.21,0h0l0,0c.06-.11,0-.24,0-.36h.43l.2,0c.36.15.74,0,1.1,0v-.08H51Zm-.6-21.08Zm.39,17.44-.2.11a.16.16,0,0,1,0-.1A.38.38,0,0,1,50.69,27.92Zm-.06-1.42h0Zm.22-7s0,0,0,0,0,0,0,0ZM51,5c-.24-.27-.33,0-.46.11h0a6,6,0,0,0-.34-.53,2.83,2.83,0,0,0-.48-.5.05.05,0,0,0,0,0,2.71,2.71,0,0,0,.52.43,1.41,1.41,0,0,0,.5.12l.08,0c0,.14.11.19.23.24s.44.18.68.21h.05a.14.14,0,0,0,0,.19,1.7,1.7,0,0,0-.1.14c0,.17,0,.35.19.37A.61.61,0,0,0,52,6a1.86,1.86,0,0,0-.46-.25C51.48,5.4,51.15,5.24,51,5Zm.7,24.24h0v0Zm.18.92h0Zm.21-2.71v-.07h0Zm.37-15.32h0v0S52.43,12.13,52.43,12.12ZM52.19,7.5,52,7.38l-.12-.28A.41.41,0,0,0,51.85,7a1.58,1.58,0,0,0,.33.22.34.34,0,0,0,.2,0,.39.39,0,0,0,.08.1A.78.78,0,0,0,52.19,7.5Zm.3-1.07c0-.09-.14-.14-.22-.21a.37.37,0,0,0,.29,0Zm1,25.29h-.06a.26.26,0,0,0-.09.05c0-.11-.05-.15-.13-.18v0a1,1,0,0,0,.28.08A.23.23,0,0,1,53.49,31.72Zm.28-2v0h0S53.78,29.67,53.77,29.68Zm.88,3.16h0Zm0-5.16,0,0s0,0,0,0S54.68,27.68,54.66,27.68ZM55,10.11l0,0v0Zm1,9.58Zm3.34,10.72h0l-.19,0C59.11,30.35,59.23,30.39,59.33,30.41ZM59,31.54v0l0,0Zm-.14-7,0,0v0Zm-.05-12.9s0,0,0,.07h-.08ZM58.64,30Zm-1,.38s0,0,0,0l-.1,0Zm1.75,1.89a.46.46,0,0,0-.44.3.78.78,0,0,0-.59-.22,4.13,4.13,0,0,0-.49.07.48.48,0,0,0-.29,0,1.29,1.29,0,0,1-.34,0,1.24,1.24,0,0,0-.66.07.28.28,0,0,0-.07.09.08.08,0,0,0-.1,0,.42.42,0,0,0-.09-.36.94.94,0,0,0,.75,0c.58-.22,1.21-.24,1.79-.44,0,0,.05-.07.07-.11a.53.53,0,0,0,.27.24l-.08.07a.25.25,0,0,0,.15.15l.12,0h0A.29.29,0,0,0,59.44,32.3ZM66.35,5.47Zm-.14.75v0h0Zm-3.83,17.6a.91.91,0,0,1-.17-.09C62.32,23.71,62.37,23.75,62.38,23.82ZM62,29h0Zm0,.13v0l0,0h0Zm-.16-7.44ZM61,20.66h0A0,0,0,0,1,61,20.66Zm0-10.39a.55.55,0,0,0-.19-.18c.11,0,.18-.07.16-.24,0,0,0,0,.06,0a.81.81,0,0,0,.4-.12.18.18,0,0,0,0,.21C61.15,9.89,61,10.05,61,10.27Zm1.44,20.64a.19.19,0,0,0-.07.06.45.45,0,0,0-.46,0s0,0,0,0a.27.27,0,0,0-.36.15.35.35,0,0,0,.16.31l-.2,0a.35.35,0,0,0,0-.18c0-.11-.08-.22-.14-.33a4,4,0,0,1,.6,0,1.12,1.12,0,0,0,.32,0l.21-.05h0a.76.76,0,0,0,.26.06A1.18,1.18,0,0,0,62.42,30.91ZM63,9.14l-.29.17a.35.35,0,0,0-.14-.13A2.48,2.48,0,0,0,63,9ZM63.11,31h0Zm.26-13.53h0Zm.4-7.67,0,0h0ZM64.32,24h0Zm.32,5.94h-.08l.1,0A0,0,0,0,0,64.64,29.91Zm.61-.34a.34.34,0,0,1,0-.17C65.32,29.45,65.3,29.5,65.25,29.57Zm.46-1,0,0h0Zm0-17h0Zm.09,13.86h0v0Zm1,3.32a.86.86,0,0,0-.2-.13l.13-.06h0l.12,0a.31.31,0,0,0-.1.13S66.81,28.76,66.81,28.77Zm0-21.94c-.64.06-1,.65-1.55.82L64,8.55h-.16a.18.18,0,0,0-.05.12l-.32.14-.28,0a1.06,1.06,0,0,0,.38-.46s0-.08-.06-.11h0a.17.17,0,0,0,.19,0s0,0,0-.05l1.52-.87c.21,0,.32,0,.32-.18a1.56,1.56,0,0,0,.68-.56.08.08,0,0,0,0,0c.16.07.3,0,.44-.06l.12-.06C67,6.49,67.17,6.59,66.86,6.83Zm.25,21.46h0v0ZM67.19,30h0Zm1.56-17.45Zm-.27-5.92h0c-.13-.26.06-.33.32-.36A.44.44,0,0,0,68.48,6.64Zm.65,8.53v0Zm-.28-8.92A.22.22,0,0,0,69,6.1a.23.23,0,0,1,.28.05C69.09,6.1,69,6.22,68.85,6.25Zm.62.53h0Zm.12-.62h0l0,0Zm0,12.62h0Zm.57,0h0Zm.14,8.88v0h0ZM72.05,26a.35.35,0,0,0-.15.24h0c-.15-.06-.29,0-.44.07h0l0-.08c.15-.26.42-.29.68-.36l.31-.24a.2.2,0,0,0,0,.09C72.31,25.8,72.18,25.89,72.05,26Zm.6-13h0Zm.06-5h0Zm.34,16.47v0h0A0,0,0,0,0,73.05,24.41Zm.08-3.65h0Zm.55,4.32s0,0,0,.05a.46.46,0,0,0-.23-.15l.09-.1.09.05.27-.08A.49.49,0,0,0,73.68,25.08ZM73.61,3.42a2.55,2.55,0,0,1,.39,0A.65.65,0,0,1,73.61,3.42Zm.72,2.22v0h0ZM75,11.4Zm0-8.84a.27.27,0,0,0,0-.13c.21,0,.4.15.62.12-.21.3-.43.13-.65,0Zm.38,18.24a1.11,1.11,0,0,0-.07-.16.28.28,0,0,1,.13,0A.91.91,0,0,0,75.45,20.8Zm.07-10h0ZM75.73,12s0,0,0,0,0,0,0-.05h0l0,0ZM75.94,16Zm.13,6.1Zm1.58-6.4h0Zm.64-12.12a.91.91,0,0,0-.16-.11c-.19-.07-.42,0-.59-.09a.58.58,0,0,0,.32,0,.44.44,0,0,1,.47.09A.2.2,0,0,0,78.29,3.54Zm1.23-.37c-.1-.06-.26-.06-.25-.21a.42.42,0,0,0,.26.12A.22.22,0,0,0,79.52,3.17Zm2.13,15.29h0ZM82.39,23v0h0l0,0ZM82.8,4.66l-.66,0-.07-.07a1.2,1.2,0,0,0-.26-.18l-.06,0c.09-.22,0-.34-.2-.46a.43.43,0,0,0,.29,0c0,.18.17.24.34.25a.27.27,0,0,0,.12-.06.86.86,0,0,0,.07.1c.22,0,.26.26.43.33Zm.85-.19s0,0,0,0h0a.34.34,0,0,1-.06-.12l-.08,0,.18-.2h0a2.18,2.18,0,0,0,.22.31A.41.41,0,0,0,83.65,4.47Zm.58.47-.14-.25a.41.41,0,0,0,.26.07Zm.46,4.45h0Zm.38,3.5Zm.31,14h0l0,0h0Zm0-22.13h0Zm1,15.24h0Zm-.11,10.24c.09,0,.2.08.32.06v.1Zm.33-15h0s0,0,0,0a0,0,0,0,0,0,0Zm.14,15h0l0,0a0,0,0,0,0,0,0h0Zm.14-24.12h0ZM86.93,32s0,0,0,0,0,0,0-.06h0a.36.36,0,0,0,.16.18Zm.33-16h0Zm2.92-8.63h0ZM89,9.74v0h0ZM88.63,30l.05.06h-.07A.14.14,0,0,1,88.63,30Zm-.44.67s0,0,0,0h0Zm1.3,2-.08,0a3.35,3.35,0,0,0-1-.41L88,32.07a.38.38,0,0,0,.09-.13.91.91,0,0,0,.61.08l.08-.06.7.23v0l.09,0,.23.2Zm.14-26h0l-.16-.16a1.24,1.24,0,0,1-.17-.37,1,1,0,0,0,.8.41.11.11,0,0,0,0,.08C90,6.69,89.76,6.58,89.63,6.71ZM90.07,27h0a.6.6,0,0,0,.11-.12A.2.2,0,0,1,90.07,27Zm.86-12.39v0l0,0Zm-.37,5.05h0ZM90.43,33.3h0a.3.3,0,0,1,.15-.07s0,0,.07.05a.39.39,0,0,1,.3,0A2.09,2.09,0,0,1,90.43,33.3Zm1.39-.08h0Zm.28-21.65Zm.25-.82h0v0l0,0Zm.14,0,0,0a.32.32,0,0,0,.13,0S92.55,10.77,92.49,10.79Zm.72,20.42s0,0,0,0l0,0Zm.87-4.75h0v0h0l0,0Zm.07-12.37ZM94.63,33a.37.37,0,0,0,0,.18.74.74,0,0,0-.33,0,.22.22,0,0,0,0-.16l0,0h.35Zm.53-9.62h0l0,0Zm-.17-5h.26C95.18,18.49,95.1,18.5,95,18.42Zm.41,2.94,0,0,0,0Zm.21-9.55,0,0s0,0,.08,0Zm2.55.85h0ZM98,13h0ZM97.61,32.5Zm0,0s0,0,0,0v0ZM96,31.45h0Zm0,.05s0,0,0,0h0Zm-.14-1.25h0ZM98,34.16s0,0,0-.07a.52.52,0,0,0,.1.11Zm-.1-.42a.22.22,0,0,0,0,.14.58.58,0,0,0-.36.17l-.15,0a2.23,2.23,0,0,0-1.35.11.18.18,0,0,0,0,.08.29.29,0,0,0-.27-.19,1.52,1.52,0,0,0,.74-.39.38.38,0,0,0,.05-.15,5.72,5.72,0,0,1,1.89-.09A1.8,1.8,0,0,0,97.93,33.74Zm.69-22.17h0s0,0,0,0h0Zm1.17,1.82h0l.12.09a.23.23,0,0,1-.14-.08Zm.14,15.87a.06.06,0,0,1,0,0s0,0,0,0ZM100.5,33h-.1a.24.24,0,0,1,.12-.09A.19.19,0,0,0,100.5,33Zm2.15-6.74v0h0Zm-.39,6.3-.11,0c-.22-.18.15-.2.27-.29l.07,0a.3.3,0,0,0,.22-.06l.07,0A3,3,0,0,1,102.26,32.56Zm1.79-16.06h0Zm-.12,1.68a.16.16,0,0,0,.14-.13h0Zm.12-1.68s0,0,0,0v0Zm.37,2.29Zm.32-5.16,0,0h.08Zm.18,5.81s0,0,0-.05h0ZM105,30.68s-.08,0,0,0l.08,0A.23.23,0,0,0,105,30.68Zm.66-6.72ZM105.39,28h0a.52.52,0,0,1-.07-.15,1.63,1.63,0,0,0,.58-.13C105.74,27.86,105.51,27.86,105.39,28Zm.69.65h0Zm0-7.65h0l0,0Zm.77-1.69h0Zm.51-7Zm2.69,10.16,0,0,.08,0Zm.26-.06,0-.09.11,0A.53.53,0,0,0,110.32,22.44Zm.48-8.5h0ZM112,11h0Zm0,0h0Zm.21,17.7h0Zm.16-6.4v0h0A0,0,0,0,1,112.39,22.32Zm1.17,3.8ZM113.7,29s0,0,0,0h0Zm.19,1.06v0h0Zm1.26-.65Zm.36-19.05h0a2.74,2.74,0,0,0-.4-.15.27.27,0,0,0,.08-.07h0l.33.13A.32.32,0,0,1,115.51,10.37Zm1,16.58,0-.06s.05,0,.06.06Zm0-13.59h0a0,0,0,0,1,0,0Zm.27,2.45h0Zm0-6.53h0Zm.36,16.9h0Zm.71,3.18h0ZM118.07,15v0l0,0Zm.35.58h0v0S118.42,15.6,118.42,15.59Zm.42,11.61,0,0h0l0,0h0Zm.09-9.55h-.06l.07-.05A.06.06,0,0,0,118.93,17.65Zm-.08-6.48h0c-.07-.31-.44-.2-.6-.37a.11.11,0,0,1,.1,0,2.63,2.63,0,0,0,.77.23A.6.6,0,0,0,118.85,11.17Zm.25,11.77h0Zm.39-12.8a.06.06,0,0,1,0,0l-.07,0Zm0,.69a.11.11,0,0,0,0,.05h-.08Zm0,1.75.12,0v0A.26.26,0,0,1,119.47,12.58Zm.25,3.47h0Zm.36,1.66h0Zm.2,9.35s0,0,0,0h0Zm.1-1.88v0l0,0Zm2.35,3.67h0l0,0h.07Zm-.53-.25a.18.18,0,0,0,0-.09.45.45,0,0,0,.26.28,4.1,4.1,0,0,0-.5-.14A.46.46,0,0,0,122.2,28.6Zm-1,.82Zm.59-.8a.18.18,0,0,0-.09,0,3.65,3.65,0,0,0-.54-.23ZM121,15.87v0Zm1.6,7.07h0ZM122.8,25Zm0,0s0,0,0,0h0ZM123,11.29h0Zm3,14.17-.05,0a.06.06,0,0,1,0,0ZM125.09,27s0,0,0,0a.26.26,0,0,0,.09.15l-.4-.17ZM123.18,11.4a.94.94,0,0,1,.23-.53h0l.06,0a.46.46,0,0,0,0,.36.08.08,0,0,0,.07.08.42.42,0,0,0-.32.22l-.16-.08Zm.23,6a.29.29,0,0,0,0-.1.6.6,0,0,0,.29.23h0Zm.64,8.12a1.37,1.37,0,0,0,.22.19C124.15,25.66,124.06,25.63,124.05,25.49Zm.36-.8a.78.78,0,0,0,.13.24.58.58,0,0,0-.4.06.68.68,0,0,0-.17-.21.45.45,0,0,0,.42-.09ZM124,23c0,.09.14.12.23.16s.12.1.1.17a.77.77,0,0,0-.66-.29Zm-.13-8.12-.18-.1a1.86,1.86,0,0,0,.34,0h0Zm.11-1.62h0Zm.12-.73c-.29.08-.52-.13-.79-.15l-.15-.17V12l.15,0c0,.05,0,.09.13.12a.36.36,0,0,0,.31-.06,1.2,1.2,0,0,0,.47.42l1.37.41,0,0h-.13A4.77,4.77,0,0,1,124.13,12.49Zm.17,5.3h0Zm0,1.05s0,0,0,0h0Zm.12,1.33-.08,0h0a.64.64,0,0,1,0-.07l.08,0A.22.22,0,0,0,124.46,20.17Zm.17-.7h0Zm0,1a.39.39,0,0,0,0-.16.41.41,0,0,1,.11.07A.26.26,0,0,0,124.65,20.5Zm2.08-1.06Zm.11-1.25s0,0,0,0h0S126.84,18.21,126.84,18.19Zm-.08,2.3h0l0,0s0,0,0-.08l.17.06-.17.05h0Z"/><path class="cls-4" d="M12.33,5.68c.08-.24,0-.49-.21-.55s-.34.19-.39.41c0,.57-.52,1.07-.22,1.67C12.24,7,12.18,6.26,12.33,5.68Z"/><path class="cls-5" d="M115.28,31.42h0Z"/><path class="cls-6" d="M2.06,10.34l0,0c-.2-.06-.42-.2-.47.16.12.54-.07,1.13.21,1.66C2.35,11.59,2,10.94,2.06,10.34Z"/><path class="cls-7" d="M18.52,8.28a2,2,0,0,0-.19-.93c-.15-.26-.2,0-.29.05a1.91,1.91,0,0,0,0,1.06C18.34,8.76,18.56,8.85,18.52,8.28Z"/><polygon class="cls-8" points="7.55 31.56 7.55 31.55 7.54 31.55 7.55 31.56"/><path class="cls-9" d="M10.55,6.2c.35.43,0,1,.34,1.46C11.34,6.91,11.21,6.35,10.55,6.2Z"/><path class="cls-10" d="M5.47,9.55l.23-.39c0-.46.1-1-.33-1.32-.15-.06-.21,0-.26.16V8l-.17.07c-.79.11-.43.57-.28,1,.31.17.42-.09.56-.28a1.17,1.17,0,0,0,0-.11h0C5.49,8.91,5.33,9.23,5.47,9.55Z"/><path class="cls-11" d="M.74,13.23v-.29c-.12-.22-.06-.83-.56-.27a.66.66,0,0,0-.16.57C.26,13.44.51,13.66.74,13.23Z"/><path class="cls-12" d="M5.38,7.52a.81.81,0,0,0-.09-1.08H5.12l-.21.46.16.45C5.13,7.49,5.21,7.58,5.38,7.52Z"/><path class="cls-13" d="M9.64,7.14c.33.12.39-.12.46-.34h0a1,1,0,0,0,0-.76,2.89,2.89,0,0,0,0-.29c0-.06-.05-.08-.08-.07s-.06,0-.06.05c-.49.37-.36.89-.31,1.38Z"/><path class="cls-14" d="M1,15.83a.23.23,0,0,0,0-.16l.13-.14a.25.25,0,0,0,0,.07.56.56,0,0,0,.57,0,.46.46,0,0,0,.12-.34A.36.36,0,0,0,1.73,15c-.06-.31.08-.71-.35-.87a1.36,1.36,0,0,0-.19.74,1.89,1.89,0,0,1-.13.33A2.64,2.64,0,0,0,1,14.72H1a.54.54,0,0,0,0-.22.32.32,0,0,0-.1-.18l-.16-.15c-.21.06-.42-.18-.62,0a.34.34,0,0,1,0,.14c-.07.2.11.33.14.5l0,0c0,.07,0,.13,0,.19a.16.16,0,0,0-.14.06c0,.18,0,.36,0,.54s.11.32.32.34Z"/><path class="cls-15" d="M17.58,9.14c-.14-.11-.26-.14-.27.11a.91.91,0,0,0,.18.75C18.19,9.78,17.4,9.41,17.58,9.14Z"/><path class="cls-16" d="M121.94,21.09c-.17,0-.42-.05-.41.27l.41.19s.08.06.12,0,.06,0,.06,0a.15.15,0,0,1,.13,0c.26,0,.27-.12.14-.31Z"/><path class="cls-17" d="M78.47,29.87l.61.62c.26-.1.09-.31.12-.47C78.91,30.22,78.79,29.51,78.47,29.87Z"/><path class="cls-18" d="M2.81,25.86c-.2.13-.45.19-.56.44l.17.17.45-.13C3.22,26.13,3,26,2.81,25.86Z"/><path class="cls-19" d="M104.75,7.81c.13,0,.38,0,.18-.24s-.5-.25-.66.12C104.43,7.74,104.62,7.63,104.75,7.81Z"/><path class="cls-20" d="M121.79,27.5l-.15.29h0c.16.14.36.06.54.07a.3.3,0,0,0,.22-.23C122.22,27.41,122,27.55,121.79,27.5Z"/><path class="cls-21" d="M1.41,21.64a.3.3,0,0,0-.32-.16c-.05.27,0,.47.29.56Z"/><path class="cls-22" d="M11.08,8.74c.17,0,.32-.06.26-.25s-.18-.07-.28,0S11.07,8.65,11.08,8.74Z"/><path class="cls-23" d="M41,29.55l.34.15.2-.18C41.39,29.52,41.2,29.2,41,29.55Z"/><path class="cls-24" d="M15.46,8.37a.57.57,0,0,0,.26-.47v0c.13.3.06.65.2.94L16,9h0v.14c-.44.19-.53-.2-.78-.53,0,.45-.14.84.25,1.09s.5-.08.69-.27.44-.12.4-.43l0-.17c-.09-.36.39-.73-.14-1.12-.21-.14.34-.61.27-1,.09-.31,0-.43-.33-.31a.17.17,0,0,1-.14,0,.24.24,0,0,0-.32,0l-.29.24a.28.28,0,0,0-.2.08v0l-.22,0c-.06.3-.11.6-.17.89C15.12,7.89,15.05,8.27,15.46,8.37Z"/><path class="cls-25" d="M118.71,11.39c0,.12-.09.33.15.33s.36-.06.32-.29c0,0-.22,0-.34-.07Z"/><path class="cls-26" d="M2.25,12.87c0-.21.1-.43-.13-.59C1.85,12.55,1.94,12.74,2.25,12.87Z"/><path class="cls-27" d="M4.4,27.48c0-.12,0-.25,0-.38S4,27,4,27.21,4.17,27.53,4.4,27.48Z"/><path class="cls-28" d="M2.65,23.89c.23,0,.3-.11.3-.32.11-.42.26-.85-.3-1.1l-.31.22c0,.2.09.4.13.6Z"/><polygon class="cls-29" points="47.87 26.5 47.88 26.5 47.87 26.5 47.87 26.5 47.87 26.5"/><polygon class="cls-30" points="22.72 27.61 22.72 27.61 22.72 27.61 22.71 27.61 22.72 27.61"/></g></svg>