<svg xmlns="http://www.w3.org/2000/svg" viewBox="0 0 13.9 52.83"><defs><style>.cls-1{fill:#8cc8ce;}</style></defs><title> slign-scolor</title><g id="Layer_2" data-name="Layer 2"><g id="Mode_Isolation" data-name="Mode Isolation"><path class="cls-1" d="M3.46,51.57a.34.34,0,0,0,.27-.1l0,0A.28.28,0,0,0,4,51.4l0-.08s0,0,0-.06a.16.16,0,0,0-.06-.08h0l-.07-.08c-.18-.07-.24,0-.26.17h0l-.09,0h0c-.17-.11-.31,0-.46,0H3a.19.19,0,0,1,0-.15S3.13,51,3,51a.35.35,0,0,0-.2,0c-.07,0,0,.09,0,.14s0,.1-.05.14h0c-.13,0-.12-.11-.14-.19s-.23-.09-.34,0,0,.13.09.15-.31,0-.22.21.34.1.5.18.25,0,.37,0A.6.6,0,0,1,3.46,51.57Z"/><path class="cls-1" d="M10,51.8a1.4,1.4,0,0,0-.73.09.92.92,0,0,1-.29,0A.19.19,0,0,0,8.9,52c-.18.17,0,.18.11.23l.07.06a.74.74,0,0,0,.21,0c.08-.16.2-.15.33-.09.15-.09.34,0,.48-.14C9.92,52,10.12,51.87,10,51.8Z"/><path class="cls-1" d="M9.12.11c0,.05,0,.11,0,.15A.76.76,0,0,1,9,.71V.77C8.94.86,9,1,9,1.08s-.07.23-.11.34l-.07.25-.09.39a.19.19,0,0,0-.06.2l-.07.19a.12.12,0,0,1-.1-.2c.18-.17-.05-.18-.08-.26s-.16.14-.25,0,.11-.2.11-.32l.05-.13c0-.07,0-.13,0-.2a.86.86,0,0,0,0-.45c-.14,0-.1.15-.17.21H8.07A.14.14,0,0,0,7.94,1l-.06.07C7.71.85,7.76.6,7.74.37c0,0,0,0,0,0h0a.06.06,0,0,0,0-.08.11.11,0,0,0-.13,0c-.1.16,0,.35,0,.51L7.44,1c-.16.05-.25.12-.28.26a.19.19,0,0,0,0-.08c.07-.07,0-.22.18-.23-.1-.12.12-.16,0-.27-.32.12-.32.12-.34.4s-.22.49-.15.78c-.12.1-.1.25-.14.38l-.07.06-.08,0,0,0c.06-.11,0-.25.06-.36-.14-.11,0-.17,0-.24s.1-.24,0-.38C7,1.07,6.92.8,7,.56S7,.27,7,.12,7,.06,7,.1a1.24,1.24,0,0,0-.11.46c0,.24-.17.46-.09.71h0l-.09.06-.06.25c0,.22-.31.41-.09.68l-.07,0-.17-.06c-.06-.16.09-.29,0-.45s-.09,0-.14,0a1.68,1.68,0,0,0-.05.45l-.06.12a.25.25,0,0,0,0,.22l0,0a.08.08,0,0,0,0,.08c-.21.13-.15.29,0,.45l0,0a.33.33,0,0,0-.14.3.1.1,0,0,0-.07-.07s-.08,0-.1,0l0-.09c.11-.45.29-.87.39-1.31,0-.08,0-.15,0-.22V1.54c.05,0,.06-.07.07-.12a.25.25,0,0,0,0-.21V1l0-.05L6.31.9c0-.09,0-.19-.07-.26a.17.17,0,0,0-.13,0c-.14.18,0,.42-.11.59v.07a7.52,7.52,0,0,1-.29,1l0,0,0,0a1,1,0,0,0,.11-.42.61.61,0,0,0,0-.12c0-.18.19-.33.12-.53-.13.12-.29.22-.26.45s-.07.29-.1.43-.19.06-.24.14a.08.08,0,0,1,0,0,1.21,1.21,0,0,0,0-.18.13.13,0,0,1,0-.06l0,0V1.75a2.28,2.28,0,0,0,.1-.52c0-.09,0-.17,0-.26s0-.08-.08-.07v0a3.17,3.17,0,0,0-.12.75,4.6,4.6,0,0,0-.29.91.71.71,0,0,0-.1.14c-.07,0-.11,0-.13.1s-.15.26-.32.22h0V3h0A.09.09,0,0,0,4.44,3a.44.44,0,0,0,0-.23c-.16-.21-.2-.2-.37.12C4,2.92,4.1,3,4,3.11a.24.24,0,0,0-.06.2c0,.23-.14.42-.1.65a.79.79,0,0,0-.16.39,2.8,2.8,0,0,0-.28,1.18.31.31,0,0,1-.07.2,1.07,1.07,0,0,0-.18.87,2.46,2.46,0,0,0-.08.71c0,.23,0,.46-.07.69s.1.19.07.3.05.24.07.35l0,.14a1.06,1.06,0,0,0-.11.7v.2c-.09.07,0,.17,0,.25l.13.56c.09.13,0,.27,0,.41l0,.12c0,.07,0,.11,0,.15s0,.17.07.24c.07.26,0,.56.24.77s0,.31.17.39l0,0,.09.11v0a.19.19,0,0,0,0,.08l0,0h0a.15.15,0,0,0-.16,0c0,.07-.12.12,0,.19a4.08,4.08,0,0,1,.34.57.58.58,0,0,0,.19.31c0,.13.1.17.16.25s.21.4,0,.59l-.19.2L4.07,15l-.77.85a.72.72,0,0,0-.23.26,4.21,4.21,0,0,0-.54.66l-.06.06a.2.2,0,0,0-.12.2l-.18.19c-.06,0,0,.09-.06.14s0,.18,0,.26L2,17.67s-.11.06-.11.13c.11.28-.12.37-.24.52a.4.4,0,0,0-.18.14l0,0-.16,0v0l.09.06h0a.35.35,0,0,0-.06.18c-.2,0-.09.16-.08.26a.13.13,0,0,0-.12,0h0a.31.31,0,0,0-.2.37.26.26,0,0,1,0,.21.24.24,0,0,0-.1.27c.08.12,0,.25,0,.37s0,.15,0,.23l0,0,.07.19c-.1.09,0,.22-.07.33a.82.82,0,0,0,0,.38.38.38,0,0,1,.14.38c.07.1,0,.23.11.33H1a.46.46,0,0,0-.07.07s0,0,0,0l-.08,0,0,.11-.06.13v.38l.11.07,0,0s0,0,0,0,0,.26-.06.39l0,.07s0,0,0,0,.17.23.1.38l.19.69a.52.52,0,0,0,.19.14l.07.17-.06.38c.1.07.25-.13.34,0-.1,0-.2-.06-.23.1l.08.18c.05.06.06.14.11.2l.21.44a1.72,1.72,0,0,0,.3.51.85.85,0,0,0,.25.39c0,.05,0,.11.06.12l.13.25a3.87,3.87,0,0,0,.5.7,2.2,2.2,0,0,0,.44.74.84.84,0,0,0,.3.47l0,.12c0,.09.07.21.18.25a2.14,2.14,0,0,0,.09.27c.19.39.18.42-.2.63h0a4,4,0,0,1-.59.5c-.09,0-.09.07-.12.11s-.15,0-.18.12a.19.19,0,0,0-.19.13l-.12.13c-.16,0-.23.13-.34.21L2.15,32a.21.21,0,0,0-.18.13l-.06,0c-.16,0-.12.23-.24.3s-.17.36-.3.52a.17.17,0,0,0,0,.12h0a0,0,0,0,0,0,0s-.08,0-.06.08v.12a1.45,1.45,0,0,0-.42.4s-.13,0-.12.11l0,.22c0,.11-.23.17-.16.33-.22,0-.3.2-.43.32s.05.33-.12.45a.49.49,0,0,0,0,.44c.06.1-.07.24.05.33a.86.86,0,0,0,0,.57c-.08.07,0,.18-.06.26L.12,37,.18,37a1,1,0,0,0,.08.39c-.09,0-.12.1-.14.19s-.14.09-.12.2L0,38a1.17,1.17,0,0,1,.05.11c0,.12,0,.25,0,.37a.29.29,0,0,0,.1.23s0,0,.06,0a.44.44,0,0,1,0,.32.94.94,0,0,0,.16.63c.07,0,.09.08.06.17a.17.17,0,0,0,.12.23h0l.1.18h0c0,.19.19.37,0,.56a.48.48,0,0,1,.22.28.23.23,0,0,0,0,.11,1.57,1.57,0,0,0,.49.77c.13.18.18.42.38.55s.09.14.14.2.19.26.29.38a2.27,2.27,0,0,0,.56.63.07.07,0,0,0,.07.06c.16.14.22.4.43.5l0,.08.12.06h0l.08.12v.07c0,.08,0,.1.09.11s.12.24.27.25l-.14.18c.2,0,.4,0,.47.28a.1.1,0,0,0,.12,0s0,0,0,0-.12.05-.18.07c.1.2-.13.16-.17.26h0a.14.14,0,0,0,0,.18.22.22,0,0,0,.1.09l0,0,0,0a.1.1,0,0,0-.1.05l-.12.44v.11h0a.22.22,0,0,1-.17-.05h0l0-.06a.15.15,0,0,0-.21,0l-.07,0a.49.49,0,0,0-.37.1,1.19,1.19,0,0,1-.53,0,.39.39,0,0,0-.27.1c-.08,0-.17,0-.18.14a.32.32,0,0,0,.09.08.16.16,0,0,0-.09,0,1.29,1.29,0,0,1-.7.09c-.31,0,0,.28-.17.38s.09,0,.14,0,.23,0,.34.06h.11l.71-.06a.22.22,0,0,1,.19,0c.14.07.27,0,.41,0a.9.9,0,0,0,.16,0l-.09.08a.35.35,0,0,0,.43.18v0c.08.12,0,.31.13.41s.13,0,.17-.07a.23.23,0,0,1,.25,0l.06,0,.18-.07a.17.17,0,0,0,.18,0s0,0,0,0h0v0s0,0,0,0,.08.24,0,.38a.26.26,0,0,1-.25-.06c-.14-.09-.19.13-.31.14s.06-.16,0-.21a1.36,1.36,0,0,1-.49.08l0,0h0c-.1,0-.19,0-.28,0H3.19c0,.33.2.22.36.19s.33,0,.48.06l0,0c.09,0,.17-.06.25-.07s.22-.1.28.07h0c-.16.12-.37,0-.53.13h0a.17.17,0,0,0-.19,0L3.8,49s0,0,0,0a1.19,1.19,0,0,0-.7,0L3,49c-.19.11-.43-.06-.59.14l-.11.07c-.13.31.11.19.22.22a.1.1,0,0,1,0-.07s0,0,0,0l.07.05h.11c.12,0,.25,0,.35-.06l0,0a.13.13,0,0,0,.14,0c0,.14-.09.23-.25.19a.2.2,0,0,0-.21.08c-.09,0-.18,0-.26.06s-.2,0-.29.07,0,.12.1.12l1.16,0a1.23,1.23,0,0,1,.54,0,.65.65,0,0,0-.16.13,1,1,0,0,0-.54.09.31.31,0,0,0-.31,0h0a.08.08,0,0,0,0,0h0a.68.68,0,0,0-.4,0s0,0,0,0c-.18.09-.39,0-.56.11,0,.16,0,.16.29.16.09,0,.18,0,.26,0l0,0c.09,0,.19,0,.27,0a.57.57,0,0,1,.29,0s.07,0,.08-.06h0l0,0c.06,0,.14,0,.17-.07h0a.09.09,0,0,0,0,.11H3.7c.12,0,.25,0,.34-.11s.11.07.18,0,.2-.06.31-.08,0,.06,0,.15.14,0,.22,0l0,0h0a.11.11,0,0,0,0,.08c-.13,0-.24.05-.37.05a.15.15,0,0,0-.07,0,.43.43,0,0,0,0-.07c0-.16-.16,0-.25-.06l-.15,0c0,.12.1.09.17.11a.13.13,0,0,0,.12,0l-.08.07v0s0,0,0,0-.2,0-.2.1.13.06.19.1l.37-.12h.12v.11a.33.33,0,0,1-.23.09l0,.18h0c-.06.07-.19,0-.21.15s.07.1.12.11.29,0,.33-.19.07-.18.11,0,.14.17.26.16h0a1.15,1.15,0,0,0,.32,0,.48.48,0,0,0,.16-.08.18.18,0,0,1-.19.13l0,0h0c-.28,0-.09.2-.15.29h0a.14.14,0,0,0-.11,0s0,0,0,0A.12.12,0,0,0,5,51.48a.72.72,0,0,0-.26,0c-.23.06-.28.17-.11.36h.11a.54.54,0,0,0,.3-.08l0,0c0,.09.11.11.17.16s0,.21.14.21a.43.43,0,0,1,.41,0c.1-.09.31,0,.32-.25h0s0,0,0,0,.07.13.15.08l.06,0c.09.07.16,0,.23,0s0-.27.15-.35,0,0,0,.05h0l0,.18.16-.06H7c.13-.06.11-.16,0-.26v0c.11-.11.18-.28.38-.17,0,.08-.24.13,0,.27l.11,0h.18c.06-.07.19,0,.19-.18h0a.23.23,0,0,0,0-.21L8,51.05a.38.38,0,0,0,.11.11c-.06.07-.16.14-.09.27s.16,0,.13,0-.16.27-.27.19-.28,0-.39.07H7.36c-.34.16-.72.21-1.06.35-.06.08,0,.13,0,.16l.22-.06,0,0a.36.36,0,0,0-.07.1c-.12.28-.07.37.22.36,0,0,.1,0,.14,0s.29,0,.41-.07h0c.11-.08.08-.18,0-.27a.1.1,0,0,0-.05,0c.05-.13.15-.06.24,0l0,.17h0s-.08.09,0,.14a3.4,3.4,0,0,0,.89-.21c.07-.09,0-.18,0-.27a0,0,0,0,0,0,0,.65.65,0,0,0,.24,0,.67.67,0,0,0,.09-.34h0a.87.87,0,0,0,.57-.58h0L9.36,51h0c.13.09.09.24.12.37s0-.18.12-.19L9.66,51l.1-.05h0c.1,0,.15-.07.18-.16v-.07l.06-.13a.17.17,0,0,1,.12-.18c.19,0,.39-.1.58,0a.22.22,0,0,0-.16.23l0,0h0a.3.3,0,0,0-.37.07s0,.17.09.14.22,0,.32,0,0,0,0,0h.06s0,0,0,0v.06c.08,0,.16,0,.25,0a4.94,4.94,0,0,0,.55-.15,2,2,0,0,0-.65.77c0,.05,0,.08.1.06a2.31,2.31,0,0,0,.77-.92.24.24,0,0,0,.11-.2l.12-.14c.08-.08.22-.1.25-.24l0,0c.16-.07.07-.31.25-.37h0c0-.11.09-.16.13-.24l.1,0a.2.2,0,0,0,.16-.18h0a.22.22,0,0,0,.1-.13h0c.1,0,.11-.13.14-.22a.25.25,0,0,0,0-.12l0,0,.06-.11a.1.1,0,0,0,.09,0,.14.14,0,0,0,0,.11h0a.15.15,0,0,0,0,.19h.06a.26.26,0,0,0,0-.21,3.89,3.89,0,0,0,.21-.91c.11-.05,0-.2.08-.26s-.05-.42-.07-.63.07-.17.11-.26a1.42,1.42,0,0,0,0-1.09c0-.06-.15-.08-.08-.12.26-.18.1-.34,0-.5-.11.1,0,.27-.09.37a.17.17,0,0,0,0,.25h0c-.1.06-.19,0-.29,0v-.15a.6.6,0,0,0,0-.23.29.29,0,0,0,0-.09.39.39,0,0,1,0-.15c.05-.09.15-.16.16-.26a.06.06,0,0,0,0-.06l0,0h0c.33-.05,0-.21,0-.31l-.11-.13L13.34,44a.68.68,0,0,0-.08-.24.1.1,0,0,0,0-.1l0-.26s0,0,0,0a.17.17,0,0,0-.09-.22l-.06-.06c0-.07.1-.13,0-.2s0-.48-.31-.51l-.08-.12a.49.49,0,0,0-.25-.69c0-.05,0-.11-.06-.14a.13.13,0,0,0,0-.06.21.21,0,0,0-.15-.07c0-.06,0-.09-.08-.13,0-.22-.14-.31-.26-.44l-.13-.19c-.17-.07-.15-.35-.36-.38,0-.14-.14-.18-.24-.25s-.15-.27-.26-.38a1.87,1.87,0,0,0-.43-.5L10.41,39a.37.37,0,0,0-.19-.25l-.06-.06a6.43,6.43,0,0,1-.62-.76,4.56,4.56,0,0,0,.59-.65c.11-.12.27-.2.29-.39s.07-.22.18-.27c.29,0,.4-.33.62-.47a.62.62,0,0,0,.34-.44c-.08-.07-.16,0-.23,0a1.13,1.13,0,0,1,.22-.27.19.19,0,0,0,.14-.12l.09-.2c.12,0,.07-.21.18-.26s.11-.2,0-.31h0l-.09-.07h0c-.05-.17.08-.29.11-.44h0l0,0c.1,0,.1-.12.1-.21a.47.47,0,0,0,.17,0s0,0,0,0-.09.21-.16.3,0,0,0,0a.18.18,0,0,0-.07.19.23.23,0,0,0,.08.16l.06,0s0,0,0,.07a.33.33,0,0,0-.1.14c0,.07,0,.15,0,.22s0,.12.06.13c0-.19.24-.26.22-.47l0,0a1.4,1.4,0,0,0,.26-.48.44.44,0,0,0,.07-.37.33.33,0,0,0,.18-.33c-.08-.16.1-.28.06-.43a.7.7,0,0,0,.1-.47c.05,0,.05,0,0-.06l0-.27c.11-.13-.06-.31.06-.44a.12.12,0,0,0,0-.17,1.63,1.63,0,0,1,.11-.23,1.93,1.93,0,0,1,0-.24c.07-.05.05-.12,0-.19a.1.1,0,0,0-.13,0,0,0,0,0,1,0,0,.24.24,0,0,0,.14-.14h0a.12.12,0,0,0,0-.18h-.05v-.19c.18-.18-.13-.34,0-.52a.81.81,0,0,0-.17-.7c.06-.08,0-.16,0-.24a.57.57,0,0,0-.11-.33l-.13-.14a.18.18,0,0,0-.12-.18,1.12,1.12,0,0,0-.08-.45h0a.1.1,0,0,0,0-.09v0a.45.45,0,0,0,0-.28l-.07-.06v-.17c0-.05,0-.11-.05-.15s.11-.06,0-.13l-.16-.06v-.07A1.08,1.08,0,0,0,12,26c-.06,0-.06-.08-.06-.14s-.1-.45-.35-.52l0,0h0s0,0,.05,0a.24.24,0,0,0,0-.23L11.47,25a.39.39,0,0,0-.18-.33.27.27,0,0,0-.08-.24.65.65,0,0,0-.3-.39c-.12-.15-.14-.38-.31-.5s-.33-.55-.5-.82c0,0,0,0-.07,0l-.12-.23c0-.11-.13-.2-.06-.33s.29-.33.41-.52c.19,0,.2-.22.31-.32a3.68,3.68,0,0,0,.77-.85c.09,0,.12-.06.12-.13h-.1v0s0,0,0,0a.62.62,0,0,1,.17-.28l.13-.17.06-.07c0-.08.14-.1.06-.23s.07-.08.12-.1l.13-.14c0,.21,0,.2.22.13a2.64,2.64,0,0,0,.38-.5c0-.18-.11-.1-.19-.06h0v-.09a.63.63,0,0,1,.07-.3l.1,0c.14.06,0,.24.13.32a.31.31,0,0,0,.07-.25c.19,0,.19-.22.3-.32A.1.1,0,0,0,13,18a.24.24,0,0,0-.19.1l-.07.09a.3.3,0,0,0,0-.1h0V18c0-.08.13-.08.13-.18l.05,0v-.1s0,.05.07.06a.29.29,0,0,0-.05.13c0,.05,0,.12.1.1a1.3,1.3,0,0,0,.29-.76h0a.18.18,0,0,0,.12-.12,3.92,3.92,0,0,0,.15-1.23V15.5l0-.19a1.1,1.1,0,0,0,.16-.71.39.39,0,0,0,.06-.33c-.1-.13,0-.31-.07-.44l-.12-.13v-.12a.22.22,0,0,0-.11-.2h0c-.06-.11-.12-.22-.17-.33a0,0,0,0,1,0-.05h-.05s0,0,0-.06a2.18,2.18,0,0,0,0-.51.31.31,0,0,1-.09-.26c-.07-.09,0-.22-.06-.32A.35.35,0,0,1,13,11.6c0-.09,0-.19,0-.26s0-.15-.07-.19l-.31-.57a1.64,1.64,0,0,0-.32-.56.06.06,0,0,1,0,0,.23.23,0,0,0-.16-.19s0-.07,0-.09a.65.65,0,0,1-.23-.51s0,0,0,0a0,0,0,0,0-.07,0,.28.28,0,0,1-.13.11c-.09-.06,0-.12,0-.18h0c.14,0,.06-.16.1-.23v-.3a.21.21,0,0,0,.09-.2.14.14,0,0,0,0-.06C12,8.2,12,8.07,12,8l.07-.32c0-.24.11-.47.17-.71h0c.1-.12,0-.28.07-.4s0,0,0,0,.07-.26,0-.38h0c-.07-.13,0-.24.06-.35v-.3l.06-.13a1.86,1.86,0,0,0,.11-.58c-.07-.11,0-.26-.07-.38s-.13.08-.18.13v.07c-.06.1.06.23,0,.32V5c-.1.1,0,.23,0,.34a.66.66,0,0,0-.13.37c-.09,0-.06-.12-.07-.18s-.09,0-.12,0-.08.14,0,.22h0a.36.36,0,0,0-.07.1,1.55,1.55,0,0,0,0,.21.28.28,0,0,0,0,.09h0a.19.19,0,0,0,0,.08l0,.18s0,0,0,.07-.1-.07-.08-.17a2.19,2.19,0,0,0,0-.27h.05V5.72h0l0-.07c-.05-.12,0-.21.07-.32a.07.07,0,0,1,0,0c.07,0,.11-.06,0-.14s0-.15,0-.2V4.83a4.48,4.48,0,0,0,0-1l-.12-.18h0c-.06,0-.1,0-.13,0s-.1-.1-.12-.18V3.35c.2-.15.08-.41.18-.59,0,0,0,0-.07,0l-.1.14-.07.44h0c0,.25-.26.44-.22.71-.06,0-.07.07-.08.12a.28.28,0,0,0-.1.21.08.08,0,0,0,0,.08,0,0,0,0,1,0,0c0,.13-.07.26-.11.39-.1-.06,0-.16-.07-.24s0,0,0,0h0c.17-.09,0-.26.08-.38a5.54,5.54,0,0,0,.29-1.08.87.87,0,0,0,.13-.44h0V2.65c.11-.24,0-.5,0-.74-.26,0-.16.21-.23.33a.31.31,0,0,0,0,.19l.06,0h0c-.08.07-.13.15-.06.26h0a.13.13,0,0,0-.07.06c0,.08-.07.16,0,.25h0a6.14,6.14,0,0,0-.27.86.14.14,0,0,1,0,.06h0V4c-.1-.09.08-.13,0-.2s-.18-.15-.26,0,0,0-.07,0h0a.09.09,0,0,0,0-.08h0a.52.52,0,0,0,.11-.19c0,.09,0,.16.14.16s.1-.16.13-.25l0-.1a.15.15,0,0,0,0-.11.3.3,0,0,1,0-.08.5.5,0,0,0,0-.12c0-.15.09-.26.13-.39a0,0,0,0,0,0-.06c.07-.11,0-.25.05-.36A.24.24,0,0,0,11.17,2h0c-.1-.13-.2-.18-.29,0V2c0,.16.09.28.1.44h0a.42.42,0,0,0,0,.1.34.34,0,0,0,0-.1c0-.07.08-.16,0-.21s-.07.06-.11.09c0,.21-.25.26-.31.44-.14,0-.11.13-.12.23a0,0,0,0,0,0,0c-.08,0-.1-.1-.13-.17h0a.22.22,0,0,0,.1-.33c0-.1,0-.25-.15-.26V2.16l.06-.07,0-.13h0l.08-.18a1.41,1.41,0,0,0,.11-.45c.1-.2,0-.39,0-.6-.14.06-.09.15-.11.22-.36,0-.19.25-.23.42s.09.06.13,0a.42.42,0,0,0,0,.16l-.1-.05-.05.14L10,1.78h0l0,0c-.09.09,0,.21-.07.32a.2.2,0,0,0-.06.25l-.1.07H9.66s-.09,0-.1.07-.06.18-.13.25-.16,0-.23,0v0l0,0c.08-.09.25-.17.07-.33s.14-.33,0-.54a3.49,3.49,0,0,0-.21.92l0,.12,0,.14C9,3.08,9,3.17,9,3.27v.07c-.14,0-.13.14-.19.22s-.05.11-.1,0a.15.15,0,0,1,0-.1h0a.86.86,0,0,0,.17-.6l0-.38c.14-.27,0-.6.22-.86s.06-.29.13-.42h0c.09.06,0,.18.08.27.07-.07,0-.19.08-.24S9.52,1,9.4.89h0a.09.09,0,0,1,0-.05c0-.17.08-.35,0-.52s0-.1,0-.13S9.42,0,9.32,0A.33.33,0,0,0,9.12.11ZM7.86,1.3h0v0Zm-.34.08.05-.18,0,0a.09.09,0,0,0,0-.1h0c0,.12,0,.24,0,.36a.09.09,0,0,0-.07,0A.06.06,0,0,0,7.52,1.38Zm-.33.31,0,0,0,0A.15.15,0,0,1,7.19,1.69Zm.47.21Zm-1.14.36,0,0h0Zm-1.16.51h0ZM8.07,51.82a.1.1,0,0,0,.13.06L8.11,52c-.11.06-.22.09-.29.21h0a.28.28,0,0,0-.23-.06l0,0v0l0,0a.53.53,0,0,0,.06-.1.11.11,0,0,0,.08,0l0,0s0,0,0,0H7.8l.1-.14A.15.15,0,0,0,8.07,51.82Zm-1.56-.7h0Zm-.18,0c0,.1-.08.13-.11.21a.29.29,0,0,0,0-.13h0A.24.24,0,0,0,6.27,51ZM9.12,51Zm.21-.19h0Zm.48-.13a.27.27,0,0,0-.07.08s0-.06,0-.09Zm.33-.2,0,0h0ZM3.8,49h0Zm1.67.29h.09v.12h0c-.07,0-.14,0-.21,0A.2.2,0,0,0,5.47,49.3Zm-1.74.19-.11-.1a.14.14,0,0,0,.14,0,.14.14,0,0,0,0,.11,0,0,0,0,1,0,0A.05.05,0,0,0,3.73,49.49Zm1.11-.06h0Zm1.24,0a.39.39,0,0,1,0,.15S6.07,49.52,6.08,49.47Zm1.23.05h0a.61.61,0,0,0,.07-.1h.07a.43.43,0,0,0,0,.11h0l-.09.11Zm.59.12a.22.22,0,0,0,.13,0,.88.88,0,0,0,0,.16H8A.29.29,0,0,0,7.9,49.64Zm-.74.08a.26.26,0,0,1,.22.07h0l.06.05c-.09.13-.26.1-.38.17h0C7.19,50,7.22,49.86,7.16,49.72ZM7,50H7ZM4.69,50h0c.06,0,.12,0,.19,0a.11.11,0,0,0,0,0h0l-.16,0S4.72,50,4.69,50Zm.9.11Zm.36.05H6Zm3.76.18h0s0,0,0,0a.1.1,0,0,0-.07.05.83.83,0,0,1-.15-.11c0-.07.12,0,.17-.07S9.72,50.25,9.71,50.31Zm.95-.1h0a.75.75,0,0,1-.25-.09h0l.14,0C10.67,50.06,10.74,50.1,10.66,50.21Zm-1.81-.14h0ZM11.47,50l-.07,0c-.1,0-.21,0-.3.08v0a.35.35,0,0,0,0-.3c0-.07-.05-.14.06-.15s.1,0,.1.11.13.12.22.13a.13.13,0,0,1,.06.09Zm.6-.71c-.1.14-.21.28-.05.45s.17-.06.25-.12-.08.09-.11.14a.2.2,0,0,0,0,.13h0l-.07,0c0-.07,0-.12-.13-.13h0c0-.11-.09-.2-.22-.21l-.07-.06c0-.06.06-.11.1-.09s.17,0,.2-.1.11-.09.19-.08S12.09,49.25,12.07,49.25Zm-7.54-.06h0c-.11,0-.2.08-.32.07l-.29,0a.42.42,0,0,0-.12,0,.33.33,0,0,0,0-.13.07.07,0,0,0,0-.06l.17,0H4l.19.08Zm2.24,0Zm4.73,0Zm-4.45,0s0,0,0,0l-.06,0,.06,0S7.05,49.09,7.05,49.11Zm5.79,0s-.06,0,0,0a.07.07,0,0,1,.08,0A.1.1,0,0,0,12.84,49.07Zm-7-.25a.11.11,0,0,1,0,.16l0,.05,0,0a.14.14,0,0,0-.08,0v0a.34.34,0,0,1,0-.17h0A.12.12,0,0,1,5.84,48.82Zm6.64,0h0ZM3.29,47.48c.15,0,.3-.13.44,0l-.1,0v0a.45.45,0,0,0-.36,0Zm5.15.15Zm3.1,0h.05s0,0,0,0Zm.78,0h0s0,0-.05,0h0l0,0h.05Zm-7.7.24a.29.29,0,0,0-.13-.08h0a.12.12,0,0,1,.08,0s0,0,0,.11h0ZM5,48l0,0H5a.34.34,0,0,1,.2,0A.2.2,0,0,0,5,48Zm.19,0,.08,0h0Zm6.83.08.09,0-.06.05A.12.12,0,0,0,12,48.07Zm-1.16.22h0Zm-4.42,0Zm1.38.1h0Zm3.81,0s.07-.09.13,0a.09.09,0,0,0-.08,0Zm-.06,0h0s0,0,0,0Zm-2,0Zm2.25.25a.22.22,0,0,0,0-.14s0,0,0,0A.18.18,0,0,1,11.86,48.76Zm1.45-1.32,0,0h0v0a3.46,3.46,0,0,0,0,.56.22.22,0,0,1,0,.08c-.06.05-.1.14-.18.17a.15.15,0,0,0-.06.1h0l-.12.19c-.09,0-.07-.11-.1-.17.14,0,.17-.14.2-.26h0l.1-.07s0,0,0,0,0,0,0,0l0-.6.08,0Zm-.55,0c0,.08,0,.16,0,.24,0-.08,0-.16,0-.25Zm-1.32.16Zm-7.32,0H4a.25.25,0,0,1,.05-.16s0,0,0-.06C4.38,47.34,4.08,47.51,4.12,47.58Zm-.67-.41-.15,0a.19.19,0,0,0-.1-.08A.32.32,0,0,1,3.45,47.17Zm2.13-.05h0Zm3.27,0ZM6.79,46.9Zm5.53.15ZM11.46,47h0l-.08.06,0,0a.14.14,0,0,0-.11,0,.23.23,0,0,0-.06-.16l.14,0A.22.22,0,0,0,11.46,47Zm-5.07-.14v0a0,0,0,0,1,0,0Zm1.25,0Zm0,0ZM6,46.73H6Zm-2-.16a.51.51,0,0,1,.27,0,.4.4,0,0,1-.21.09Zm.58-.13a.14.14,0,0,1,0,.18h0a.18.18,0,0,0-.12-.12l0,0a.15.15,0,0,0,.09,0v0Zm5.91-.26,0,.08h0s0,0-.07-.07l0-.08A.33.33,0,0,0,10.51,46.18Zm-5.92-.13-.07.05h0c-.07,0-.14,0-.2,0a.12.12,0,0,0,0-.08h0A.45.45,0,0,0,4.64,46Zm0-.28,0,0h0Zm9-.17h0v0ZM10,45.1ZM7.43,45s0,0,0,0v0ZM10.21,45Zm.49,0Zm1.75-.48h0Zm.84-.14h0Zm-9.45,0h0Zm3.45,0Zm1,0Zm-4.91,0h0Zm8.55,0Zm-4,0ZM5.1,41.89s0,0,0,0l0,0Zm-.22,0h0s0,0,0,0Zm1,0h0ZM2.2,42.4a.34.34,0,0,0,0-.1c.13-.11,0-.18,0-.28l.06,0c.07.12.22.18.24.34C2.37,42.34,2.28,42.29,2.2,42.4Zm9.4-.18,0,0h0Zm-8.11.06Zm-1.31.15h0Zm.38.26a.24.24,0,0,0-.05-.23l.08,0,.07.11a.41.41,0,0,0,0,.09.14.14,0,0,0-.14,0v0Zm3.85-.14Zm-3.21.71c-.05,0-.1-.1-.17-.08s0-.06,0-.06,0-.1-.09-.14a.14.14,0,0,0,0-.07l.31.33h0l0,.1Zm.31-.21Zm0,0h.06A.07.07,0,0,0,3.51,43.05Zm7.46.23h0s0,0,0,0Zm-7.62.22,0-.07a.12.12,0,0,0,.08.06l0,0h0Zm.2.21a.21.21,0,0,0,.17.09h0v0a.76.76,0,0,0-.2.06A.43.43,0,0,0,3.55,43.71ZM8.67,44a0,0,0,0,0,0,0,0,0,0,0,1,0,0S8.66,44,8.67,44Zm2.68-.07Zm0,0h0Zm1.51-.25.08.07s.06.18-.08.14a.35.35,0,0,0,0-.2Zm.19-.31h0v0Zm-.11-.4a.42.42,0,0,0,0,.27c0,.07,0,.13.11.15h0a1.51,1.51,0,0,0-.09.18h0a.43.43,0,0,1-.05-.25c0-.12,0-.25,0-.38l0,0Zm-.36-.34v0a.57.57,0,0,0,.08.34c.12.18,0,.22-.12.27s.07-.2-.06-.27v0c0-.09,0-.18,0-.27v-.06h.08Zm-.65-.9a.26.26,0,0,0,.07.15c.06.07.08.18.16.23h0a.58.58,0,0,0,.11.34.09.09,0,0,0,0,.05s0,.14,0,.14-.12-.07-.14-.14L12,42.3,11.91,42c-.06-.07,0-.17-.06-.25h0C11.87,41.68,11.9,41.71,11.93,41.72Zm-9.49-.25h0Zm3.65.06h0Zm3.82,0Zm.56,0h0v0Zm-8.57,0-.12-.1.11-.12c.09-.13,0-.21-.07-.3s-.07-.09-.12-.11,0-.11.07-.12,0,.08.06.09h0v0l.1.15v0l0,.07,0,0v.07s0,0,0,0a.22.22,0,0,0-.09.07A.2.2,0,0,0,1.9,41.47Zm1.93-.67ZM5.28,41h0Zm0,0h0Zm5.16.35Zm-.91.14h0Zm2-.35h0l.08.1v0a.2.2,0,0,0,.1.21s-.1-.06-.14,0l-.06-.1a0,0,0,0,0,0,0,.18.18,0,0,0-.13-.2s0,0,0,0Zm-.27-.4h0c0,.1-.15,0-.23.07l.06.13.08.19a.08.08,0,0,0,.08.06c0,.05.05.19-.08.15v0c.05-.13-.06-.14-.13-.18l0,0A.13.13,0,0,0,11,41a.14.14,0,0,0-.12-.11c.05-.06.05-.16.14-.19s.15-.09.22-.14S11.22,40.66,11.25,40.7Zm-9.92-.43h0Zm5.52.09Zm-.23.12Zm-3.34.08Zm6.7-.3a.16.16,0,0,0,0,.12l0,0v0h0c-.07-.11-.2-.16-.22-.31v0A.31.31,0,0,0,10,40.26Zm-6.46-.14a.06.06,0,0,1-.06,0ZM2,40H1.94A.13.13,0,0,1,2,40Zm5-.17ZM.62,39.61h0s0,0,0,0a.05.05,0,0,0,.07,0h0a.06.06,0,0,0,0,.06l0,0A.84.84,0,0,1,.62,39.61Zm7.93.13Zm-5.77-.07h0Zm-1-.05h0v0Zm7.7-.09Zm-4.79-.09h0Zm-3.65.38h0v0c0-.06-.06-.12-.14-.1s0-.23.08-.33A.59.59,0,0,1,1.07,39.82ZM2.16,39h0Zm6.67-.14s0,0,0,0Zm-.73,0h0Zm1.39-.1Zm-8.74.06h0s0,0,0,0,0,0,0,0v.17s0,0,0,0a.6.6,0,0,1-.11-.26h0l0,0c0-.05,0-.09,0-.14A.23.23,0,0,0,.75,38.82Zm1.1-.42Zm0,0h0Zm-.55-.11Zm1.75-.1Zm-2.62,0s0,.16-.11.06h0S.33,38,.43,38.18Zm6.09-.13h0Zm3-.49,0,0h0Zm-2.27-.11h0Zm1.77-.52L9,37H9l0,0a.16.16,0,0,0,.11-.05ZM.44,36.76a.86.86,0,0,1,.13.2c0,.06.06.12.13.14h0a.18.18,0,0,0,0,.12,1,1,0,0,0,0,.1.16.16,0,0,1-.12.15c0-.14-.09-.24-.12-.37h0a.28.28,0,0,0,0-.13.29.29,0,0,0,0-.09c-.06,0-.07-.09-.09-.16Zm-.27,0Zm.24,0a.14.14,0,0,0-.11-.11h0C.4,36.55.4,36.61.41,36.67Zm1.88-.33ZM.21,35.87h0Zm.42.34a.19.19,0,0,0,0-.13v0a.13.13,0,0,1,.07.06l0,0a.59.59,0,0,1,0,.08Zm9.54-.09h0ZM8.62,36a.86.86,0,0,1-.13.14A.21.21,0,0,0,8.56,36s0,0,0,0A.08.08,0,0,0,8.62,36Zm-7.7-.1a.14.14,0,0,0,0,.16h0l0,0s0-.09-.08-.11h0l0-.11H.93Zm-.39-.13s0,.1,0,.12v0s-.05,0-.07,0h0a.56.56,0,0,0,0-.12Zm8.39-.18h0Zm1.54,0Zm-2.55-.15ZM.74,35.36a.25.25,0,0,0,0,.15l.07,0h0v.05h0a.08.08,0,0,0-.09,0,.22.22,0,0,0,0-.16h0s.07,0,.06,0Zm10.56-.18Zm-4.72,0h0s0,0,0,0Zm4.67-.29ZM2.81,34.6h0Zm3.51-.34h0Zm-4.93-.11,0,.05c-.07.06,0,.12,0,.18a.13.13,0,0,1,0,.06.12.12,0,0,0-.05.05h0l0,0-.07,0-.13.2H1L1,34.76H1l0,0H.84v0a.34.34,0,0,0,0-.14.24.24,0,0,0,0-.14h0a.21.21,0,0,0,.11-.07c.06-.11.17-.1.27-.13a.52.52,0,0,0,.19-.14A.13.13,0,0,0,1.39,34.15Zm-.18-.42h0v0Zm6.13-.06h0Zm.71,0h0Zm2.5-.11Zm-1.34-.11h0Zm3.68-.85h0Zm-.35,0,.16.08,0,.06,0,0a1.29,1.29,0,0,0,0,.48h0v0a.32.32,0,0,0-.14,0V33c.06-.15,0-.3,0-.44h0v0Zm-8.37.24Zm6.92-.16a.56.56,0,0,1,.05.08h0A.28.28,0,0,1,11.09,32.68Zm-.56,0h0Zm-2.8-.09h0ZM2,32.57c-.1.1,0,.13,0,.19H2l-.21.14a1.12,1.12,0,0,0-.2.18h0a.87.87,0,0,0,.17-.21.66.66,0,0,0,.06-.2,0,0,0,0,1,0,0c.05,0,.07,0,.09-.09s.07-.18.09-.27,0,0,0,0a.08.08,0,0,0,.08,0l.05,0c.07,0,.14,0,.15-.08a.2.2,0,0,0,.11,0,.81.81,0,0,0-.1.18C2.15,32.37,2.08,32.5,2,32.57Zm9.63-.28h0Zm.37-.07Zm-1.08-.08h0ZM4.82,32ZM3,32.09l0,.06-.11,0-.06,0a.38.38,0,0,0,.09-.13.22.22,0,0,0,0-.08l0,0A.31.31,0,0,0,3,32.09ZM2.56,32s-.06.05-.09.09a.13.13,0,0,0,0-.12Zm10-.4s0,0,0,0,0,0,0,0a.07.07,0,0,0-.07.05h0l0-.11Zm-.82-.11h0Zm1.26-.35ZM11,31.1h0ZM4,31H4Zm3.81-.41h0Zm4.25-1.33a0,0,0,0,0,0,0,.19.19,0,0,0,0,.08S12.08,29.29,12.08,29.25Zm.45.14h0Zm-2.79.06h0Zm-5.12,0h0v0Zm7.31.06Zm.15.38h0s0,0,0,0Zm.76-.69a.16.16,0,0,0,.12.17.27.27,0,0,0-.09.24,1.37,1.37,0,0,0,0,.19.2.2,0,0,0,0,.11.33.33,0,0,1,0,.14.46.46,0,0,0,0,.26s0,0,0,0,0,0,0,0a.16.16,0,0,0-.14,0,.39.39,0,0,0,0-.3c-.09-.23-.1-.48-.18-.71,0,0,0,0,0,0a.17.17,0,0,0,.09-.11l0,0a.09.09,0,0,0,.06-.06s0,0,0,0h.05ZM2.17,26.46Zm.3.06h0Zm7,1.52a.43.43,0,0,0,0,.07C9.42,28.06,9.44,28,9.47,28Zm2.06.15h0Zm.06,0Zm-3,.06Zm-.42.33Zm-4.13,0a.27.27,0,0,0-.07.08s0-.07-.1-.06,0,0,0,0a.3.3,0,0,0-.05-.16.1.1,0,0,0,.09,0C3.93,28.53,4,28.57,4.08,28.59Zm8.2-.57,0,0a.17.17,0,0,0,0,.18h0c0,.06,0,.12.06.14a.12.12,0,0,0,.12-.06s0,.05,0,.08h-.07l-.13.05a1.93,1.93,0,0,1,0-.24.62.62,0,0,0,0-.13s0,0,0-.08h0a.36.36,0,0,0,0-.1A.5.5,0,0,0,12.28,28Zm-8.65-.23.07.11a.15.15,0,0,0-.05.06,1.42,1.42,0,0,0-.08-.18Zm8.67,0h0Zm-5.38-.1Zm-3-.17h0Zm5.64-.22h0Zm2.36-.12v0Zm-.13-.24-.07,0S11.72,26.88,11.75,26.9Zm-.41-.19v0h0Zm-6.74,0Zm5.51,0h0Zm1.32-.41a.22.22,0,0,0,0,.08s0,0,0-.06h0a.06.06,0,0,0,0,0l.05,0Zm-8.71,0c0,.25.25.38.32.61l.36.52v.07l.05,0,0,.12,0,.11a.38.38,0,0,0-.19-.14l0,0h0a.06.06,0,0,0,0-.07h0l-.35-.61c0-.08,0-.12-.07-.13a.62.62,0,0,0-.22-.26h0a.2.2,0,0,0,0-.17l0-.05C2.58,26.19,2.62,26.13,2.72,26.26Zm8.52-.1Zm.69,0ZM5,25.51Zm-2.35.1h0c-.1.05-.13,0-.15-.13C2.52,25.55,2.56,25.61,2.64,25.61ZM6,25.36H6Zm-3.55.11a.05.05,0,0,0-.06,0,.13.13,0,0,1,0-.12C2.42,25.37,2.47,25.41,2.48,25.47Zm.21-.25Zm-.24,0Zm5,0Zm0-.23h0ZM11,24.88h0Zm-.69-.69a.12.12,0,0,0,.1.06h0c0,.07,0,.12,0,.18h0c-.1-.06-.11-.17-.14-.27l-.1-.12,0,0ZM5.16,24Zm-2,0h0ZM9.7,23.8h0Zm-1.45,0ZM10,23.55h0a.22.22,0,0,0-.07.09l0,0s0,0,0,0a.49.49,0,0,0,0-.11A.28.28,0,0,0,10,23.55Zm-8.61,0a.81.81,0,0,1,0-.16A.3.3,0,0,1,1.36,23.58Zm.88-.29h0ZM4.53,23ZM1,23H1c0-.09.05-.16,0-.25.12.08.05.17,0,.26Zm7.24-.16-.06,0v-.05Zm-4,0h0Zm.49-.09h0Zm1.56-.08Zm2.43,0ZM6.22,22Zm-4.81-.25,0,.06c0,.07,0,.17,0,.23a.25.25,0,0,0,0-.12.18.18,0,0,1,0-.19S1.39,21.71,1.41,21.72Zm-.15-.49s0,.1-.08.09a.12.12,0,0,0,0-.1Zm6.07-.85Zm1.82-.29h0Zm-7.3-.17,0,.27,0,0a.41.41,0,0,0-.07.11v0c-.09,0-.14,0-.18.08a.17.17,0,0,0,0-.12.11.11,0,0,0,.1-.13s0,0,0-.05l0,0c0-.1.1-.11.13-.18Zm-.07-.34s0,0,0,0h0l-.05,0a0,0,0,0,1,0,0l-.08-.07h0a.36.36,0,0,0,.12-.08A.21.21,0,0,0,1.78,19.58ZM2,19.35l-.1.06a.13.13,0,0,0,0-.1Zm1.77-.18ZM5.12,19Zm5.58-.12Zm-8.79,0h0ZM8,18.51H8Zm4.07,0s0-.08,0-.12h0Zm-5.95-.13h0ZM12,18.36h0v0h0Zm-9.58-.05h0Zm10.25,0h0a.17.17,0,0,0,.08-.06Zm-6.38-.13h0ZM2.89,17h0Zm1,.45h0Zm8.05.17,0,0v0Zm.27.17h0Zm.8-.51,0,0a1.46,1.46,0,0,0-.16.39l-.1.17-.06,0a.29.29,0,0,0,0-.24l0,0,.09-.28h0a0,0,0,0,0,0,0l.09-.09ZM2.67,17.21h0l-.07.06a.37.37,0,0,1-.14.07A.42.42,0,0,0,2.62,17s0,0,0,0S2.62,17.16,2.67,17.21ZM10.73,17h0L10.68,17S10.71,17,10.73,17Zm-4.92-.35h0Zm2,.15h0Zm5.42.05h0l0-.06s0,0,0,0a.17.17,0,0,1,0-.12A.67.67,0,0,1,13.23,16.89Zm0-.55Zm-8.6-.11Zm-.33-.1h0Zm0-.06h0l0,0Zm8.11-.29h0v0h0Zm-1.89-.34Zm-4.91,0Zm7.52-.19h.07a.19.19,0,0,0,0,.13h-.08v-.14ZM9.29,15h0s0,0,0,0Zm-2,.07V15S7.35,15,7.32,15.08Zm1.17-.17h0Zm-3.8-.08s0,0,0,0,0,0,0,0Zm.34-1Zm.12,0Zm7.76.17h0Zm0,0h0Zm-.42.66h0Zm0,0h0Zm-.5,0Zm1.56-.89h0l0,0A.11.11,0,0,0,13.58,13.87Zm-.17,0h.05a.21.21,0,0,0,.07.14s0,0,0,.07a.87.87,0,0,0,0,.53l0,0a.11.11,0,0,0-.07.11.71.71,0,0,0-.15-.3l-.07,0a2.35,2.35,0,0,1,0-.75A.56.56,0,0,0,13.41,13.91ZM4.6,13.63h0Zm.72-.46h0l0,0a.05.05,0,0,1,0,.05Zm6.31-.05h0Zm1.48-.23s0,0,0,0l0,0ZM10.44,12Zm2.5.15v0c-.07.09-.08-.06-.12-.1l0,0a.15.15,0,0,0,0-.09l0,0A1.89,1.89,0,0,1,12.94,12.19Zm-6.38-.71Zm.67,0a.09.09,0,0,0-.06-.06h0Zm-.67,0h0Zm.91-.15Zm-2-.12h0s0,0,0,0Zm2.31-.08h0Zm4.46,0s0,0,0,0l0,0Zm-2.67-.26Zm1.62.1h0l-.06,0a.64.64,0,0,0-.05-.23C11.07,10.81,11.07,10.9,11.14,10.94Zm.26-.27Zm-3,0h0Zm-.67-.31h0Zm-2.79-.2Zm4-1.07v0s0,0,0,0Zm0-.1,0,0s0,0,0,0A.14.14,0,0,0,8.92,9ZM5.54,8.8ZM4.38,8.32h0Zm0,0Zm7-.08ZM8.87,8.16h0Zm1.51-.46Zm1.15,0h0ZM12,7.57h0Zm-.26-.5ZM4.12,6.93h0l-.06.16s0,0,0,0V7a1.12,1.12,0,0,1,0-.13Zm6.59-.41h0l0,0Zm-5.4,0h0Zm1-.11Zm-2.59,0Zm6.71-.14ZM11.67,6h0ZM6,5.91H6s0,0,0,0Zm.23-.14Zm4.62-.17v0h0v0h0ZM7,5.57v0l0,0Zm-2.58,0h0c-.12,0-.08.18-.15.24a.05.05,0,0,1,0,0,1.71,1.71,0,0,0,.09-.3A.18.18,0,0,0,4.44,5.6Zm4.68-.1h0ZM4,5.34h0l0,0Zm.27,0h0v0Zm.7,0a.07.07,0,0,0,0,0H5A.08.08,0,0,1,5,5.35Zm1.38-.1ZM7,5.11H7ZM10.75,5h0ZM10,5h0V5Zm1.46-.93h0v0h0Zm-.11.21,0,0a.18.18,0,0,0,.11-.1,1.17,1.17,0,0,0,0,.2S11.38,4.29,11.36,4.27Zm.33.4Zm-.32-.23,0,0a.78.78,0,0,0-.09.21Zm-5.06.31h0Zm2.81-.63h0ZM9.94,4Zm0,0h0ZM4.49,4h0Zm5.63-1.18v0h0Zm.6.34h0a.15.15,0,0,0,.06,0,1,1,0,0,1-.06.16Zm-6.19.76a.4.4,0,0,1-.21-.09v0s0,0,0,0a.17.17,0,0,0,.14,0s0,0,0,0a.15.15,0,0,0,.09.13l0,.06Zm2.37-.1h0A.24.24,0,0,0,7,3.66H7Zm3.23-.25a.27.27,0,0,0,.07-.08A.07.07,0,0,1,10.13,3.53Zm-.32-.14.1-.05a.2.2,0,0,0,0,.15l-.08.07a.17.17,0,0,0,0-.16Zm-.69.15s.05-.06.07-.09,0-.05.06,0a.3.3,0,0,0-.11.26S9.13,3.58,9.12,3.54Zm-3.22,0a.43.43,0,0,1,0,.07.59.59,0,0,0,0-.13h0S5.89,3.57,5.9,3.59Zm-.65,0ZM5,3.5c0,.11,0,.21,0,.31l-.07.06h0l0-.06s0,0,.05-.05a.16.16,0,0,0,0-.12A.52.52,0,0,0,5,3.45c.06-.18.11-.36.16-.54h0a.11.11,0,0,0,0,.05A2.07,2.07,0,0,1,5,3.5Zm2.11-.07h0Zm.42,0h0Zm.52,0v0H8s0,0,0,0ZM7.74,3.3Zm.4,0H8.08l0,0Zm-.41-.82Zm-.5-.05h0Zm.91,0h0v0h0l0-.07a.14.14,0,0,0,0,.07h0Z"/><path class="cls-1" d="M2.26,47.92c-.1,0-.2,0-.22.09s.07.13.16.15.43.21.67.09C2.76,48,2.49,48,2.26,47.92Z"/><polygon class="cls-1" points="12.48 7.02 12.48 7.02 12.49 7.02 12.48 7.02"/><path class="cls-1" d="M4.11,52h0c0,.08-.08.17.06.19s.45,0,.66-.09C4.61,51.89,4.35,52,4.11,52Z"/><path class="cls-1" d="M3.29,45.46a1,1,0,0,0-.37.08c-.1.06,0,.08,0,.12a.75.75,0,0,0,.42,0C3.48,45.54,3.52,45.45,3.29,45.46Z"/><polygon class="cls-1" points="12.54 49.82 12.54 49.83 12.54 49.83 12.54 49.82"/><path class="cls-1" d="M2.46,48.63c.18-.13.41,0,.59-.13C2.74,48.32,2.52,48.37,2.46,48.63Z"/><path class="cls-1" d="M3.8,50.65l-.16-.09c-.18,0-.38,0-.53.13s0,.08.07.11h0l0,.06c0,.32.23.17.38.12s0-.17-.11-.23l0,0h0C3.54,50.64,3.67,50.71,3.8,50.65Z"/><path class="cls-1" d="M5.26,52.53H5.14c-.09,0-.33,0-.1.22a.25.25,0,0,0,.22.07C5.34,52.72,5.43,52.62,5.26,52.53Z"/><path class="cls-1" d="M3,50.69a.31.31,0,0,0-.43,0v.06l.18.08.18-.06C3,50.79,3,50.75,3,50.69Z"/><path class="cls-1" d="M2.84,49c.05-.13,0-.15-.14-.18h0a.44.44,0,0,0-.3,0l-.11,0s0,0,0,0,0,0,0,0c.14.2.35.14.55.13Z"/><path class="cls-1" d="M6.29,52.44H6.23l-.06,0,0,0a.24.24,0,0,0,0-.23.15.15,0,0,0-.13,0,.12.12,0,0,0-.09,0c-.12,0-.28,0-.34.14a.5.5,0,0,0,.29.07l.14,0a1.18,1.18,0,0,0-.2,0H5.76a.12.12,0,0,0-.08,0l0,.06c0,.08-.08.17,0,.25h.06c.08,0,.13,0,.19,0l0,0H6s0,0,0,.06h.22c.06,0,.12,0,.13-.12Z"/><path class="cls-1" d="M3.63,45.84c0,.06,0,.1,0,.11s.22,0,.3-.08C3.89,45.6,3.74,45.91,3.63,45.84Z"/><path class="cls-1" d="M8.38,4.37c0,.07,0,.17.11.16l.07-.16s0,0,0,0,0,0,0,0v0c0-.11-.05-.11-.12-.06Z"/><path class="cls-1" d="M11.87,21.64l.24-.24c0-.1-.12,0-.18,0S11.73,21.51,11.87,21.64Z"/><path class="cls-1" d="M10.28,51.71c.05.08.07.18.17.22l.07-.07-.06-.17C10.38,51.55,10.33,51.64,10.28,51.71Z"/><path class="cls-1" d="M3.1,11.2s0-.15-.09-.07-.1.2.05.26S3,11.25,3.1,11.2Z"/><path class="cls-1" d="M10.93,4.43l.11.06h0c.06-.07,0-.15,0-.22A.11.11,0,0,0,11,4.2C10.89,4.26,11,4.35,10.93,4.43Z"/><path class="cls-1" d="M8.6,52.26a.12.12,0,0,0-.06.13.17.17,0,0,0,.22-.11Z"/><path class="cls-1" d="M3.47,48.42c0-.07,0-.12-.1-.1s0,.07,0,.11Z"/><path class="cls-1" d="M11.74,36.52l.06-.13-.07-.09C11.73,36.38,11.6,36.46,11.74,36.52Z"/><path class="cls-1" d="M3.33,46.68a.24.24,0,0,0-.19-.1h0c.11,0,.25,0,.37-.08h.12c.08.17-.08.21-.2.31.17,0,.33.05.43-.1s0-.2-.11-.28-.05-.17-.17-.16H3.5c-.14,0-.29-.15-.44.06s-.25-.13-.41-.11-.17,0-.12.13a.06.06,0,0,1,0,.06.1.1,0,0,0,0,.13l.09.11a.11.11,0,0,0,0,.08h0v.09l.36.07C3.13,46.82,3.29,46.84,3.33,46.68Z"/><path class="cls-1" d="M4.52,5.65c.05,0,.14,0,.14-.05s0-.15-.12-.13,0,.08,0,.13A.11.11,0,0,1,4.52,5.65Z"/><path class="cls-1" d="M5.11,51.93c-.08,0-.17,0-.23,0C5,52.09,5.06,52.05,5.11,51.93Z"/><path class="cls-1" d="M10.92,51.08h-.15c0,.06,0,.13,0,.14S10.94,51.17,10.92,51.08Z"/><path class="cls-1" d="M9.49,51.77c0-.09,0-.12-.12-.12s-.34-.1-.44.12l.09.12.24,0Z"/><polygon class="cls-1" points="10.53 33.8 10.53 33.8 10.53 33.8 10.53 33.8 10.53 33.8"/><polygon class="cls-1" points="10.97 43.8 10.97 43.8 10.97 43.8 10.97 43.8 10.97 43.8"/></g></g></svg>