<?xml version="1.0" encoding="UTF-8" standalone="no"?>
<!DOCTYPE svg PUBLIC "-//W3C//DTD SVG 1.1//EN" "http://www.w3.org/Graphics/SVG/1.1/DTD/svg11.dtd">
<svg xmlns="http://www.w3.org/2000/svg" version="1.1" viewBox="0 0 634 424">
<path fill="#000000" d="
  M 255.31 79.70
  Q 281.41 82.57 307.50 85.50
  Q 312.05 86.01 316.03 88.49
  Q 319.84 90.87 322.77 94.25
  Q 328.85 101.24 327.75 111.75
  Q 325.60 132.38 323.66 146.85
  Q 321.89 160.05 321.17 166.69
  Q 318.24 193.47 315.25 220.25
  Q 314.50 226.97 313.82 230.51
  Q 311.28 243.79 296.94 248.42
  Q 295.21 248.98 295.34 250.79
  Q 295.53 253.34 295.04 256.46
  Q 294.60 259.29 293.26 261.80
  Q 287.52 272.52 276.63 275.18
  Q 273.26 276.00 256.81 276.00
  Q 187.59 276.00 118.38 276.00
  Q 109.13 276.00 104.78 274.56
  Q 94.15 271.05 90.70 260.48
  Q 89.28 256.12 89.24 245.86
  Q 89.21 238.24 89.11 230.61
  Q 89.01 222.36 89.07 215.38
  Q 89.37 177.60 89.27 139.82
  Q 89.25 132.94 90.50 128.83
  Q 96.42 109.41 119.53 111.25
  A 1.51 1.50 5.5 0 0 121.15 109.92
  Q 122.46 97.98 124.00 87.00
  Q 125.44 76.68 134.13 71.03
  Q 138.56 68.15 141.85 67.07
  Q 146.10 65.67 150.80 66.75
  Q 158.93 68.61 167.24 69.37
  Q 182.09 70.73 196.86 72.79
  Q 210.03 74.63 216.68 75.38
  Q 235.99 77.58 255.31 79.70
  Z
  M 245.38 90.02
  Q 200.12 84.73 154.82 79.73
  Q 154.71 79.72 150.71 79.11
  Q 141.36 77.70 137.43 84.26
  Q 135.59 87.33 134.57 96.63
  Q 133.85 103.20 133.11 109.36
  A 1.69 1.68 -86.5 0 0 134.78 111.25
  Q 197.40 111.25 258.94 111.25
  Q 272.41 111.25 275.02 111.80
  Q 283.33 113.55 289.43 120.34
  Q 295.16 126.72 295.25 135.00
  Q 295.81 185.47 295.33 234.51
  Q 295.29 238.08 298.05 235.82
  Q 301.14 233.30 302.20 229.75
  Q 302.44 228.96 303.16 222.72
  Q 309.33 169.07 315.37 115.39
  Q 316.28 107.23 315.26 104.16
  Q 313.14 97.80 305.00 96.75
  Q 290.13 94.83 265.27 92.22
  Q 254.50 91.09 245.38 90.02
  Z
  M 246.56 122.85
  Q 183.26 122.79 119.95 122.75
  Q 111.79 122.75 111.08 122.87
  Q 105.85 123.74 103.41 128.36
  Q 102.01 131.02 101.96 136.39
  Q 101.58 174.55 101.75 212.71
  Q 101.75 213.29 101.63 214.79
  Q 101.35 218.31 103.69 216.19
  Q 104.77 215.20 105.30 214.83
  Q 114.68 208.26 123.75 201.27
  Q 138.53 189.88 142.81 187.81
  Q 157.51 180.74 170.75 190.00
  Q 175.49 193.31 187.81 205.44
  Q 190.00 207.59 197.79 213.87
  Q 197.87 213.93 202.19 217.66
  Q 205.85 220.82 208.81 221.69
  Q 214.27 223.28 219.06 220.81
  Q 232.18 214.07 245.81 205.82
  Q 260.29 197.06 262.95 195.52
  Q 272.54 189.97 282.01 184.68
  A 2.82 2.81 -14.8 0 0 283.44 182.23
  Q 283.36 159.72 283.27 137.77
  Q 283.25 132.69 281.93 129.98
  Q 278.27 122.46 268.25 122.75
  Q 264.30 122.86 246.56 122.85
  Z
  M 205.42 232.38
  Q 199.61 230.30 194.66 226.62
  Q 193.91 226.06 185.50 218.72
  Q 175.25 209.75 165.14 200.61
  Q 155.08 191.50 144.71 200.24
  Q 141.08 203.30 136.19 206.69
  Q 121.23 217.05 103.31 230.56
  Q 101.49 231.94 101.61 234.25
  Q 101.72 236.23 101.72 236.26
  Q 101.48 245.21 102.06 254.13
  Q 102.27 257.33 103.37 259.12
  Q 104.84 261.53 107.28 262.79
  Q 109.51 263.94 114.54 263.94
  Q 192.27 264.04 270.00 263.92
  Q 275.60 263.91 279.19 261.19
  Q 283.66 257.79 283.40 251.83
  Q 283.26 248.75 283.26 248.67
  Q 283.43 223.33 283.25 197.99
  Q 283.24 197.20 282.57 197.61
  Q 255.85 213.78 228.29 228.89
  Q 228.17 228.96 225.88 230.29
  Q 221.39 232.90 216.41 233.66
  Q 211.19 234.46 205.42 232.38
  Z"
/>
<path fill="#000000" d="
  M 461.44 137.04
  L 449.45 137.16
  A 0.60 0.53 -86.4 0 0 448.92 137.69
  L 448.28 143.45
  A 0.68 0.62 -0.3 0 1 447.69 144.00
  Q 443.02 144.51 436.78 143.81
  A 1.39 1.38 3.1 0 1 435.55 142.45
  L 435.50 124.18
  A 0.69 0.68 -0.0 0 1 436.19 123.50
  L 501.52 123.50
  A 1.48 1.45 0.4 0 1 503.00 124.97
  L 502.82 143.17
  A 0.84 0.82 -90.0 0 1 502.01 144.00
  L 491.23 144.11
  Q 488.73 144.13 489.46 141.64
  Q 490.04 139.65 489.58 137.80
  A 0.70 0.65 83.0 0 0 488.95 137.27
  L 476.63 137.03
  A 0.91 0.87 -89.7 0 0 475.75 137.94
  L 475.75 203.76
  A 0.99 0.99 0.0 0 0 476.74 204.75
  L 488.03 204.75
  A 1.72 1.72 0.4 0 1 489.75 206.47
  L 489.75 216.35
  A 1.84 1.84 -0.2 0 1 487.92 218.19
  L 449.72 218.25
  A 0.98 0.96 0.0 0 1 448.74 217.29
  L 448.77 205.79
  A 1.00 0.99 -0.3 0 1 449.76 204.80
  L 461.03 204.75
  A 1.47 1.45 -0.0 0 0 462.50 203.30
  Q 462.50 175.50 462.50 148.00
  Q 462.50 141.34 462.00 137.55
  A 0.58 0.56 86.6 0 0 461.44 137.04
  Z"
/>
<path fill="#000000" d="
  M 234.8597 165.1219
  A 24.46 23.94 -0.3 0 1 210.5253 189.1897
  A 24.46 23.94 -0.3 0 1 185.9403 165.3781
  A 24.46 23.94 -0.3 0 1 210.2747 141.3103
  A 24.46 23.94 -0.3 0 1 234.8597 165.1219
  Z
  M 210.3711 177.9397
  A 12.74 12.41 90.4 0 0 222.8697 165.2866
  A 12.74 12.41 90.4 0 0 210.5489 152.4603
  A 12.74 12.41 90.4 0 0 198.0503 165.1134
  A 12.74 12.41 90.4 0 0 210.3711 177.9397
  Z"
/>
<path fill="#000000" d="
  M 523.50 171.81
  Q 523.26 173.78 523.36 175.75
  Q 523.52 179.22 523.52 179.25
  Q 523.61 191.04 523.23 203.33
  A 1.17 1.08 -86.8 0 0 524.21 204.52
  L 529.29 205.00
  A 0.80 0.68 0.9 0 1 530.01 205.63
  Q 530.56 211.60 529.99 217.07
  A 1.32 1.31 -86.9 0 1 528.67 218.26
  L 504.07 218.05
  A 1.03 1.01 0.0 0 1 503.05 217.05
  L 503.01 206.25
  Q 503.00 204.08 505.13 204.60
  Q 509.89 205.77 509.63 201.93
  Q 509.50 200.15 509.50 200.06
  Q 509.50 186.40 509.50 172.46
  A 1.18 1.11 90.0 0 0 508.39 171.28
  L 504.35 171.28
  A 1.60 1.56 83.8 0 0 502.83 173.22
  Q 503.88 178.08 500.37 177.91
  Q 498.28 177.80 498.12 177.81
  Q 494.13 177.97 490.18 177.39
  A 0.60 0.57 4.7 0 1 489.67 176.82
  L 489.51 158.43
  A 0.95 0.92 -0.3 0 1 490.46 157.50
  L 542.94 157.32
  A 0.55 0.55 -2.9 0 1 543.49 157.81
  Q 544.54 167.44 543.61 177.07
  A 0.58 0.55 -87.1 0 1 543.06 177.59
  L 531.28 177.71
  A 1.11 0.97 85.8 0 1 530.29 176.73
  L 529.68 171.67
  A 0.60 0.55 -4.3 0 0 529.07 171.19
  L 524.06 171.29
  A 0.59 0.57 -87.1 0 0 523.50 171.81
  Z"
/>
<path fill="#000000" d="
  M 396.06 198.56
  L 395.77 219.24
  A 1.30 1.10 72.1 0 1 395.41 220.11
  Q 394.05 221.37 392.66 220.05
  A 1.24 1.09 -70.9 0 1 392.31 219.19
  L 392.25 198.91
  A 1.01 1.01 -87.5 0 0 391.33 197.90
  Q 385.91 197.44 380.00 197.67
  Q 375.15 197.87 370.31 197.48
  A 1.01 0.93 -11.9 0 1 369.54 197.02
  Q 368.36 195.04 370.13 194.30
  Q 370.82 194.01 372.41 193.96
  Q 381.11 193.66 390.40 194.03
  Q 392.48 194.11 392.46 191.94
  L 392.30 172.81
  A 0.70 0.67 -9.9 0 1 392.78 172.15
  Q 396.40 171.01 396.12 174.57
  Q 395.99 176.33 395.98 176.42
  Q 395.85 184.67 395.99 192.24
  A 1.63 1.55 0.4 0 0 397.58 193.77
  L 416.76 194.21
  A 1.42 1.31 65.7 0 1 417.63 194.58
  Q 419.43 196.27 417.69 197.26
  Q 416.94 197.69 415.60 197.65
  Q 406.07 197.37 396.56 198.03
  A 0.54 0.53 88.9 0 0 396.06 198.56
  Z"
/>
<path fill="#000000" d="
  M 426.87 272.27
  L 426.40 275.19
  Q 426.27 276.01 426.20 276.13
  Q 423.53 280.96 418.64 279.70
  Q 416.10 279.05 414.98 277.41
  Q 413.82 275.72 413.71 272.95
  Q 413.62 271.02 411.70 271.26
  Q 409.23 271.56 407.59 270.20
  Q 406.25 269.09 405.71 266.79
  Q 404.42 261.27 409.86 259.07
  Q 409.95 259.04 411.69 258.64
  Q 413.81 258.16 414.00 255.50
  Q 414.17 253.07 415.97 251.70
  Q 417.38 250.63 419.76 250.51
  Q 426.47 250.17 426.77 257.01
  A 1.58 1.58 -86.3 0 0 428.07 258.49
  Q 431.96 259.19 433.74 261.37
  Q 435.54 263.59 434.67 266.92
  Q 433.42 271.62 427.55 271.81
  A 0.73 0.53 1.9 0 0 426.87 272.27
  Z
  M 424.14 262.31
  A 1.45 1.45 -79.0 0 1 423.11 261.28
  L 421.59 255.45
  A 1.45 1.45 -38.7 0 0 418.79 255.46
  L 417.29 261.28
  A 1.45 1.45 89.5 0 1 416.26 262.32
  L 410.43 263.83
  A 1.45 1.45 45.6 0 0 410.44 266.63
  L 416.26 268.13
  A 1.45 1.45 -89.7 0 1 417.30 269.17
  L 418.81 274.99
  A 1.45 1.45 -44.4 0 0 421.61 274.99
  L 423.11 269.16
  A 1.45 1.45 -0.5 0 1 424.15 268.12
  L 429.97 266.61
  A 1.45 1.45 45.6 0 0 429.97 263.81
  L 424.14 262.31
  Z"
/>
<path fill="#000000" d="
  M 339.81 344.20
  A 1.31 1.31 89.8 0 0 341.12 345.50
  L 411.47 345.56
  Q 413.68 345.57 413.69 343.36
  Q 413.80 318.16 413.75 292.25
  Q 413.74 288.30 416.21 286.36
  Q 418.49 284.57 421.73 285.29
  Q 426.75 286.40 426.75 292.75
  Q 426.75 316.18 426.75 339.62
  Q 426.75 348.59 426.26 350.35
  Q 425.00 354.92 420.68 357.53
  Q 418.68 358.75 415.53 358.79
  Q 377.39 359.29 339.25 358.79
  Q 335.28 358.74 333.02 357.45
  Q 327.31 354.17 327.25 346.75
  Q 327.00 314.67 327.46 270.62
  Q 327.51 265.94 328.88 263.66
  Q 330.60 260.81 333.76 259.55
  Q 335.75 258.75 339.84 258.75
  Q 365.54 258.75 391.24 258.75
  Q 395.74 258.75 397.56 259.84
  Q 400.87 261.84 400.19 266.69
  Q 399.82 269.32 397.19 270.94
  Q 395.48 271.98 391.77 271.86
  Q 388.27 271.75 388.22 271.75
  Q 365.08 271.75 341.23 271.75
  A 1.56 1.50 -89.6 0 0 339.73 273.29
  L 339.53 288.99
  A 1.25 1.21 69.4 0 1 339.15 289.86
  Q 337.46 291.41 336.04 289.65
  A 1.71 1.31 -72.1 0 1 335.72 288.75
  Q 335.19 279.22 335.69 269.67
  Q 335.79 267.75 337.71 267.75
  L 393.06 267.75
  A 3.28 3.28 24.3 0 0 395.23 266.93
  Q 397.43 264.98 395.17 263.63
  Q 394.22 263.06 392.57 263.05
  Q 365.83 262.92 339.10 263.05
  Q 335.61 263.07 333.86 264.38
  Q 331.24 266.34 331.25 269.75
  Q 331.43 328.31 331.25 341.50
  Q 331.20 345.41 331.56 348.13
  Q 331.97 351.23 333.96 352.46
  Q 336.02 353.75 339.25 353.75
  Q 376.33 353.76 413.40 353.75
  Q 418.05 353.75 419.88 352.61
  Q 422.81 350.79 422.61 346.63
  Q 422.50 344.46 422.50 344.37
  Q 422.50 319.16 422.50 293.96
  Q 422.50 291.92 422.32 291.06
  Q 421.64 287.81 418.80 290.16
  A 2.92 2.90 70.3 0 0 417.75 292.40
  L 417.69 347.69
  A 1.64 1.35 67.6 0 1 417.41 348.60
  Q 415.97 350.51 413.50 350.34
  Q 412.10 350.25 411.98 350.25
  Q 375.74 350.25 339.50 350.33
  Q 335.20 350.34 335.42 346.31
  Q 335.50 344.76 335.50 344.69
  Q 335.49 325.84 335.99 307.00
  A 0.90 0.86 76.9 0 1 336.44 306.24
  Q 338.65 305.03 339.44 307.00
  Q 339.75 307.79 339.75 309.54
  Q 339.70 327.21 339.81 344.20
  Z"
/>
<path fill="#000000" d="
  M 364.21 296.02
  Q 361.89 294.65 361.42 291.97
  Q 360.65 287.51 363.51 285.59
  Q 365.15 284.50 369.21 284.50
  Q 374.50 284.50 379.78 284.50
  Q 383.02 284.50 384.57 285.31
  Q 387.12 286.66 387.61 289.58
  Q 387.93 291.49 386.52 293.98
  Q 384.95 296.77 383.57 299.33
  A 1.56 1.55 -61.5 0 0 384.19 301.43
  Q 391.11 305.19 392.66 311.85
  Q 394.09 318.04 390.94 323.82
  Q 387.82 329.56 380.95 332.12
  Q 374.40 334.56 368.22 331.24
  Q 362.30 328.06 361.00 322.50
  Q 360.41 319.98 361.98 318.02
  Q 363.37 316.29 365.55 315.75
  Q 369.04 314.88 372.06 318.19
  Q 375.51 321.96 378.35 319.28
  Q 380.45 317.30 379.74 314.55
  Q 378.91 311.36 375.02 311.38
  Q 372.02 311.40 371.98 311.40
  Q 365.77 310.64 366.11 304.49
  Q 366.21 302.81 367.12 301.34
  Q 368.00 299.90 369.20 298.67
  Q 370.63 297.21 368.58 297.26
  Q 366.41 297.32 364.21 296.02
  Z
  M 377.69 301.53
  Q 379.78 296.36 382.67 292.08
  Q 385.09 288.50 380.77 288.50
  L 367.10 288.50
  A 1.53 1.52 -78.2 0 0 365.70 289.42
  Q 364.11 293.06 368.26 292.57
  Q 371.79 292.15 373.47 292.60
  Q 377.08 293.57 375.09 296.81
  L 370.39 304.48
  Q 369.15 306.51 371.54 306.94
  Q 373.64 307.31 375.75 307.36
  Q 380.64 307.47 383.19 311.56
  Q 384.98 314.44 384.09 317.72
  Q 383.34 320.50 380.79 322.47
  Q 375.11 326.83 369.06 321.19
  Q 365.54 317.90 365.27 322.24
  A 1.40 1.35 29.0 0 0 365.55 323.15
  Q 371.58 330.97 380.44 327.44
  Q 386.29 325.10 388.26 319.00
  Q 389.34 315.66 388.23 312.50
  Q 387.09 309.22 384.54 306.79
  Q 383.75 306.05 381.14 304.72
  Q 379.31 303.80 377.84 302.35
  A 0.77 0.71 -57.3 0 1 377.69 301.53
  Z"
/>
<ellipse fill="#000000" cx="0.00" cy="0.00" transform="translate(337.70,298.13) rotate(88.9)" rx="2.25" ry="1.96"/>
</svg>
