<svg id="Calque_1" data-name="Calque 1" xmlns="http://www.w3.org/2000/svg" viewBox="0 0 1134.41 252.91"><defs><style>.cls-1{fill:#fff;}</style></defs><path class="cls-1" d="M320.69,115.76v41H311a53.61,53.61,0,0,0-3-8.81q-9.75,10-24.85,10-17.85,0-27.76-10.72t-9.92-27.75q0-18.3,10.58-29.42T284.7,78.92q15.23,0,24.58,7.18a29.7,29.7,0,0,1,11.41,19.15L300.4,107.5q-2.47-13.92-15.7-13.93-8.67,0-13.12,6.6T267.14,119q0,11.8,4.81,18t13.69,6.23a17.46,17.46,0,0,0,10.25-3.14q4.5-3.15,4.51-10H283.24V115.76Z"/><path class="cls-1" d="M352.18,141.59h36.26v15.16H330.55V80.1h21.63Z"/><path class="cls-1" d="M425.3,157.93q-18.42,0-28.49-11.62t-10.07-28.14q0-16.78,10.21-28T426,78.92q19.08,0,28.79,12a42.37,42.37,0,0,1,9.71,27.43q0,16.68-10,28.13T425.3,157.93Zm.6-64.36q-16.8,0-16.79,24.83t16.79,24.87q16.26,0,16.26-24.82T425.9,93.57Z"/><path class="cls-1" d="M471.51,80.1H514q11.43,0,17.17,2.35a24.52,24.52,0,0,1,9.48,6.74,15.85,15.85,0,0,1,3.74,10.66q0,12.74-16.43,17,9.48,1.8,14.22,7.14a17.19,17.19,0,0,1,4.74,11.63q0,8.59-7.74,14.87T514,156.75H471.51Zm21.3,13.53v16.79H509q8.88,0,11.18-3a9.24,9.24,0,0,0,2.3-5.64,7.25,7.25,0,0,0-1.9-5,8.23,8.23,0,0,0-4.17-2.64,48.28,48.28,0,0,0-8.95-.53Zm0,30.44v18.47H509.2q8.4,0,11.86-2.47a8.22,8.22,0,0,0,.13-13.31q-3.33-2.69-11.06-2.69Z"/><path class="cls-1" d="M618.71,94.7h-43.4v15.72h34.12v14.43H575.31v16.74h43.4v15.16h-65.1V80.1h65.1Z"/><path class="cls-1" d="M692.15,156.75l-22.49-62.5v62.5H651.77V80.1H685L701,126,717.84,80.1h33.35v76.65h-21.5V94.25l-22.93,62.5Z"/><path class="cls-1" d="M807.16,80.1l28.53,76.65H812.75L807.13,141H777.66L772,156.75H753.23L782.45,80.1Zm-24.37,46.72H802.1l-9.57-26.9Z"/><path class="cls-1" d="M860,126.37v30.38H838.53V80.1H878.6q11.08,0,17.79,2.16a22.26,22.26,0,0,1,11.12,7.94,20.68,20.68,0,0,1,4.41,12.85q0,13.8-15.83,19.81l16.83,33.89H889.33l-14-30.38Zm0-32.63v19.55h13.08a41,41,0,0,0,9.32-.76,10.3,10.3,0,0,0,5.17-3.37,8.88,8.88,0,0,0,2.27-6,8.34,8.34,0,0,0-2.27-5.73,9.42,9.42,0,0,0-4.94-3.12,55.57,55.57,0,0,0-10-.59Z"/><path class="cls-1" d="M942.74,80.1v76.65h-21.3V80.1Z"/><path class="cls-1" d="M1024.17,80.1v76.65H1006L970.28,105c.05,1.32.09,2.18.14,2.59a26.53,26.53,0,0,1,.26,3.31v45.88H954.06V80.1h23l31,45.2a46.73,46.73,0,0,1-.41-5.11V80.1Z"/><path class="cls-1" d="M1100.59,94.7h-43.4v15.72h34.12v14.43h-34.12v16.74h43.4v15.16h-65.1V80.1h65.1Z"/><path class="cls-1" d="M74.48,157.6v49.18H57.84V102.62H74.31c-.43,23.18,8,42.22,26.84,56a62,62,0,0,0,42.35,12c28.19-2.08,60.11-25.83,59.27-68h17.49v104H202.7V158.81C185,178.76,164,189.12,138.49,188.92,112.87,188.71,91.91,178.05,74.48,157.6Z"/><path class="cls-1" d="M193.51,85.51c-5.49,0-10.5.4-15.4-.19-2-.25-4.16-2.32-5.57-4.09-19.84-24.85-61.41-19.77-74.09,9.34C92.62,104,94,117.13,102.71,128.91c10,13.58,24,19.36,40.65,17.53,15-1.65,26.55-9.19,33.77-22.75.76-1.42,1.28-3,2.2-5.13H144.87V102.92h52.31c5.2,26.13-18.35,57.27-47.47,62.88-31.67,6.1-63.31-15-69.49-46.23C73.46,85.3,93.88,53.71,127.46,47.22S187.9,64.36,193.51,85.51Z"/></svg>