<svg id="Calque_1" data-name="Calque 1" xmlns="http://www.w3.org/2000/svg" viewBox="0 0 203.01 200.8"><defs><style>.cls-1{fill:#fff;}</style></defs><path class="cls-1" d="M36.94,131.55v49.17H20.3V76.56H36.77c-.43,23.19,8,42.22,26.84,56a62,62,0,0,0,42.34,12c28.2-2.07,60.12-25.83,59.28-68h17.49v104H165.16V132.75c-17.71,20-38.75,30.31-64.21,30.11C75.32,162.65,54.37,152,36.94,131.55Z"/><path class="cls-1" d="M156,59.45c-5.49,0-10.5.4-15.4-.19-2-.24-4.16-2.32-5.57-4.09-19.84-24.85-61.42-19.76-74.09,9.34-5.83,13.38-4.42,26.57,4.26,38.34,10,13.59,24,19.37,40.65,17.53,15-1.65,26.55-9.19,33.77-22.75.76-1.42,1.28-3,2.2-5.13H107.33V76.86h52.31c5.2,26.13-18.35,57.27-47.47,62.88-31.67,6.11-63.31-15-69.49-46.22C35.92,59.25,56.34,27.65,89.92,21.17S150.36,38.31,156,59.45Z"/></svg>