<svg id="Calque_1" data-name="Calque 1" xmlns="http://www.w3.org/2000/svg" viewBox="0 0 1134.41 252.91"><defs><style>.cls-1{fill:#fff;}</style></defs><path class="cls-1" d="M74.48,167.8V217H57.84V112.81H74.31c-.43,23.19,8,42.22,26.84,56a62,62,0,0,0,42.35,12c28.19-2.07,60.11-25.83,59.27-68h17.49v104H202.7V169C185,189,164,199.31,138.49,199.11,112.87,198.9,91.91,188.24,74.48,167.8Z"/><path class="cls-1" d="M193.51,95.7c-5.49,0-10.5.4-15.4-.19-2-.24-4.16-2.32-5.57-4.09-19.84-24.85-61.41-19.76-74.09,9.34-5.83,13.38-4.42,26.57,4.26,38.34,10,13.59,24,19.37,40.65,17.53,15-1.65,26.55-9.19,33.77-22.75.76-1.42,1.28-3,2.2-5.13H144.87V113.11h52.31c5.2,26.13-18.35,57.27-47.47,62.88C118,182.1,86.4,161,80.22,129.77,73.46,95.5,93.88,63.9,127.46,57.42S187.9,74.56,193.51,95.7Z"/><path class="cls-1" d="M355.64,124.09v36.42H347a47.91,47.91,0,0,0-2.7-7.83q-8.67,8.88-22.08,8.88-15.84,0-24.66-9.53t-8.82-24.65q0-16.27,9.41-26.15t25.54-9.88q13.51,0,21.83,6.39a26.37,26.37,0,0,1,10.14,17l-18,2q-2.21-12.37-13.94-12.37-7.73,0-11.66,5.86T308.06,127q0,10.47,4.27,16t12.17,5.53a15.53,15.53,0,0,0,9.1-2.79q4-2.79,4-8.93H322.36V124.09Z"/><path class="cls-1" d="M389.81,147H422v13.47H370.59V92.4h19.22Z"/><path class="cls-1" d="M461,161.56q-16.35,0-25.31-10.33t-9-25q0-14.91,9.07-24.9t25.84-10q17,0,25.58,10.66a37.64,37.64,0,0,1,8.63,24.37q0,14.82-8.9,25T461,161.56Zm.54-57.18q-14.92,0-14.92,22.05t14.92,22.1q14.44,0,14.44-22T461.51,104.38Z"/><path class="cls-1" d="M508.22,92.4H546q10.15,0,15.25,2.1a21.63,21.63,0,0,1,8.42,6A14.06,14.06,0,0,1,573,110q0,11.33-14.6,15.11,8.43,1.59,12.64,6.34a15.25,15.25,0,0,1,4.21,10.33q0,7.65-6.88,13.21T546,160.51H508.22Zm18.93,12v14.92H541.5q7.89,0,9.94-2.62a8.25,8.25,0,0,0,2-5,6.44,6.44,0,0,0-1.69-4.46,7.31,7.31,0,0,0-3.71-2.35,42.1,42.1,0,0,0-8-.47Zm0,27v16.42h14.56q7.45,0,10.54-2.2a7.3,7.3,0,0,0,.12-11.83q-3-2.38-9.83-2.39Z"/><path class="cls-1" d="M645.2,105.37H606.64v14H637v12.82H606.64V147H645.2v13.47H587.36V92.4H645.2Z"/><path class="cls-1" d="M722.85,160.51l-20-55.53v55.53H687V92.4h29.54l14.21,40.77L745.67,92.4H775.3v68.11H756.2V105l-20.37,55.53Z"/><path class="cls-1" d="M831.23,92.4l25.35,68.11H836.19l-5-14H805l-5.08,14H783.31l26-68.11Zm-21.66,41.51h17.16L818.22,110Z"/><path class="cls-1" d="M884.4,133.52v27H865.3V92.4h35.59q9.86,0,15.81,1.92a19.78,19.78,0,0,1,9.88,7.06,18.37,18.37,0,0,1,3.91,11.42q0,12.26-14.06,17.6l15,30.11h-21l-12.43-27Zm0-29v17.36H896a36.14,36.14,0,0,0,8.27-.67,9.1,9.1,0,0,0,4.6-3,7.88,7.88,0,0,0,2-5.31,7.44,7.44,0,0,0-2-5.09,8.34,8.34,0,0,0-4.39-2.77,49.19,49.19,0,0,0-8.9-.52Z"/><path class="cls-1" d="M964.07,92.4v68.11H945.15V92.4Z"/><path class="cls-1" d="M1042.62,92.4v68.11h-16.19l-31.69-46c0,1.16.08,1.92.12,2.29a22.36,22.36,0,0,1,.24,2.94v40.77H980.33V92.4h20.44l27.55,40.17A41.44,41.44,0,0,1,1028,128V92.4Z"/><path class="cls-1" d="M1116.71,105.37h-38.56v14h30.32v12.82h-30.32V147h38.56v13.47h-57.84V92.4h57.84Z"/></svg>